<?xml version="1.0" encoding="UTF-8"?>
<svg id="Layer_1" xmlns="http://www.w3.org/2000/svg" version="1.1" viewBox="0 0 673 588">
  <!-- Generator: Adobe Illustrator 30.1.0, SVG Export Plug-In . SVG Version: 2.1.1 Build 136)  -->
  <defs>
    <style>
      .st0, .st1, .st2, .st3, .st4, .st5, .st6 {
        fill: none;
      }

      .st7 {
        fill: #506657;
      }

      .st7, .st8, .st9, .st10, .st11, .st12, .st13, .st14, .st15 {
        fill-rule: evenodd;
      }

      .st8 {
        fill: #e6c37e;
      }

      .st16 {
        fill: #8c8c8c;
        font-family: Poppins-Regular, Poppins;
        font-size: 14px;
      }

      .st16, .st17, .st18, .st19 {
        isolation: isolate;
      }

      .st9 {
        fill: #98bfff;
      }

      .st20, .st18, .st12, .st19 {
        fill: #294735;
      }

      .st1 {
        stroke: #9e9e9e;
      }

      .st1, .st2, .st3, .st4, .st5, .st6 {
        stroke-linecap: round;
        stroke-linejoin: round;
      }

      .st10 {
        fill: #f4f4f4;
      }

      .st18 {
        font-family: Poppins-SemiBold, Poppins;
        font-size: 18px;
        font-weight: 600;
      }

      .st11 {
        fill: #475b4f;
      }

      .st2, .st4 {
        stroke: #e6c37e;
      }

      .st3, .st4, .st6 {
        stroke-width: 2px;
      }

      .st3, .st5 {
        stroke: #2c2c2c;
      }

      .st13 {
        fill: #496353;
      }

      .st19 {
        font-family: Poppins-Medium, Poppins;
        font-size: 15px;
        font-weight: 500;
      }

      .st21 {
        fill: #6d997f;
      }

      .st4 {
        stroke-dasharray: 5 7;
      }

      .st6 {
        stroke: #506657;
      }

      .st14 {
        fill: #e2a5ff;
      }

      .st15 {
        fill: #a25fc1;
      }
    </style>
  </defs>
  <g id="blend">
    <g id="g-root-sy_-1_cu_m7cz1e20gjk8-stroke">
      <g id="sy_-1_cu_m7cz1e20gjk8-stroke">
        <path class="st4" d="M324.7,421.6c-22.5-22.6-38.4-79.2-38.4-145.6s26.9-156,60-156,60,69.8,60,156-15.9,123-38.4,145.6M412.7,145.8c-31.4,6.1-76.6,42.2-114.9,94.9-50.6,69.7-70,142-43.2,161.5,26.8,19.5,89.6-21.2,140.2-90.9,39.3-54.1,59.7-109.7,54.4-141.1M243.4,170.2c-5.3,31.3,15.1,87,54.4,141.1,50.6,69.7,113.4,110.4,140.2,90.9,26.8-19.5,7.5-91.8-43.2-161.5-38.3-52.7-83.5-88.8-114.9-94.9M213.4,340.9c27.9,15.1,87.5,12.9,151.5-7.8,81.9-26.6,140.1-73.8,129.8-105.3-10.2-31.5-85-35.5-166.9-8.9-63.1,20.5-112.2,53.2-126.6,81.6M491.5,300.5c-14.5-28.3-63.5-61-126.6-81.6-81.9-26.6-156.7-22.7-166.9,8.9-10.2,31.5,47.9,78.6,129.8,105.3,64,20.8,123.6,22.9,151.5,7.8"/>
      </g>
    </g>
    <g id="g-root-sy_0_cu_Vector_hs5y0220gh6p-fill">
      <g id="sy_0_cu_Vector_hs5y0220gh6p-fill-merged">
        <path class="st8" d="M390.7,257.6c10.1,24.5-1.5,52.6-26,62.7-24.5,10.1-52.6-1.5-62.7-26-10.1-24.5,1.5-52.6,26-62.7,24.5-10.1,52.6,1.5,62.7,26"/>
      </g>
    </g>
    <g id="g-root-sy_0_cu_Vector_hs5y0220gh6p-stroke">
      <g id="sy_0_cu_Vector_hs5y0220gh6p-stroke">
        <path class="st3" d="M390.7,257.6c10.1,24.5-1.5,52.6-26,62.7-24.5,10.1-52.6-1.5-62.7-26-10.1-24.5,1.5-52.6,26-62.7,24.5-10.1,52.6,1.5,62.7,26Z"/>
      </g>
    </g>
    <g id="g-root-sy_5_cu_Vector_8wixr620ghze-fill">
      <g id="sy_5_cu_Vector_8wixr620ghze-fill-merged">
        <path class="st15" d="M247.1,172.2c-12.2-5.1-18.1-19.1-13-31.3,5.1-12.2,19.1-18.1,31.3-13,12.2,5.1,18.1,19.1,13,31.3s-19.1,18.1-31.3,13"/>
      </g>
    </g>
    <g id="g-root-sy_5_cu_Vector_8wixr620ghze-stroke">
      <g id="sy_5_cu_Vector_8wixr620ghze-stroke">
        <path class="st20" d="M247.1,172.2c-12.2-5.1-18.1-19.1-13-31.3,5.1-12.2,19.1-18.1,31.3-13s18.1,19.1,13,31.3c-5.1,12.2-19.1,18.1-31.3,13Z"/>
      </g>
    </g>
    <g id="g-root-sy_4_cu_Vector_4gpfmq20girn-fill">
      <g id="sy_4_cu_Vector_4gpfmq20girn-fill-merged">
        <path class="st12" d="M205.5,346.2c-12.2,5.1-26.3-.7-31.3-13-5.1-12.2.7-26.3,13-31.3,12.2-5.1,26.3.7,31.3,13,5.1,12.2-.7,26.3-13,31.3"/>
      </g>
    </g>
    <g id="g-root-sy_4_cu_Vector_4gpfmq20girn-stroke">
      <g id="sy_4_cu_Vector_4gpfmq20girn-stroke">
        <path class="st0" d="M205.5,346.2c-12.2,5.1-26.3-.7-31.3-13-5.1-12.2.7-26.3,13-31.3,12.2-5.1,26.3.7,31.3,13,5.1,12.2-.7,26.3-13,31.3Z"/>
      </g>
    </g>
    <g id="g-root-sy_3_cu_Vector_1q6zgbm20ggzo-fill">
      <g id="sy_3_cu_Vector_1q6zgbm20ggzo-fill-merged">
        <path class="st12" d="M368.5,441.2c-5.1,12.2-19.1,18.1-31.3,13-12.2-5.1-18.1-19.1-13-31.3,5.1-12.2,19.1-18.1,31.3-13,12.2,5.1,18.1,19.1,13,31.3"/>
      </g>
    </g>
    <g id="g-root-sy_3_cu_Vector_1q6zgbm20ggzo-stroke">
      <g id="sy_3_cu_Vector_1q6zgbm20ggzo-stroke">
        <path class="st0" d="M368.5,441.2c-5.1,12.2-19.1,18.1-31.3,13-12.2-5.1-18.1-19.1-13-31.3,5.1-12.2,19.1-18.1,31.3-13,12.2,5.1,18.1,19.1,13,31.3Z"/>
      </g>
    </g>
    <g id="g-root-sy_2_cu_Vector_1hbcg2q20ghsd-fill">
      <g id="sy_2_cu_Vector_1hbcg2q20ghsd-fill-merged">
        <path class="st12" d="M518.5,314.8c5.1,12.2-.7,26.3-13,31.3s-26.3-.7-31.3-13c-5.1-12.2.7-26.3,13-31.3,12.2-5.1,26.3.7,31.3,13"/>
      </g>
    </g>
    <g id="g-root-sy_2_cu_Vector_1hbcg2q20ghsd-stroke">
      <g id="sy_2_cu_Vector_1hbcg2q20ghsd-stroke">
        <path class="st0" d="M518.5,314.8c5.1,12.2-.7,26.3-13,31.3-12.2,5.1-26.3-.7-31.3-13-5.1-12.2.7-26.3,13-31.3,12.2-5.1,26.3.7,31.3,13Z"/>
      </g>
    </g>
    <g id="g-root-sy_1_cu_Vector_1cvixya20gikm-fill">
      <g id="sy_1_cu_Vector_1cvixya20gikm-fill-merged">
        <path class="st14" d="M427.1,172.2c-12.2-5.1-18.1-19.1-13-31.3,5.1-12.2,19.1-18.1,31.3-13,12.2,5.1,18.1,19.1,13,31.3s-19.1,18.1-31.3,13"/>
      </g>
    </g>
    <g id="g-root-sy_1_cu_Vector_1cvixya20gikm-stroke">
      <g id="sy_1_cu_Vector_1cvixya20gikm-stroke">
        <path class="st20" d="M427.1,172.2c-12.2-5.1-18.1-19.1-13-31.3,5.1-12.2,19.1-18.1,31.3-13,12.2,5.1,18.1,19.1,13,31.3-5.1,12.2-19.1,18.1-31.3,13Z"/>
      </g>
    </g>
    <g id="g-root-ic_3_13zvxpe20gjdb-stroke">
      <g id="ic_3_13zvxpe20gjdb-stroke">
        <path class="st2" d="M246.3,144v13.5M266.3,144v13.5M249.8,154.5h6.5v7h-6.5c-.3,0-.5-.2-.5-.5v-6c0-.3.2-.5.5-.5ZM256.3,154.5h6.5c.3,0,.5.2.5.5v6c0,.3-.2.5-.5.5h-6.5v-7h0ZM253.3,147.5h6c.3,0,.5.2.5.5v6.5h-7v-6.5c0-.3.2-.5.5-.5ZM254.8,147.5h3v2.5c0,.3-.2.5-.5.5h-2c-.3,0-.5-.2-.5-.5v-2.5h0ZM251.3,154.5h3v2.5c0,.3-.2.5-.5.5h-2c-.3,0-.5-.2-.5-.5v-2.5h0ZM258.3,154.5h3v2.5c0,.3-.2.5-.5.5h-2c-.3,0-.5-.2-.5-.5v-2.5h0ZM266.8,144c.3,0,.5-.2.5-.5v-1.1c0-.2-.1-.4-.3-.5l-10.4-3.3c-.2,0-.4,0-.6,0l-10.4,3.3c-.2,0-.4.3-.4.5v1.1c0,.3.2.5.5.5h21Z"/>
      </g>
    </g>
    <g id="g-root-tx_storagea_1uux4ki20qbrj-fill">
      <g id="tx_storagea_1uux4ki20qbrj-fill-merged">
        <g class="st17">
          <text class="st18" transform="translate(102.4 139.8)"><tspan x="0" y="0">Storage and </tspan></text>
          <text class="st18" transform="translate(129.8 163.8)"><tspan x="0" y="0">Handling</tspan></text>
        </g>
      </g>
    </g>
    <g id="g-root-ic_4_1lrsfaa20ow77-stroke">
      <g id="ic_4_1lrsfaa20ow77-stroke">
        <path class="st2" d="M439.3,157.7h-6l.9-1.7c0-.2.3-.3.4-.3h3.4c.2,0,.4.1.4.3l.9,1.7ZM433.3,161.2v-1.5h6v1.5M436.3,159.7v1.5M431.3,157.7h-6l.9-1.7c0-.2.3-.3.4-.3h3.4c.2,0,.4.1.4.3l.9,1.7ZM425.3,161.2v-1.5h6v1.5M428.3,159.7v1.5M447.3,157.7h-6l.9-1.7c0-.2.3-.3.4-.3h3.4c.2,0,.4.1.4.3l.9,1.7ZM441.3,161.2v-1.5h6v1.5M444.3,159.7v1.5M425.3,153.2l1.4-1.4c0,0,.2-.1.4-.1h18.6c.1,0,.3,0,.4.1l1.4,1.4M432.3,150.2v3M440.3,150.2v3M442.3,151.7v-6.1c0-.2-.1-.4-.3-.5l-2.7-.9h-6l-2.7.9c-.2,0-.3.3-.3.5v6.1M430.3,146.7h12M431.3,157.7h2M436.7,144.2c-1.4-1.7-3.5-2.3-6.6-2.5-.2,0-.3-.1-.4-.3l-1-2c0-.2,0-.3,0-.5,0-.1.3-.2.4-.2,6,0,9.5,1.6,11.4,5.9M439.3,157.7h2"/>
      </g>
    </g>
    <g id="g-root-tx_smelting_zkowo220rq4j-fill">
      <g id="tx_smelting_zkowo220rq4j-fill-merged">
        <g class="st17">
          <text class="st18" transform="translate(469.8 153)"><tspan x="0" y="0">Smelting Zones</tspan></text>
        </g>
      </g>
    </g>
    <g id="g-root-ic_arm_1qaqaua20owlc-stroke">
      <g id="ic_arm_1qaqaua20owlc-stroke">
        <path class="st6" d="M348.8,286.5v-10l-12,6.5v-6.5l-13,6.5v15.5h45v-12h-20ZM342.8,291.5c0-1.1-.9-2-2-2h-6c-1.1,0-2,.9-2,2v7h10v-7ZM352.8,292.5h2M360.8,292.5h2M355.8,274h10v12.5h-10v-12.5ZM363.8,262.5l2,11.5h-10l2-11.5M355.8,258.5c0,2.8,2.2,5,5,5s5-2.2,5-5-2.2-5-5-5-5,2.2-5,5M360.8,256.5c-1.1,0-2,.9-2,2s.9,2,2,2,2-.9,2-2-.9-2-2-2ZM332.3,253.5h6v10h-6v-10ZM355.8,258.5h-17.5M332.3,260.4c-.5,0-.9.1-1.2.4l-5,4c-.4.4-.7.9-.7,1.5,0,.6.2,1.1.6,1.5l3,3c.5.6,1.3.8,2,.6.7-.2,1.3-.7,1.5-1.5.2-.7,0-1.5-.6-2l-1.4-1.4,3.3-2.6c.1-.1.3-.3.3-.4M336.7,263.5c0,.2.2.3.4.4l3.2,2.6-1.4,1.4c-.8.8-.8,2.1,0,2.8.8.8,2.1.8,2.8,0l3-3c.4-.4.6-1,.6-1.5,0-.6-.3-1.1-.7-1.4l-5-4c-.4-.3-.8-.4-1.2-.4"/>
      </g>
    </g>
    <g id="g-root-ic_2_4lp8bm20hvkc-stroke">
      <g id="ic_2_4lp8bm20hvkc-stroke">
        <path class="st2" d="M201.3,327.5v-8.7M206.3,327.5v-8.7M196.3,327.5v-8.7M191.3,327.5v-4.2M186.8,327.5v-1.7M206.8,312.8h-11v6h11v-6ZM195.8,314.4l-3.6,2.2-1,2.6-3.4,1-1,1.5v.8M185.1,335.2v-7.3h22.5v7.3M185.1,331h22.5M199.4,315.8h7.4"/>
      </g>
    </g>
    <g id="g-root-tx_castinga_18eghnm20rqbk-fill">
      <g id="tx_castinga_18eghnm20rqbk-fill-merged">
        <g class="st17">
          <text class="st18" transform="translate(52.2 319.5)"><tspan x="0" y="0">Casting and </tspan></text>
          <text class="st18" transform="translate(26 343.5)"><tspan x="0" y="0">Bar Production</tspan></text>
        </g>
      </g>
    </g>
    <g id="g-root-ic_grow_5994220kqa3-stroke">
      <g id="ic_grow_5994220kqa3-stroke">
        <path class="st2" d="M495.8,312.8h3v3M498.8,312.8l-5.2,5.2c-.4.4-1,.4-1.4,0l-1.8-1.9c-.4-.4-1-.4-1.4,0l-4.1,4.1M502,317.8l1.8,2.2s.6.8-.2,1.4l-6,4.8s-.8.6-1.4-.2l-1.8-2.2s-.6-.8.2-1.4l6-4.8s.8-.6,1.4.2M503.6,319.8l-1.5-1.8,1.7-1.4c.3-.3.8-.5,1.2-.3.4.1.8.5.8,1,0,.5-.1.9-.5,1.2l-1.7,1.4ZM505.5,316.8l1.7-1.3-.6-.8M507.8,316.2l-.6-.8M487.3,329.2h6.5M489.3,335.2h15M501.9,322.7c2.1,2.3,2.5,5.8,1.1,8.6-1.5,2.8-4.6,4.3-7.7,3.9-3.1-.5-5.6-2.8-6.3-5.9M499.5,324.6c1.3,1.3,1.7,3.3.9,5-.7,1.7-2.4,2.8-4.3,2.7s-3.5-1.3-4.1-3"/>
      </g>
    </g>
    <g id="g-root-tx_assaylab_1hbcg2q20rqx6-fill">
      <g id="tx_assaylab_1hbcg2q20rqx6-fill-merged">
        <g class="st17">
          <text class="st18" transform="translate(530.9 317.2)"><tspan x="0" y="0">Assay </tspan></text>
          <text class="st18" transform="translate(530.9 341.2)"><tspan x="0" y="0">Laboratories</tspan></text>
        </g>
      </g>
    </g>
    <g id="g-root-ic_hori_dbpysi20kpah-stroke">
      <g id="ic_hori_dbpysi20kpah-stroke">
        <path class="st2" d="M349.8,432c0,3.9,1.8,7,4,7s4-3.1,4-7-1.8-7-4-7-4,3.1-4,7ZM342.3,439c-2.2,0-4-3.1-4-7s1.8-7,4-7M351.3,439c-2.2,0-4-3.1-4-7s1.8-7,4-7M345.3,439c-2.2,0-4-3.1-4-7s1.8-7,4-7M353.8,439h-12.5c-6.3-3.8-6.5-3.6-6.5-7s.2-3.2,6.5-7h12.5M342,428h6M341.3,432h6M342,436h6"/>
      </g>
    </g>
    <g id="g-root-tx_refining_8wixr620rr49-fill">
      <g id="tx_refining_8wixr620rr49-fill-merged">
        <g class="st17">
          <text class="st18" transform="translate(309.1 488.9)"><tspan x="0" y="0">Refining </tspan></text>
          <text class="st18" transform="translate(299.5 512.9)"><tspan x="0" y="0">Chambers</tspan></text>
        </g>
      </g>
    </g>
  </g>
  <g id="items" class="st17">
    <g id="blend1" data-name="blend">
      <g id="g-root-cp_1_g-1_qns5ov1vhsooy-fill">
        <g id="cp_1_g-1_qns5ov1vhsooy-fill-merged">
          <path class="st9" d="M400.1,839.8c0,66.3,18.8,120,42,120s6.1-1,9-2.8c-18.9-11.8-33-59.8-33-117.2s14.1-105.5,33-117.2c-2.9-1.8-5.9-2.8-9-2.8-23.2,0-42,53.7-42,120"/>
        </g>
        <g id="cp_1_g-1_qns5ov1vhsooy-fill-merged1" data-name="cp_1_g-1_qns5ov1vhsooy-fill-merged">
          <path class="st9" d="M502.1,839.8c0,66.3-18.8,120-42,120h-18c3.1,0,6.1-1,9-2.8,18.9-11.8,33-59.8,33-117.2s-14.1-105.5-33-117.2c-2.9-1.8-5.9-2.8-9-2.8h18c23.2,0,42,53.7,42,120"/>
        </g>
      </g>
      <g id="g-root-cp_1_g-1_qns5ov1vhsooy-stroke">
        <g id="cp_1_g-1_qns5ov1vhsooy-stroke">
          <path class="st21" d="M400.1,839.8c0,66.3,18.8,120,42,120s6.1-1,9-2.8c-18.9-11.8-33-59.8-33-117.2s14.1-105.5,33-117.2c-2.9-1.8-5.9-2.8-9-2.8-23.2,0-42,53.7-42,120Z"/>
        </g>
        <g id="cp_1_g-1_qns5ov1vhsooy-stroke1" data-name="cp_1_g-1_qns5ov1vhsooy-stroke">
          <path class="st21" d="M502.1,839.8c0,66.3-18.8,120-42,120h-18c3.1,0,6.1-1,9-2.8,18.9-11.8,33-59.8,33-117.2s-14.1-105.5-33-117.2c-2.9-1.8-5.9-2.8-9-2.8h18c23.2,0,42,53.7,42,120Z"/>
        </g>
      </g>
      <g id="g-root-cp_2_g-2_dcy4en1vhsn43-fill">
        <g id="cp_2_g-2_dcy4en1vhsn43-fill-merged">
          <path class="st13" d="M568.1,839.8c0,66.3,18.8,120,42,120s6.1-1,9-2.8c-18.9-11.8-33-59.8-33-117.2s14.1-105.5,33-117.2c-2.9-1.8-5.9-2.8-9-2.8-23.2,0-42,53.7-42,120"/>
        </g>
        <g id="cp_2_g-2_dcy4en1vhsn43-fill-merged1" data-name="cp_2_g-2_dcy4en1vhsn43-fill-merged">
          <path class="st13" d="M670.1,839.8c0,66.3-18.8,120-42,120h-18c3.1,0,6.1-1,9-2.8,18.9-11.8,33-59.8,33-117.2s-14.1-105.5-33-117.2c-2.9-1.8-5.9-2.8-9-2.8h18c23.2,0,42,53.7,42,120"/>
        </g>
      </g>
      <g id="g-root-cp_2_g-2_dcy4en1vhsn43-stroke">
        <g id="cp_2_g-2_dcy4en1vhsn43-stroke">
          <path class="st5" d="M568.1,839.8c0,66.3,18.8,120,42,120s6.1-1,9-2.8c-18.9-11.8-33-59.8-33-117.2s14.1-105.5,33-117.2c-2.9-1.8-5.9-2.8-9-2.8-23.2,0-42,53.7-42,120Z"/>
        </g>
        <g id="cp_2_g-2_dcy4en1vhsn43-stroke1" data-name="cp_2_g-2_dcy4en1vhsn43-stroke">
          <path class="st5" d="M670.1,839.8c0,66.3-18.8,120-42,120h-18c3.1,0,6.1-1,9-2.8,18.9-11.8,33-59.8,33-117.2s-14.1-105.5-33-117.2c-2.9-1.8-5.9-2.8-9-2.8h18c23.2,0,42,53.7,42,120Z"/>
        </g>
      </g>
      <g id="g-root-cp_3_g-3_1hm1b1vhsop0-fill">
        <g id="cp_3_g-3_1hm1b1vhsop0-fill-merged">
          <path class="st7" d="M736.1,839.8c0,66.3,18.8,120,42,120s6.1-1,9-2.8c-18.9-11.8-33-59.8-33-117.2s14.1-105.5,33-117.2c-2.9-1.8-5.9-2.8-9-2.8-23.2,0-42,53.7-42,120"/>
        </g>
        <g id="cp_3_g-3_1hm1b1vhsop0-fill-merged1" data-name="cp_3_g-3_1hm1b1vhsop0-fill-merged">
          <path class="st7" d="M838.1,839.8c0,66.3-18.8,120-42,120h-18c3.1,0,6.1-1,9-2.8,18.9-11.8,33-59.8,33-117.2s-14.1-105.5-33-117.2c-2.9-1.8-5.9-2.8-9-2.8h18c23.2,0,42,53.7,42,120"/>
        </g>
      </g>
      <g id="g-root-cp_3_g-3_1hm1b1vhsop0-stroke">
        <g id="cp_3_g-3_1hm1b1vhsop0-stroke">
          <path class="st5" d="M736.1,839.8c0,66.3,18.8,120,42,120s6.1-1,9-2.8c-18.9-11.8-33-59.8-33-117.2s14.1-105.5,33-117.2c-2.9-1.8-5.9-2.8-9-2.8-23.2,0-42,53.7-42,120Z"/>
        </g>
        <g id="cp_3_g-3_1hm1b1vhsop0-stroke1" data-name="cp_3_g-3_1hm1b1vhsop0-stroke">
          <path class="st5" d="M838.1,839.8c0,66.3-18.8,120-42,120h-18c3.1,0,6.1-1,9-2.8,18.9-11.8,33-59.8,33-117.2s-14.1-105.5-33-117.2c-2.9-1.8-5.9-2.8-9-2.8h18c23.2,0,42,53.7,42,120Z"/>
        </g>
      </g>
      <g id="g-root-cp_4_g-4_1lrrmq71vhsmx1-fill">
        <g id="cp_4_g-4_1lrrmq71vhsmx1-fill-merged">
          <path class="st11" d="M904.1,839.8c0,66.3,18.8,120,42,120s6.1-1,9-2.8c-18.9-11.8-33-59.8-33-117.2s14.1-105.5,33-117.2c-2.9-1.8-5.9-2.8-9-2.8-23.2,0-42,53.7-42,120"/>
        </g>
        <g id="cp_4_g-4_1lrrmq71vhsmx1-fill-merged1" data-name="cp_4_g-4_1lrrmq71vhsmx1-fill-merged">
          <path class="st11" d="M1006.1,839.8c0,66.3-18.8,120-42,120h-18c3.1,0,6.1-1,9-2.8,18.9-11.8,33-59.8,33-117.2s-14.1-105.5-33-117.2c-2.9-1.8-5.9-2.8-9-2.8h18c23.2,0,42,53.7,42,120"/>
        </g>
      </g>
      <g id="g-root-cp_4_g-4_1lrrmq71vhsmx1-stroke">
        <g id="cp_4_g-4_1lrrmq71vhsmx1-stroke">
          <path class="st5" d="M904.1,839.8c0,66.3,18.8,120,42,120s6.1-1,9-2.8c-18.9-11.8-33-59.8-33-117.2s14.1-105.5,33-117.2c-2.9-1.8-5.9-2.8-9-2.8-23.2,0-42,53.7-42,120Z"/>
        </g>
        <g id="cp_4_g-4_1lrrmq71vhsmx1-stroke1" data-name="cp_4_g-4_1lrrmq71vhsmx1-stroke">
          <path class="st5" d="M1006.1,839.8c0,66.3-18.8,120-42,120h-18c3.1,0,6.1-1,9-2.8,18.9-11.8,33-59.8,33-117.2s-14.1-105.5-33-117.2c-2.9-1.8-5.9-2.8-9-2.8h18c23.2,0,42,53.7,42,120Z"/>
        </g>
      </g>
      <g id="g-root-cp_5_g-5_18gb4cv1vhsohy-fill">
        <g id="cp_5_g-5_18gb4cv1vhsohy-fill-merged">
          <path class="st12" d="M1072.1,839.8c0,66.3,18.8,120,42,120s6.1-1,9-2.8c-18.9-11.8-33-59.8-33-117.2s14.1-105.5,33-117.2c-2.9-1.8-5.9-2.8-9-2.8-23.2,0-42,53.7-42,120"/>
        </g>
        <g id="cp_5_g-5_18gb4cv1vhsohy-fill-merged1" data-name="cp_5_g-5_18gb4cv1vhsohy-fill-merged">
          <path class="st12" d="M1174.1,839.8c0,66.3-18.8,120-42,120h-18c3.1,0,6.1-1,9-2.8,18.9-11.8,33-59.8,33-117.2s-14.1-105.5-33-117.2c-2.9-1.8-5.9-2.8-9-2.8h18c23.2,0,42,53.7,42,120"/>
        </g>
      </g>
      <g id="g-root-cp_5_g-5_18gb4cv1vhsohy-stroke">
        <g id="cp_5_g-5_18gb4cv1vhsohy-stroke">
          <path class="st5" d="M1072.1,839.8c0,66.3,18.8,120,42,120s6.1-1,9-2.8c-18.9-11.8-33-59.8-33-117.2s14.1-105.5,33-117.2c-2.9-1.8-5.9-2.8-9-2.8-23.2,0-42,53.7-42,120Z"/>
        </g>
        <g id="cp_5_g-5_18gb4cv1vhsohy-stroke1" data-name="cp_5_g-5_18gb4cv1vhsohy-stroke">
          <path class="st5" d="M1174.1,839.8c0,66.3-18.8,120-42,120h-18c3.1,0,6.1-1,9-2.8,18.9-11.8,33-59.8,33-117.2s-14.1-105.5-33-117.2c-2.9-1.8-5.9-2.8-9-2.8h18c23.2,0,42,53.7,42,120Z"/>
        </g>
      </g>
      <g id="g-root-cp_0_g-0_hu0kpb1vhsohz-fill">
        <g id="cp_0_g-0_hu0kpb1vhsohz-fill-merged">
          <path class="st8" d="M319.1,719.8v-12h24v12c0,13.3,10.7,24,24,24v-12l24,24-24,24v-12c-26.5,0-48-21.5-48-48"/>
        </g>
        <g id="cp_0_g-0_hu0kpb1vhsohz-fill-merged1" data-name="cp_0_g-0_hu0kpb1vhsohz-fill-merged">
          <path class="st8" d="M1195.1,767.8h-12v-24h12c13.3,0,24-10.7,24-24h-12l24-24,24,24h-12c0,26.5-21.5,48-48,48"/>
        </g>
        <g id="cp_0_g-0_hu0kpb1vhsohz-fill-merged2" data-name="cp_0_g-0_hu0kpb1vhsohz-fill-merged">
          <path class="st8" d="M319.1,959.8v12h24v-12c0-13.3,10.7-24,24-24v12l24-24-24-24v12c-26.5,0-48,21.5-48,48"/>
        </g>
        <g id="cp_0_g-0_hu0kpb1vhsohz-fill-merged3" data-name="cp_0_g-0_hu0kpb1vhsohz-fill-merged">
          <path class="st8" d="M1195.1,911.8h-12v24h12c13.3,0,24,10.7,24,24h-12l24,24,24-24h-12c0-26.5-21.5-48-48-48"/>
        </g>
        <g id="cp_0_g-0_hu0kpb1vhsohz-fill-merged4" data-name="cp_0_g-0_hu0kpb1vhsohz-fill-merged">
          <path class="st8" d="M511.1,935.8h24v12l24-24-24-24v12h-24v24"/>
        </g>
        <g id="cp_0_g-0_hu0kpb1vhsohz-fill-merged5" data-name="cp_0_g-0_hu0kpb1vhsohz-fill-merged">
          <path class="st8" d="M679.1,935.8h24v12l24-24-24-24v12h-24v24"/>
        </g>
        <g id="cp_0_g-0_hu0kpb1vhsohz-fill-merged6" data-name="cp_0_g-0_hu0kpb1vhsohz-fill-merged">
          <path class="st8" d="M847.1,935.8h24v12l24-24-24-24v12h-24v24"/>
        </g>
        <g id="cp_0_g-0_hu0kpb1vhsohz-fill-merged7" data-name="cp_0_g-0_hu0kpb1vhsohz-fill-merged">
          <path class="st8" d="M1015.1,935.8h24v12l24-24-24-24v12h-24v24"/>
        </g>
        <g id="cp_0_g-0_hu0kpb1vhsohz-fill-merged8" data-name="cp_0_g-0_hu0kpb1vhsohz-fill-merged">
          <path class="st8" d="M511.1,767.8h24v12l24-24-24-24v12h-24v24"/>
        </g>
        <g id="cp_0_g-0_hu0kpb1vhsohz-fill-merged9" data-name="cp_0_g-0_hu0kpb1vhsohz-fill-merged">
          <path class="st8" d="M679.1,767.8h24v12l24-24-24-24v12h-24v24"/>
        </g>
        <g id="cp_0_g-0_hu0kpb1vhsohz-fill-merged10" data-name="cp_0_g-0_hu0kpb1vhsohz-fill-merged">
          <path class="st8" d="M847.1,767.8h24v12l24-24-24-24v12h-24v24"/>
        </g>
        <g id="cp_0_g-0_hu0kpb1vhsohz-fill-merged11" data-name="cp_0_g-0_hu0kpb1vhsohz-fill-merged">
          <path class="st8" d="M1015.1,767.8h24v12l24-24-24-24v12h-24v24"/>
        </g>
        <g id="cp_0_g-0_hu0kpb1vhsohz-fill-merged12" data-name="cp_0_g-0_hu0kpb1vhsohz-fill-merged">
          <path class="st10" d="M484,830.8c-4.9,0-8.9,4.1-8.9,9s4,8.9,8.9,9c0-3,.1-6,.1-9s0-6-.1-9M412.1,776.8c5,0,9-4,9-9s-4-9-9-9-9,4-9,9,4,9,9,9M385.1,839.8c0,5-4,9-9,9s-9-4-9-9,4-9,9-9,9,4,9,9M412.1,848.8c5,0,9-4,9-9s-4-9-9-9-9,4-9,9,4,9,9,9M394.1,884.8c5,0,9-4,9-9s-4-9-9-9-9,4-9,9,4,9,9,9M430.1,884.8c5,0,9-4,9-9s-4-9-9-9-9,4-9,9,4,9,9,9M475.1,875.8c0,5-4,9-9,9s-9-4-9-9,4-9,9-9,9,4,9,9M448.1,776.8c5,0,9-4,9-9s-4-9-9-9-9,4-9,9,4,9,9,9M421.1,911.8c0,5-4,9-9,9s-9-4-9-9,4-9,9-9,9,4,9,9M457.1,911.8c0,5-4,9-9,9s-9-4-9-9,4-9,9-9,9,4,9,9M448.1,848.8c5,0,9-4,9-9s-4-9-9-9-9,4-9,9,4,9,9,9M394.1,812.8c5,0,9-4,9-9s-4-9-9-9-9,4-9,9,4,9,9,9M439.1,803.8c0,5-4,9-9,9s-9-4-9-9,4-9,9-9,9,4,9,9M466.1,812.8c5,0,9-4,9-9s-4-9-9-9-9,4-9,9,4,9,9,9"/>
        </g>
        <g id="cp_0_g-0_hu0kpb1vhsohz-fill-merged13" data-name="cp_0_g-0_hu0kpb1vhsohz-fill-merged">
          <path class="st10" d="M349.1,839.8c0,5-4,9-9,9s-9-4-9-9,4-9,9-9,9,4,9,9M358.1,884.8c5,0,9-4,9-9s-4-9-9-9-9,4-9,9,4,9,9,9M358.1,812.8c5,0,9-4,9-9s-4-9-9-9-9,4-9,9,4,9,9,9"/>
        </g>
        <g id="cp_0_g-0_hu0kpb1vhsohz-fill-merged14" data-name="cp_0_g-0_hu0kpb1vhsohz-fill-merged">
          <path class="st10" d="M817.1,795.3c-3.5,1.2-6,4.6-6,8.5s3.5,8.4,7.9,8.9c-.5-6-1.1-11.8-1.9-17.4M819.1,866.9c-4.5.5-7.9,4.3-7.9,8.9s2.5,7.3,6,8.5c.8-5.6,1.4-11.4,1.9-17.4M787.1,776.8c5,0,9-4,9-9s-4-9-9-9-9,4-9,9,4,9,9,9M688.1,884.8c5,0,9-4,9-9s-4-9-9-9-9,4-9,9,4,9,9,9M754.1,884.8c5,0,9-4,9-9s-4-9-9-9-9,4-9,9,4,9,9,9M796.1,911.8c0,5-4,9-9,9s-9-4-9-9,4-9,9-9,9,4,9,9M787.1,848.8c5,0,9-4,9-9s-4-9-9-9-9,4-9,9,4,9,9,9M712.1,839.8c0,5,4,9,9,9s9-4,9-9-4-9-9-9-9,4-9,9M754.1,812.8c5,0,9-4,9-9s-4-9-9-9-9,4-9,9,4,9,9,9M697.1,803.8c0,5-4,9-9,9s-9-4-9-9,4-9,9-9,9,4,9,9"/>
        </g>
        <g id="cp_0_g-0_hu0kpb1vhsohz-fill-merged15" data-name="cp_0_g-0_hu0kpb1vhsohz-fill-merged">
          <path class="st10" d="M649.3,796.3c-2.5,1.6-4.1,4.4-4.1,7.6s2.5,7.2,5.9,8.4c-.5-5.5-1-10.8-1.7-16M651,867.4c-3.4,1.3-5.9,4.6-5.9,8.4s1.7,6,4.1,7.6c.7-5.2,1.3-10.5,1.7-16M586.1,776.8c5,0,9-4,9-9s-4-9-9-9-9,4-9,9,4,9,9,9M520.1,884.8c5,0,9-4,9-9s-4-9-9-9-9,4-9,9,4,9,9,9M571.1,875.8c0,5-4,9-9,9s-9-4-9-9,4-9,9-9,9,4,9,9M617.1,875.8c0,5-4,9-9,9s-9-4-9-9,4-9,9-9,9,4,9,9M641.1,767.8c0,5-4,9-9,9s-9-4-9-9,4-9,9-9,9,4,9,9M586.1,920.8c5,0,9-4,9-9s-4-9-9-9-9,4-9,9,4,9,9,9M641.1,911.8c0,5-4,9-9,9s-9-4-9-9,4-9,9-9,9,4,9,9M586.1,848.8c5,0,9-4,9-9s-4-9-9-9-9,4-9,9,4,9,9,9M641.1,839.8c0,5-4,9-9,9s-9-4-9-9,4-9,9-9,9,4,9,9M540.1,848.8c-5,0-9-4-9-9s4-9,9-9,9,4,9,9-4,9-9,9M571.1,803.8c0,5-4,9-9,9s-9-4-9-9,4-9,9-9,9,4,9,9M520.1,812.8c5,0,9-4,9-9s-4-9-9-9-9,4-9,9,4,9,9,9M617.1,803.8c0,5-4,9-9,9s-9-4-9-9,4-9,9-9,9,4,9,9"/>
        </g>
        <g id="cp_0_g-0_hu0kpb1vhsohz-fill-merged16" data-name="cp_0_g-0_hu0kpb1vhsohz-fill-merged">
          <path class="st10" d="M977.5,759.9c-1.3-.7-2.8-1.1-4.3-1.1-5,0-9,4-9,9s4,9,9,9,6.2-1.8,7.7-4.4c-1-4.4-2.2-8.5-3.4-12.5M980.9,907.3c-1.6-2.6-4.5-4.4-7.7-4.4-5,0-9,4-9,9s4,9,9,9,3.1-.4,4.3-1.1c1.2-3.9,2.4-8.1,3.4-12.5M856.1,884.8c5,0,9-4,9-9s-4-9-9-9-9,4-9,9,4,9,9,9M934.1,884.8c5,0,9-4,9-9s-4-9-9-9-9,4-9,9,4,9,9,9M982.1,839.8c0,5-4,9-9,9s-9-4-9-9,4-9,9-9,9,4,9,9M895.1,848.8c-5,0-9-4-9-9s4-9,9-9,9,4,9,9-4,9-9,9M943.1,803.8c0,5-4,9-9,9s-9-4-9-9,4-9,9-9,9,4,9,9M856.1,812.8c5,0,9-4,9-9s-4-9-9-9-9,4-9,9,4,9,9,9"/>
        </g>
        <g id="cp_0_g-0_hu0kpb1vhsohz-fill-merged17" data-name="cp_0_g-0_hu0kpb1vhsohz-fill-merged">
          <path class="st10" d="M1135.1,875.8c0,5-4,9-9,9s-9-4-9-9,4-9,9-9,9,4,9,9M1033.1,875.8c0,5-4,9-9,9s-9-4-9-9,4-9,9-9,9,4,9,9M1066.1,839.8c0,5,4,9,9,9s9-4,9-9-4-9-9-9-9,4-9,9M1135.1,803.8c0,5-4,9-9,9s-9-4-9-9,4-9,9-9,9,4,9,9M1033.1,803.8c0,5-4,9-9,9s-9-4-9-9,4-9,9-9,9,4,9,9"/>
        </g>
        <g id="cp_0_g-0_hu0kpb1vhsohz-fill-merged18" data-name="cp_0_g-0_hu0kpb1vhsohz-fill-merged">
          <path class="st10" d="M1231.1,839.8c0-5-4-9-9-9s-9,4-9,9,4,9,9,9,9-4,9-9"/>
        </g>
      </g>
      <g id="g-root-cp_0_g-0_hu0kpb1vhsohz-stroke">
        <g id="cp_0_g-0_hu0kpb1vhsohz-stroke">
          <path class="st5" d="M319.1,719.8v-12h24v12c0,13.3,10.7,24,24,24v-12l24,24-24,24v-12c-26.5,0-48-21.5-48-48Z"/>
        </g>
        <g id="cp_0_g-0_hu0kpb1vhsohz-stroke1" data-name="cp_0_g-0_hu0kpb1vhsohz-stroke">
          <path class="st5" d="M1195.1,767.8h-12v-24h12c13.3,0,24-10.7,24-24h-12l24-24,24,24h-12c0,26.5-21.5,48-48,48Z"/>
        </g>
        <g id="cp_0_g-0_hu0kpb1vhsohz-stroke2" data-name="cp_0_g-0_hu0kpb1vhsohz-stroke">
          <path class="st5" d="M319.1,959.8v12h24v-12c0-13.3,10.7-24,24-24v12l24-24-24-24v12c-26.5,0-48,21.5-48,48Z"/>
        </g>
        <g id="cp_0_g-0_hu0kpb1vhsohz-stroke3" data-name="cp_0_g-0_hu0kpb1vhsohz-stroke">
          <path class="st5" d="M1195.1,911.8h-12v24h12c13.3,0,24,10.7,24,24h-12l24,24,24-24h-12c0-26.5-21.5-48-48-48Z"/>
        </g>
        <g id="cp_0_g-0_hu0kpb1vhsohz-stroke4" data-name="cp_0_g-0_hu0kpb1vhsohz-stroke">
          <path class="st5" d="M511.1,935.8h24v12l24-24-24-24v12h-24v24Z"/>
        </g>
        <g id="cp_0_g-0_hu0kpb1vhsohz-stroke5" data-name="cp_0_g-0_hu0kpb1vhsohz-stroke">
          <path class="st5" d="M679.1,935.8h24v12l24-24-24-24v12h-24v24Z"/>
        </g>
        <g id="cp_0_g-0_hu0kpb1vhsohz-stroke6" data-name="cp_0_g-0_hu0kpb1vhsohz-stroke">
          <path class="st5" d="M847.1,935.8h24v12l24-24-24-24v12h-24v24Z"/>
        </g>
        <g id="cp_0_g-0_hu0kpb1vhsohz-stroke7" data-name="cp_0_g-0_hu0kpb1vhsohz-stroke">
          <path class="st5" d="M1015.1,935.8h24v12l24-24-24-24v12h-24v24Z"/>
        </g>
        <g id="cp_0_g-0_hu0kpb1vhsohz-stroke8" data-name="cp_0_g-0_hu0kpb1vhsohz-stroke">
          <path class="st5" d="M511.1,767.8h24v12l24-24-24-24v12h-24v24Z"/>
        </g>
        <g id="cp_0_g-0_hu0kpb1vhsohz-stroke9" data-name="cp_0_g-0_hu0kpb1vhsohz-stroke">
          <path class="st5" d="M679.1,767.8h24v12l24-24-24-24v12h-24v24Z"/>
        </g>
        <g id="cp_0_g-0_hu0kpb1vhsohz-stroke10" data-name="cp_0_g-0_hu0kpb1vhsohz-stroke">
          <path class="st5" d="M847.1,767.8h24v12l24-24-24-24v12h-24v24Z"/>
        </g>
        <g id="cp_0_g-0_hu0kpb1vhsohz-stroke11" data-name="cp_0_g-0_hu0kpb1vhsohz-stroke">
          <path class="st5" d="M1015.1,767.8h24v12l24-24-24-24v12h-24v24Z"/>
        </g>
        <g id="cp_0_g-0_hu0kpb1vhsohz-stroke12" data-name="cp_0_g-0_hu0kpb1vhsohz-stroke">
          <path class="st1" d="M484,830.8c-4.9,0-8.9,4.1-8.9,9s4,8.9,8.9,9c0-3,.1-6,.1-9s0-6-.1-9ZM412.1,776.8c5,0,9-4,9-9s-4-9-9-9-9,4-9,9,4,9,9,9ZM385.1,839.8c0,5-4,9-9,9s-9-4-9-9,4-9,9-9,9,4,9,9ZM412.1,848.8c5,0,9-4,9-9s-4-9-9-9-9,4-9,9,4,9,9,9ZM394.1,884.8c5,0,9-4,9-9s-4-9-9-9-9,4-9,9,4,9,9,9ZM430.1,884.8c5,0,9-4,9-9s-4-9-9-9-9,4-9,9,4,9,9,9ZM475.1,875.8c0,5-4,9-9,9s-9-4-9-9,4-9,9-9,9,4,9,9ZM448.1,776.8c5,0,9-4,9-9s-4-9-9-9-9,4-9,9,4,9,9,9ZM421.1,911.8c0,5-4,9-9,9s-9-4-9-9,4-9,9-9,9,4,9,9ZM457.1,911.8c0,5-4,9-9,9s-9-4-9-9,4-9,9-9,9,4,9,9ZM448.1,848.8c5,0,9-4,9-9s-4-9-9-9-9,4-9,9,4,9,9,9ZM394.1,812.8c5,0,9-4,9-9s-4-9-9-9-9,4-9,9,4,9,9,9ZM439.1,803.8c0,5-4,9-9,9s-9-4-9-9,4-9,9-9,9,4,9,9ZM466.1,812.8c5,0,9-4,9-9s-4-9-9-9-9,4-9,9,4,9,9,9Z"/>
        </g>
        <g id="cp_0_g-0_hu0kpb1vhsohz-stroke13" data-name="cp_0_g-0_hu0kpb1vhsohz-stroke">
          <path class="st1" d="M349.1,839.8c0,5-4,9-9,9s-9-4-9-9,4-9,9-9,9,4,9,9ZM358.1,884.8c5,0,9-4,9-9s-4-9-9-9-9,4-9,9,4,9,9,9ZM358.1,812.8c5,0,9-4,9-9s-4-9-9-9-9,4-9,9,4,9,9,9Z"/>
        </g>
        <g id="cp_0_g-0_hu0kpb1vhsohz-stroke14" data-name="cp_0_g-0_hu0kpb1vhsohz-stroke">
          <path class="st1" d="M817.1,795.3c-3.5,1.2-6,4.6-6,8.5s3.5,8.4,7.9,8.9c-.5-6-1.1-11.8-1.9-17.4ZM819.1,866.9c-4.5.5-7.9,4.3-7.9,8.9s2.5,7.3,6,8.5c.8-5.6,1.4-11.4,1.9-17.4ZM787.1,776.8c5,0,9-4,9-9s-4-9-9-9-9,4-9,9,4,9,9,9ZM688.1,884.8c5,0,9-4,9-9s-4-9-9-9-9,4-9,9,4,9,9,9ZM754.1,884.8c5,0,9-4,9-9s-4-9-9-9-9,4-9,9,4,9,9,9ZM796.1,911.8c0,5-4,9-9,9s-9-4-9-9,4-9,9-9,9,4,9,9ZM787.1,848.8c5,0,9-4,9-9s-4-9-9-9-9,4-9,9,4,9,9,9ZM712.1,839.8c0,5,4,9,9,9s9-4,9-9-4-9-9-9-9,4-9,9ZM754.1,812.8c5,0,9-4,9-9s-4-9-9-9-9,4-9,9,4,9,9,9ZM697.1,803.8c0,5-4,9-9,9s-9-4-9-9,4-9,9-9,9,4,9,9Z"/>
        </g>
        <g id="cp_0_g-0_hu0kpb1vhsohz-stroke15" data-name="cp_0_g-0_hu0kpb1vhsohz-stroke">
          <path class="st1" d="M649.3,796.3c-2.5,1.6-4.1,4.4-4.1,7.6s2.5,7.2,5.9,8.4c-.5-5.5-1-10.8-1.7-16ZM651,867.4c-3.4,1.3-5.9,4.6-5.9,8.4s1.7,6,4.1,7.6c.7-5.2,1.3-10.5,1.7-16ZM586.1,776.8c5,0,9-4,9-9s-4-9-9-9-9,4-9,9,4,9,9,9ZM520.1,884.8c5,0,9-4,9-9s-4-9-9-9-9,4-9,9,4,9,9,9ZM571.1,875.8c0,5-4,9-9,9s-9-4-9-9,4-9,9-9,9,4,9,9ZM617.1,875.8c0,5-4,9-9,9s-9-4-9-9,4-9,9-9,9,4,9,9ZM641.1,767.8c0,5-4,9-9,9s-9-4-9-9,4-9,9-9,9,4,9,9ZM586.1,920.8c5,0,9-4,9-9s-4-9-9-9-9,4-9,9,4,9,9,9ZM641.1,911.8c0,5-4,9-9,9s-9-4-9-9,4-9,9-9,9,4,9,9ZM586.1,848.8c5,0,9-4,9-9s-4-9-9-9-9,4-9,9,4,9,9,9ZM641.1,839.8c0,5-4,9-9,9s-9-4-9-9,4-9,9-9,9,4,9,9ZM540.1,848.8c-5,0-9-4-9-9s4-9,9-9,9,4,9,9-4,9-9,9ZM571.1,803.8c0,5-4,9-9,9s-9-4-9-9,4-9,9-9,9,4,9,9ZM520.1,812.8c5,0,9-4,9-9s-4-9-9-9-9,4-9,9,4,9,9,9ZM617.1,803.8c0,5-4,9-9,9s-9-4-9-9,4-9,9-9,9,4,9,9Z"/>
        </g>
        <g id="cp_0_g-0_hu0kpb1vhsohz-stroke16" data-name="cp_0_g-0_hu0kpb1vhsohz-stroke">
          <path class="st1" d="M977.5,759.9c-1.3-.7-2.8-1.1-4.3-1.1-5,0-9,4-9,9s4,9,9,9,6.2-1.8,7.7-4.4c-1-4.4-2.2-8.5-3.4-12.5ZM980.9,907.3c-1.6-2.6-4.5-4.4-7.7-4.4-5,0-9,4-9,9s4,9,9,9,3.1-.4,4.3-1.1c1.2-3.9,2.4-8.1,3.4-12.5ZM856.1,884.8c5,0,9-4,9-9s-4-9-9-9-9,4-9,9,4,9,9,9ZM934.1,884.8c5,0,9-4,9-9s-4-9-9-9-9,4-9,9,4,9,9,9ZM982.1,839.8c0,5-4,9-9,9s-9-4-9-9,4-9,9-9,9,4,9,9ZM895.1,848.8c-5,0-9-4-9-9s4-9,9-9,9,4,9,9-4,9-9,9ZM943.1,803.8c0,5-4,9-9,9s-9-4-9-9,4-9,9-9,9,4,9,9ZM856.1,812.8c5,0,9-4,9-9s-4-9-9-9-9,4-9,9,4,9,9,9Z"/>
        </g>
        <g id="cp_0_g-0_hu0kpb1vhsohz-stroke17" data-name="cp_0_g-0_hu0kpb1vhsohz-stroke">
          <path class="st1" d="M1135.1,875.8c0,5-4,9-9,9s-9-4-9-9,4-9,9-9,9,4,9,9ZM1033.1,875.8c0,5-4,9-9,9s-9-4-9-9,4-9,9-9,9,4,9,9ZM1066.1,839.8c0,5,4,9,9,9s9-4,9-9-4-9-9-9-9,4-9,9ZM1135.1,803.8c0,5-4,9-9,9s-9-4-9-9,4-9,9-9,9,4,9,9ZM1033.1,803.8c0,5-4,9-9,9s-9-4-9-9,4-9,9-9,9,4,9,9Z"/>
        </g>
        <g id="cp_0_g-0_hu0kpb1vhsohz-stroke18" data-name="cp_0_g-0_hu0kpb1vhsohz-stroke">
          <path class="st1" d="M1231.1,839.8c0-5-4-9-9-9s-9,4-9,9,4,9,9,9,9-4,9-9Z"/>
        </g>
      </g>
      <g id="g-root-tx_rawgoldm_hvvzyn1vhsni9-fill">
        <g id="tx_rawgoldm_hvvzyn1vhsni9-fill-merged">
          <g class="st17">
            <text class="st19" transform="translate(379 1034.2)"><tspan x="0" y="0">Raw Gold Material</tspan></text>
          </g>
        </g>
      </g>
      <g id="g-root-tx_scrapgol_1qapia71vhsnb6-fill">
        <g id="tx_scrapgol_1qapia71vhsnb6-fill-merged">
          <g class="st17">
            <text class="st19" transform="translate(562.6 1032.8)"><tspan x="0" y="0">Scrap Gold and </tspan></text>
            <text class="st19" transform="translate(595 1050.8)"><tspan x="0" y="0">Silver</tspan></text>
          </g>
        </g>
      </g>
      <g id="g-root-tx_jewelryr_zoeymn1vhsnb7-fill">
        <g id="tx_jewelryr_zoeymn1vhsnb7-fill-merged">
          <g class="st17">
            <text class="st19" transform="translate(721.6 1034.3)"><tspan x="0" y="0">Jewelry Residues</tspan></text>
          </g>
        </g>
      </g>
      <g id="g-root-tx_industri_924ez31vhsnb8-fill">
        <g id="tx_industri_924ez31vhsnb8-fill-merged">
          <g class="st17">
            <text class="st19" transform="translate(899.6 1035.1)"><tspan x="0" y="0">Industrial Precious </tspan></text>
            <text class="st19" transform="translate(920.1 1053.1)"><tspan x="0" y="0">Metal Waste</tspan></text>
          </g>
        </g>
      </g>
      <g id="g-root-tx_semirefi_18lax1r1vhsnwt-fill">
        <g id="tx_semirefi_18lax1r1vhsnwt-fill-merged">
          <g class="st17">
            <text class="st19" transform="translate(1073.7 1036.4)"><tspan x="0" y="0">Semi-Refined Bullion</tspan></text>
          </g>
        </g>
      </g>
      <g id="g-root-tx_puregold_hz0de71vhsnwu-fill">
        <g id="tx_puregold_hz0de71vhsnwu-fill-merged">
          <g class="st17">
            <text class="st16" transform="translate(372.4 1080.8)"><tspan x="0" y="0">Pure gold enters for </tspan></text>
            <text class="st16" transform="translate(413.3 1098.8)"><tspan x="0" y="0">refining</tspan></text>
          </g>
        </g>
      </g>
      <g id="g-root-tx_recycled_1qdtvpr1vhsnpr-fill">
        <g id="tx_recycled_1qdtvpr1vhsnpr-fill-merged">
          <g class="st17">
            <text class="st16" transform="translate(551.4 1080.8)"><tspan x="0" y="0">Recycled gold and </tspan></text>
            <text class="st16" transform="translate(545.4 1098.8)"><tspan x="0" y="0">silver are processed</tspan></text>
          </g>
        </g>
      </g>
      <g id="g-root-tx_wastefro_18n6cb31vhsmx4-fill">
        <g id="tx_wastefro_18n6cb31vhsmx4-fill-merged">
          <g class="st17">
            <text class="st16" transform="translate(715.3 1080.8)"><tspan x="0" y="0">Waste from jewelry </tspan></text>
            <text class="st16" transform="translate(722.8 1098.8)"><tspan x="0" y="0">manufacturing is </tspan></text>
            <text class="st16" transform="translate(752.6 1116.8)"><tspan x="0" y="0">handled</tspan></text>
          </g>
        </g>
      </g>
      <g id="g-root-tx_wastefro_qvwbtb1vhspa9-fill">
        <g id="tx_wastefro_qvwbtb1vhspa9-fill-merged">
          <g class="st17">
            <text class="st16" transform="translate(925.1 1080.8)"><tspan x="0" y="0">Waste from </tspan></text>
            <text class="st16" transform="translate(896.6 1098.8)"><tspan x="0" y="0">industrial processes </tspan></text>
            <text class="st16" transform="translate(925 1116.8)"><tspan x="0" y="0">is managed</tspan></text>
          </g>
        </g>
      </g>
      <g id="g-root-tx_partiall_4pfaa71vhsoi2-fill">
        <g id="tx_partiall_4pfaa71vhsoi2-fill-merged">
          <g class="st17">
            <text class="st16" transform="translate(1076.4 1080.8)"><tspan x="0" y="0">Partially refined gold </tspan></text>
            <text class="st16" transform="translate(1075.6 1098.8)"><tspan x="0" y="0">and silver are refined </tspan></text>
            <text class="st16" transform="translate(1122.1 1116.8)"><tspan x="0" y="0">further</tspan></text>
          </g>
        </g>
      </g>
    </g>
  </g>
</svg>