<?xml version="1.0" encoding="UTF-8"?>
<svg id="Layer_1" xmlns="http://www.w3.org/2000/svg" version="1.1" viewBox="0 0 1104 1041">
  <!-- Generator: Adobe Illustrator 30.1.0, SVG Export Plug-In . SVG Version: 2.1.1 Build 136)  -->
  <defs>
    <style>
      .st0 {
        fill: #506657;
      }

      .st0, .st1, .st2, .st3 {
        fill-rule: evenodd;
      }

      .st4 {
        fill: #e6c37e;
        font-family: Poppins-Medium, Poppins;
        font-size: 19px;
        font-weight: 500;
      }

      .st4, .st5, .st6, .st7, .st8 {
        isolation: isolate;
      }

      .st5 {
        fill: #f4f4f4;
      }

      .st5, .st8 {
        font-family: Roboto-Regular, Roboto;
        font-size: 15px;
      }

      .st9 {
        stroke: #e6c37e;
      }

      .st9, .st10, .st11 {
        fill: none;
        stroke-linecap: round;
        stroke-linejoin: round;
        stroke-width: 2px;
      }

      .st1 {
        fill: #475b4f;
      }

      .st2, .st7 {
        fill: #294735;
      }

      .st7 {
        font-family: Poppins-SemiBold, Poppins;
        font-size: 36px;
        font-weight: 600;
      }

      .st3 {
        fill: #496353;
      }

      .st8 {
        fill: #fff;
      }

      .st10 {
        stroke: #506657;
        stroke-dasharray: 5 7;
      }

      .st11 {
        stroke: #b7b7b7;
      }
    </style>
  </defs>
  <g id="items" class="st6">
    <g id="blend">
      <g id="g-root-cp_5_dashed-stroke-5_mfh54k5mqnt6-stroke">
        <g id="cp_5_dashed-stroke-5_mfh54k5mqnt6-stroke">
          <path class="st10" d="M888.2,176.9c0,33.1-26.9,60-60,60s-60-26.9-60-60,26.9-60,60-60,60,26.9,60,60Z"/>
        </g>
      </g>
      <g id="g-root-cp_5_right-5_hznn045mqolf-stroke">
        <g id="cp_5_right-5_hznn045mqolf-stroke">
          <path class="st9" d="M912.2,174.9v3c-.5,45.9-37.9,83-84,83s-44.2-9.4-59.4-24.6l-30.6,30.6M648.2,176.9h96v-2M912.2,174.9c0-45.8-37.6-82-84-82s-83.5,36.6-84,82M828.2,224.9c26.5,0,48-21.5,48-48s-21.5-48-48-48-48,21.5-48,48,21.5,48,48,48Z"/>
        </g>
      </g>
      <g id="g-root-cp_4_dashed-stroke-4_1d3n41g5mqmth-stroke">
        <g id="cp_4_dashed-stroke-4_1d3n41g5mqmth-stroke">
          <path class="st10" d="M720.2,344.9c0,33.1-26.9,60-60,60s-60-26.9-60-60,26.9-60,60-60,60,26.9,60,60Z"/>
        </g>
      </g>
      <g id="g-root-cp_4_text_1_dbpyr85ms26n-fill">
        <g id="cp_4_text_1_dbpyr85ms26n-fill-merged">
          <path class="st3" d="M144,290.9c-29,0-52.5,23.5-52.5,52.6v3.8c0,28.6,24,51.6,53,51.6h283.2c29,0,52.5-22.9,52.5-51.5v-4c0-29-23.5-52.5-52.5-52.5H144"/>
        </g>
      </g>
      <g id="g-root-cp_4_text_1_dbpyr85ms26n-stroke">
        <g id="cp_4_text_1_dbpyr85ms26n-stroke">
          <path class="st9" d="M480.3,344.9v-1.4h0c0-29-23.5-52.6-52.6-52.6h-.5M480.3,344.9v1.4h0c0,29-23.5,52.6-52.6,52.6h-.5M430.2,290.9H144.5M91.5,344.9v-1.4c0-29,23.5-52.6,52.6-52.6h.4M91.5,344.9v1.4c0,29,23.5,52.6,52.6,52.6h.4M144.5,398.9h285.7"/>
        </g>
      </g>
      <g id="g-root-cp_4_right-4_4g2yic5ms3r4-stroke">
        <g id="cp_4_right-4_4g2yic5ms3r4-stroke">
          <path class="st9" d="M744.2,342.9v3c-.5,45.9-37.9,83-84,83s-44.2-9.4-59.4-24.6l-30.6,30.6M480.2,344.9h96v-2M744.2,342.9c0-45.8-37.6-82-84-82s-83.5,36.6-84,82M660.2,392.9c26.5,0,48-21.5,48-48s-21.5-48-48-48-48,21.5-48,48,21.5,48,48,48Z"/>
        </g>
      </g>
      <g id="g-root-cp_3_stroke-3_1hapyyc5ms2ru-stroke">
        <g id="cp_3_stroke-3_1hapyyc5ms2ru-stroke">
          <path class="st9" d="M408.2,514.9v-3c.5-45.9,37.9-83,84-83s44.2,9.4,59.4,24.6l30.6-30.6M672.2,512.9h-96v2M408.2,514.9c0,45.8,37.6,82,84,82s83.5-36.6,84-82M540.2,512.9c0-26.5-21.5-48-48-48s-48,21.5-48,48,21.5,47.2,48,47.2,48-21.1,48-47.2"/>
        </g>
      </g>
      <g id="g-root-cp_3_text_2_13z9gl05ms4cr-fill">
        <g id="cp_3_text_2_13z9gl05ms4cr-fill-merged">
          <path class="st0" d="M725.2,566.9c-29,0-53-23.1-53-51.6v-3.8c0-29,23.5-52.6,52.5-52.6h294.3c29.1,0,52.6,23.5,52.6,52.6v3.8c0,28.6-23.6,51.6-52.6,51.6h-293.8"/>
        </g>
      </g>
      <g id="g-root-cp_3_text_2_13z9gl05ms4cr-stroke">
        <g id="cp_3_text_2_13z9gl05ms4cr-stroke">
          <path class="st9" d="M1071.6,512.9v-1.4h0c0-29-23.6-52.6-52.6-52.6h-.5M1071.6,512.9v1.4h0c0,29-23.6,52.6-52.6,52.6h-.5M1018.5,458.9h-293.3M672.2,512.9v-1.4c0-29,23.5-52.6,52.6-52.6h.4M672.2,512.9v1.4c0,29,23.5,52.6,52.6,52.6h.4M725.2,566.9h293.3"/>
        </g>
      </g>
      <g id="g-root-cp_3_dashed-stroke-3_qoffas5ms2rw-stroke">
        <g id="cp_3_dashed-stroke-3_qoffas5ms2rw-stroke">
          <path class="st10" d="M552.2,512.9c0-33.1-26.9-60-60-60s-60,26.9-60,60,26.9,59,60,59,60-26.4,60-59"/>
        </g>
      </g>
      <g id="g-root-cp_2_dashed-stroke-2_8xrvw45ms1za-stroke">
        <g id="cp_2_dashed-stroke-2_8xrvw45ms1za-stroke">
          <path class="st10" d="M384.2,680.9c0-33.1-26.9-60-60-60s-60,26.9-60,60,26.9,59,60,59,60-26.4,60-59"/>
        </g>
      </g>
      <g id="g-root-cp_2_stroke-2_1unffhw5ms3d3-stroke">
        <g id="cp_2_stroke-2_1unffhw5ms3d3-stroke">
          <path class="st9" d="M240.2,682.9v-3c.5-45.9,37.9-83,84-83s44.2,9.4,59.4,24.6l30.6-30.6M504.2,680.9h-96v2M240.2,682.9c0,45.8,37.6,82,84,82s83.5-36.6,84-82M372.2,680.9c0-26.5-21.5-48-48-48s-48,21.5-48,48,21.5,47.2,48,47.2,48-21.1,48-47.2"/>
        </g>
      </g>
      <g id="g-root-cp_1_dashed-stroke-1_zlbdpw5ms45e-stroke">
        <g id="cp_1_dashed-stroke-1_zlbdpw5ms45e-stroke">
          <path class="st10" d="M216.2,848.9c0-33.1-26.9-60-60-60s-60,26.9-60,60,26.9,59,60,59,60-26.4,60-59"/>
        </g>
      </g>
      <g id="g-root-cp_1_stroke-1_mahcfo5ms2kj-stroke">
        <g id="cp_1_stroke-1_mahcfo5ms2kj-stroke">
          <path class="st9" d="M72.2,850.9v-3c.5-45.9,37.9-83,84-83s44.2,9.4,59.4,24.6l30.6-30.6M336.2,848.9h-96v2M72.2,850.9c0,45.8,37.6,82,84,82s83.5-36.6,84-82M204.2,848.9c0-26.5-21.5-48-48-48s-48,21.5-48,48,21.5,47.2,48,47.2,48-21.1,48-47.2"/>
        </g>
      </g>
      <g id="g-root-cp_1_text_4_8z0u2c5ms45g-fill">
        <g id="cp_1_text_4_8z0u2c5ms45g-fill-merged">
          <path class="st2" d="M388.7,794.9c-29,0-52.5,23.5-52.5,52.6v3.8c0,28.6,24,51.6,53,51.6h245.4c29,0,52.6-23.1,52.6-51.6v-3.8c0-29-23.5-52.6-52.6-52.6h-245.9"/>
        </g>
      </g>
      <g id="g-root-cp_1_text_4_8z0u2c5ms45g-stroke">
        <g id="cp_1_text_4_8z0u2c5ms45g-stroke">
          <path class="st9" d="M687.2,848.9v-1.4h0c0-29-23.6-52.6-52.6-52.6h-.5M687.2,848.9v1.4h0c0,29-23.6,52.6-52.6,52.6h-.5M634.1,794.9h-244.9M336.2,848.9v-1.4c0-29,23.5-52.6,52.6-52.6h.4M336.2,848.9v1.4c0,29,23.5,52.6,52.6,52.6h.4M389.2,902.9h244.9"/>
        </g>
      </g>
      <g id="g-root-cp_5_text_1uuang45mqnm4-fill">
        <g id="cp_5_text_1uuang45mqnm4-fill-merged">
          <path class="st3" d="M648.3,176.9v-1.4c0-29-23.5-52.6-52.6-52.6h-189.2c-29,0-52.5,23.5-52.5,52.6v3.8c0,28.6,24,51.6,53,51.6h188.7c29,0,52.6-23.1,52.6-51.6v-2.4"/>
        </g>
      </g>
      <g id="g-root-cp_5_text_1uuang45mqnm4-stroke">
        <g id="cp_5_text_1uuang45mqnm4-stroke">
          <path class="st11" d="M598.2,122.9h-191.2M648.3,176.9v-1.4h0c0-29-23.6-52.6-52.6-52.6h-.5M648.3,176.9v1.4h0c0,29-23.6,52.6-52.6,52.6h-.5M407,230.9h191.2M354,176.9v-1.4c0-29,23.5-52.6,52.6-52.6h.4M354,176.9v1.4c0,29,23.5,52.6,52.6,52.6h.4"/>
        </g>
      </g>
      <g id="g-root-cp_2_text_3_1hcle7o5ms1s8-fill">
        <g id="cp_2_text_3_1hcle7o5ms1s8-fill-merged">
          <path class="st1" d="M557.2,734.9c-29,0-53-23.1-53-51.6v-3.8c0-29,23.5-52.6,52.5-52.6h263.1c29,0,52.6,23.5,52.6,52.6v3.8c0,28.6-23.6,51.6-52.6,51.6h-262.6"/>
        </g>
      </g>
      <g id="g-root-cp_2_text_3_1hcle7o5ms1s8-stroke">
        <g id="cp_2_text_3_1hcle7o5ms1s8-stroke">
          <path class="st9" d="M872.4,680.9v-1.4h0c0-29-23.6-52.6-52.6-52.6h-.5M872.4,680.9v1.4h0c0,29-23.6,52.6-52.6,52.6h-.5M819.3,626.9h-262.1M504.2,680.9v-1.4c0-29,23.5-52.6,52.6-52.6h.4M504.2,680.9v1.4c0,29,23.5,52.6,52.6,52.6h.4M557.2,734.9h262.1"/>
        </g>
      </g>
      <g id="g-root-ic_4_1cxemno5me0pa-stroke">
        <g id="ic_4_1cxemno5me0pa-stroke">
          <path class="st9" d="M771.8,531.3h-15l2.2-4.3c.2-.4.6-.7,1.1-.7h8.5c.5,0,.9.3,1.1.7l2.2,4.3ZM756.8,540v-3.8h15v3.8M764.3,536.3v3.8M751.8,531.3h-15l2.2-4.3c.2-.4.6-.7,1.1-.7h8.5c.5,0,.9.3,1.1.7l2.2,4.3ZM736.8,540v-3.8h15v3.8M744.3,536.3v3.8M791.8,531.3h-15l2.2-4.3c.2-.4.6-.7,1.1-.7h8.5c.5,0,.9.3,1.1.7l2.2,4.3ZM776.8,540v-3.8h15v3.8M784.3,536.3v3.8M736.8,520l3.4-3.4c.2-.2.6-.4.9-.4h46.5c.3,0,.6.1.9.4l3.4,3.4M754.3,512.5v7.5M774.3,512.5v7.5M779.3,516.3v-15.3c0-.5-.3-1-.9-1.2l-6.6-2.2h-15l-6.6,2.2c-.5.2-.9.6-.9,1.2v15.3M749.3,503.8h30M751.8,531.3h5M765.2,497.5c-3.6-4.2-8.8-5.8-16.4-6.2-.5,0-.9-.3-1.1-.7l-2.5-5.1c-.2-.4-.2-.9,0-1.2s.6-.6,1.1-.6c14.9.2,23.8,4,28.5,14.8M771.8,531.3h5"/>
        </g>
      </g>
      <g id="g-root-tx_accurate_1d3ndis5mqn7o-fill">
        <g id="tx_accurate_1d3ndis5mqn7o-fill-merged">
          <g class="st6">
            <text class="st8" transform="translate(146 359.4)"><tspan x="0" y="0">Accurate testing to determine</tspan><tspan x="0" y="18">material composition. </tspan></text>
          </g>
        </g>
      </g>
      <g id="g-root-tx_refining_8wj7785me1vo-fill">
        <g id="tx_refining_8wj7785me1vo-fill-merged">
          <g class="st6">
            <text class="st4" transform="translate(816.1 497.5)"><tspan x="0" y="0">Refining Processes</tspan></text>
          </g>
        </g>
      </g>
      <g id="g-root-tx_3_1d1ry9g5mqo7d-fill">
        <g id="tx_3_1d1ry9g5mqo7d-fill-merged">
          <g class="st6">
            <text class="st7" transform="translate(482.4 526.1)"><tspan x="0" y="0">3</tspan></text>
          </g>
        </g>
      </g>
      <g id="g-root-tx_transpar_qp25v85me1ol-fill">
        <g id="tx_transpar_qp25v85me1ol-fill-merged">
          <g class="st6">
            <text class="st8" transform="translate(816.9 522.3)"><tspan x="0" y="0">Transparent refining to extract </tspan><tspan x="0" y="18">valuable metals. </tspan></text>
          </g>
        </g>
      </g>
      <g id="g-root-tx_2_mfhelw5mqo7e-fill">
        <g id="tx_2_mfhelw5mqo7e-fill-merged">
          <g class="st6">
            <text class="st7" transform="translate(651.3 357.3)"><tspan x="0" y="0">2</tspan></text>
          </g>
        </g>
      </g>
      <g id="g-root-ic_man_m7d8hg5ms1s5-stroke">
        <g id="ic_man_m7d8hg5ms1s5-stroke">
          <path class="st9" d="M410.1,355.2c5.7,3.1,12.9,1,16.1-4.6h0c8,4,13.1,12.2,13.1,21.1M426.2,350.6l-8.2,21.1M432.2,354.8l-2,12.7h-4.9v4.2M389.3,345.8h16.4M411,366.6l-8.7-9.2v-11.7h-9.5v11.7l-8.7,9.1c-.7,1-.9,2.3-.3,3.3.5,1.1,1.6,1.8,2.8,1.8h21.9c1.2,0,2.3-.7,2.8-1.8.5-1.1.4-2.4-.3-3.3h0ZM389.5,360.9h16M418.8,335.6c-1.8,1.4-4.3,1.4-6.1,0M419.9,330c.3,0,.5.2.5.5s-.2.5-.5.5-.5-.2-.5-.5.2-.5.5-.5M411.7,330c.3,0,.5.2.5.5s-.2.5-.5.5-.5-.2-.5-.5.2-.5.5-.5M428,326.5c0-6.7-5.5-12-12.2-12s-12.1,5.4-12.2,12v4.1c0,6.7,5.5,12,12.2,12s12.1-5.4,12.2-12v-4.1ZM428,326.5h-4.1c-2.7,0-8.2.7-12.2-4.1-2,2.4-5,3.9-8.1,4"/>
        </g>
      </g>
      <g id="g-root-tx_assaytes_4otv785mqner-fill">
        <g id="tx_assaytes_4otv785mqner-fill-merged">
          <g class="st6">
            <text class="st4" transform="translate(144.7 327.5)"><tspan x="0" y="0">Assay Testing</tspan></text>
          </g>
        </g>
      </g>
      <g id="g-root-ic_safe_qpogms5mb6ys-stroke">
        <g id="ic_safe_qpogms5mb6ys-stroke">
          <path class="st9" d="M570.8,653.8h47.5s5,0,5,5v45s0,5-5,5h-47.5s-5,0-5-5v-45s0-5,5-5M570.8,708.8v2.5M618.3,708.8v2.5M573.3,693.8v2.5c0,2.8,2.2,5,5,5h32.5c2.8,0,5-2.2,5-5v-30c0-2.8-2.2-5-5-5h-32.5c-2.8,0-5,2.2-5,5v2.5M573.3,676.3v10M570.8,668.8h5v7.5h-5v-7.5ZM570.8,686.3h5v7.5h-5v-7.5ZM584.5,681.3c0,6.2,5,11.2,11.2,11.2s11.2-5,11.2-11.2-5-11.2-11.2-11.2-11.2,5-11.2,11.2M589.5,681.3c0,3.5,2.8,6.2,6.2,6.2s6.2-2.8,6.2-6.2-2.8-6.2-6.2-6.2-6.2,2.8-6.2,6.2M595.8,670v5M587.8,673.3l3.5,3.5M584.5,681.3h5M587.8,689.2l3.5-3.5M595.8,692.5v-5M603.7,689.2l-3.5-3.5M607,681.3h-5M603.7,673.3l-3.5,3.5"/>
        </g>
      </g>
      <g id="g-root-tx_securest_dccj045mb9je-fill">
        <g id="tx_securest_dccj045mb9je-fill-merged">
          <g class="st6">
            <text class="st4" transform="translate(641.8 664.9)"><tspan x="0" y="0">Secure Storage</tspan></text>
          </g>
        </g>
      </g>
      <g id="g-root-tx_4_zitqus5me1vn-fill">
        <g id="tx_4_zitqus5me1vn-fill-merged">
          <g class="st6">
            <text class="st7" transform="translate(311.8 692.7)"><tspan x="0" y="0">4</tspan></text>
          </g>
        </g>
      </g>
      <g id="g-root-tx_safeands_1lr61bo5mb9cb-fill">
        <g id="tx_safeands_1lr61bo5mb9cb-fill-merged">
          <g class="st6">
            <text class="st5" transform="translate(640.2 690.7)"><tspan x="0" y="0">Safe and secure storage of </tspan><tspan x="0" y="18">refined metals </tspan></text>
          </g>
        </g>
      </g>
      <g id="g-root-tx_controll_3e3as5mtipv-fill">
        <g id="tx_controll_3e3as5mtipv-fill-merged">
          <g class="st6">
            <text class="st8" transform="translate(390.9 188.7)"><tspan x="0" y="0">Controlled receiving and </tspan></text>
            <text class="st8" transform="translate(390.8 206.7)"><tspan x="0" y="0">verification of materials.</tspan></text>
          </g>
        </g>
      </g>
      <g id="g-root-tx_5_1cua2wk5mb8qp-fill">
        <g id="tx_5_1cua2wk5mb8qp-fill-merged">
          <g class="st6">
            <text class="st7" transform="translate(822 188.7)"><tspan x="0" y="0">1</tspan></text>
          </g>
        </g>
      </g>
      <g id="g-root-ic_sign_v98q445ms26g-stroke">
        <g id="ic_sign_v98q445ms26g-stroke">
          <path class="st9" d="M427.7,872.1l-9.8,2M418.9,863l-4.6,1.9c-.7.3-1.6.3-2.3,0-1.1-.5-1.8-1.5-1.8-2.7,0-1.2.6-2.3,1.7-2.8l4.6-2.2c.6-.3,1.2-.5,1.8-.5.5,0,1,0,1.4.2l8.5,3.2M400.2,874.2h3.5l5.8,4.4c.6.7,1.7.8,2.4.2l8.8-7c.7-.6.8-1.6.3-2.4l-4.8-5.3M411.4,859.7l-.6-.5c-.6-.5-1.4-.7-2.2-.7-.5,0-.9,0-1.4.3l-7.1,3M392.7,876.7h5c1.4,0,2.5-1.1,2.5-2.5v-12.5c0-1.4-1.1-2.5-2.5-2.5h-5M435.2,876.7h-5c-1.4,0-2.5-1.1-2.5-2.5v-12.5c0-1.4,1.1-2.5,2.5-2.5h5M418.9,821.7h-33.8c-4.1,0-7.5,3.4-7.5,7.5v48.8c0,.7.6,1.2,1.2,1.2h7.5M385.2,831.7h20M385.2,839.2h20M385.2,846.7h8.8M412.7,853v-25c0-3.5,2.8-6.2,6.2-6.2s6.2,2.8,6.2,7.5h-12.5"/>
        </g>
      </g>
      <g id="g-root-ic_deli_18i7lmc5mtiis-stroke">
        <g id="ic_deli_18i7lmc5mtiis-stroke">
          <path class="st9" d="M583,181.9v2.5M583,174.4v2.5M583,189.4v2.5M583,198.1c0,1.4,1.1,2.5,2.5,2.5M594.2,183.1h20c.7,0,1.2.6,1.2,1.2v16.2h-21.2c-.7,0-1.2-.6-1.2-1.2v-15c0-.7.6-1.2,1.2-1.2ZM623,199.4c0,.7-.6,1.2-1.2,1.2h-6.2v-13.6l4.1,1.3c2.1.7,3.4,2.6,3.4,4.8v6.2ZM593,173.1v-11.2c0-.7-.6-1.2-1.2-1.2h-15c-.7,0-1.2.6-1.2,1.2v11.2M565.5,159.4l18.8-11.2,18.8,11.2M598,173.1v-16.8M570.5,156.4v16.8M595.5,200.6v1.2c0,2.1,1.7,3.8,3.8,3.8s3.8-1.7,3.8-3.8v-1.2M611.7,200.6v1.2c0,2.1,1.7,3.8,3.8,3.8s3.8-1.7,3.8-3.8v-1.2"/>
        </g>
      </g>
      <g id="g-root-tx_clearand_1qbcrw45ms1e7-fill">
        <g id="tx_clearand_1qbcrw45ms1e7-fill-merged">
          <g class="st6">
            <text class="st5" transform="translate(452.9 859)"><tspan x="0" y="0">Clear and timely settlement and </tspan></text>
            <text class="st5" transform="translate(452.9 877)"><tspan x="0" y="0">reporting to clients.</tspan></text>
          </g>
        </g>
      </g>
      <g id="g-root-tx_1_1lrsoqc5mthxl-fill">
        <g id="tx_1_1lrsoqc5mthxl-fill-merged">
          <g class="st6">
            <text class="st7" transform="translate(145.1 862.1)"><tspan x="0" y="0">5</tspan></text>
          </g>
        </g>
      </g>
      <g id="g-root-tx_material_14155bo5mth4y-fill">
        <g id="tx_material_14155bo5mth4y-fill-merged">
          <g class="st6">
            <text class="st4" transform="translate(393.5 162.1)"><tspan x="0" y="0">Material Intake</tspan></text>
          </g>
        </g>
      </g>
      <g id="g-root-tx_clientse_hwj9kk5ms1la-fill">
        <g id="tx_clientse_hwj9kk5ms1la-fill-merged">
          <g class="st6">
            <text class="st4" transform="translate(452.9 832.8)"><tspan x="0" y="0">Client Settlement</tspan></text>
          </g>
        </g>
      </g>
    </g>
  </g>
</svg>