<?xml version="1.0" encoding="UTF-8"?>
<svg id="Layer_1" xmlns="http://www.w3.org/2000/svg" version="1.1" viewBox="0 0 1032 612">
  <!-- Generator: Adobe Illustrator 30.1.0, SVG Export Plug-In . SVG Version: 2.1.1 Build 136)  -->
  <defs>
    <style>
      .st0 {
        fill: #506657;
      }

      .st0, .st1, .st2, .st3, .st4, .st5, .st6 {
        fill-rule: evenodd;
      }

      .st1 {
        fill: #e6c37e;
      }

      .st7 {
        fill: #8c8c8c;
        font-family: Poppins-Regular, Poppins;
        font-size: 14px;
      }

      .st7, .st8, .st9 {
        isolation: isolate;
      }

      .st2 {
        fill: #98bfff;
      }

      .st10 {
        stroke: #9e9e9e;
      }

      .st10, .st11 {
        fill: none;
        stroke-linecap: round;
        stroke-linejoin: round;
      }

      .st3 {
        fill: #f4f4f4;
      }

      .st4 {
        fill: #475b4f;
      }

      .st5, .st9 {
        fill: #294735;
      }

      .st6 {
        fill: #496353;
      }

      .st9 {
        font-family: Poppins-Medium, Poppins;
        font-size: 15px;
        font-weight: 500;
      }

      .st12 {
        fill: #6d997f;
      }

      .st11 {
        stroke: #2c2c2c;
      }
    </style>
  </defs>
  <g id="items" class="st8">
    <g id="blend">
      <g id="g-root-cp_1_g-1_qns5ov1vhsooy-fill">
        <g id="cp_1_g-1_qns5ov1vhsooy-fill-merged">
          <path class="st2" d="M129,270c0,66.3,18.8,120,42,120s6.1-1,9-2.8c-18.9-11.8-33-59.8-33-117.2s14.1-105.5,33-117.2c-2.9-1.8-5.9-2.8-9-2.8-23.2,0-42,53.7-42,120"/>
        </g>
        <g id="cp_1_g-1_qns5ov1vhsooy-fill-merged1" data-name="cp_1_g-1_qns5ov1vhsooy-fill-merged">
          <path class="st2" d="M231,270c0,66.3-18.8,120-42,120h-18c3.1,0,6.1-1,9-2.8,18.9-11.8,33-59.8,33-117.2s-14.1-105.5-33-117.2c-2.9-1.8-5.9-2.8-9-2.8h18c23.2,0,42,53.7,42,120"/>
        </g>
      </g>
      <g id="g-root-cp_1_g-1_qns5ov1vhsooy-stroke">
        <g id="cp_1_g-1_qns5ov1vhsooy-stroke">
          <path class="st12" d="M129,270c0,66.3,18.8,120,42,120s6.1-1,9-2.8c-18.9-11.8-33-59.8-33-117.2s14.1-105.5,33-117.2c-2.9-1.8-5.9-2.8-9-2.8-23.2,0-42,53.7-42,120Z"/>
        </g>
        <g id="cp_1_g-1_qns5ov1vhsooy-stroke1" data-name="cp_1_g-1_qns5ov1vhsooy-stroke">
          <path class="st12" d="M231,270c0,66.3-18.8,120-42,120h-18c3.1,0,6.1-1,9-2.8,18.9-11.8,33-59.8,33-117.2s-14.1-105.5-33-117.2c-2.9-1.8-5.9-2.8-9-2.8h18c23.2,0,42,53.7,42,120Z"/>
        </g>
      </g>
      <g id="g-root-cp_2_g-2_dcy4en1vhsn43-fill">
        <g id="cp_2_g-2_dcy4en1vhsn43-fill-merged">
          <path class="st6" d="M297,270c0,66.3,18.8,120,42,120s6.1-1,9-2.8c-18.9-11.8-33-59.8-33-117.2s14.1-105.5,33-117.2c-2.9-1.8-5.9-2.8-9-2.8-23.2,0-42,53.7-42,120"/>
        </g>
        <g id="cp_2_g-2_dcy4en1vhsn43-fill-merged1" data-name="cp_2_g-2_dcy4en1vhsn43-fill-merged">
          <path class="st6" d="M399,270c0,66.3-18.8,120-42,120h-18c3.1,0,6.1-1,9-2.8,18.9-11.8,33-59.8,33-117.2s-14.1-105.5-33-117.2c-2.9-1.8-5.9-2.8-9-2.8h18c23.2,0,42,53.7,42,120"/>
        </g>
      </g>
      <g id="g-root-cp_2_g-2_dcy4en1vhsn43-stroke">
        <g id="cp_2_g-2_dcy4en1vhsn43-stroke">
          <path class="st11" d="M297,270c0,66.3,18.8,120,42,120s6.1-1,9-2.8c-18.9-11.8-33-59.8-33-117.2s14.1-105.5,33-117.2c-2.9-1.8-5.9-2.8-9-2.8-23.2,0-42,53.7-42,120Z"/>
        </g>
        <g id="cp_2_g-2_dcy4en1vhsn43-stroke1" data-name="cp_2_g-2_dcy4en1vhsn43-stroke">
          <path class="st11" d="M399,270c0,66.3-18.8,120-42,120h-18c3.1,0,6.1-1,9-2.8,18.9-11.8,33-59.8,33-117.2s-14.1-105.5-33-117.2c-2.9-1.8-5.9-2.8-9-2.8h18c23.2,0,42,53.7,42,120Z"/>
        </g>
      </g>
      <g id="g-root-cp_3_g-3_1hm1b1vhsop0-fill">
        <g id="cp_3_g-3_1hm1b1vhsop0-fill-merged">
          <path class="st0" d="M465,270c0,66.3,18.8,120,42,120s6.1-1,9-2.8c-18.9-11.8-33-59.8-33-117.2s14.1-105.5,33-117.2c-2.9-1.8-5.9-2.8-9-2.8-23.2,0-42,53.7-42,120"/>
        </g>
        <g id="cp_3_g-3_1hm1b1vhsop0-fill-merged1" data-name="cp_3_g-3_1hm1b1vhsop0-fill-merged">
          <path class="st0" d="M567,270c0,66.3-18.8,120-42,120h-18c3.1,0,6.1-1,9-2.8,18.9-11.8,33-59.8,33-117.2s-14.1-105.5-33-117.2c-2.9-1.8-5.9-2.8-9-2.8h18c23.2,0,42,53.7,42,120"/>
        </g>
      </g>
      <g id="g-root-cp_3_g-3_1hm1b1vhsop0-stroke">
        <g id="cp_3_g-3_1hm1b1vhsop0-stroke">
          <path class="st11" d="M465,270c0,66.3,18.8,120,42,120s6.1-1,9-2.8c-18.9-11.8-33-59.8-33-117.2s14.1-105.5,33-117.2c-2.9-1.8-5.9-2.8-9-2.8-23.2,0-42,53.7-42,120Z"/>
        </g>
        <g id="cp_3_g-3_1hm1b1vhsop0-stroke1" data-name="cp_3_g-3_1hm1b1vhsop0-stroke">
          <path class="st11" d="M567,270c0,66.3-18.8,120-42,120h-18c3.1,0,6.1-1,9-2.8,18.9-11.8,33-59.8,33-117.2s-14.1-105.5-33-117.2c-2.9-1.8-5.9-2.8-9-2.8h18c23.2,0,42,53.7,42,120Z"/>
        </g>
      </g>
      <g id="g-root-cp_4_g-4_1lrrmq71vhsmx1-fill">
        <g id="cp_4_g-4_1lrrmq71vhsmx1-fill-merged">
          <path class="st4" d="M633,270c0,66.3,18.8,120,42,120s6.1-1,9-2.8c-18.9-11.8-33-59.8-33-117.2s14.1-105.5,33-117.2c-2.9-1.8-5.9-2.8-9-2.8-23.2,0-42,53.7-42,120"/>
        </g>
        <g id="cp_4_g-4_1lrrmq71vhsmx1-fill-merged1" data-name="cp_4_g-4_1lrrmq71vhsmx1-fill-merged">
          <path class="st4" d="M735,270c0,66.3-18.8,120-42,120h-18c3.1,0,6.1-1,9-2.8,18.9-11.8,33-59.8,33-117.2s-14.1-105.5-33-117.2c-2.9-1.8-5.9-2.8-9-2.8h18c23.2,0,42,53.7,42,120"/>
        </g>
      </g>
      <g id="g-root-cp_4_g-4_1lrrmq71vhsmx1-stroke">
        <g id="cp_4_g-4_1lrrmq71vhsmx1-stroke">
          <path class="st11" d="M633,270c0,66.3,18.8,120,42,120s6.1-1,9-2.8c-18.9-11.8-33-59.8-33-117.2s14.1-105.5,33-117.2c-2.9-1.8-5.9-2.8-9-2.8-23.2,0-42,53.7-42,120Z"/>
        </g>
        <g id="cp_4_g-4_1lrrmq71vhsmx1-stroke1" data-name="cp_4_g-4_1lrrmq71vhsmx1-stroke">
          <path class="st11" d="M735,270c0,66.3-18.8,120-42,120h-18c3.1,0,6.1-1,9-2.8,18.9-11.8,33-59.8,33-117.2s-14.1-105.5-33-117.2c-2.9-1.8-5.9-2.8-9-2.8h18c23.2,0,42,53.7,42,120Z"/>
        </g>
      </g>
      <g id="g-root-cp_5_g-5_18gb4cv1vhsohy-fill">
        <g id="cp_5_g-5_18gb4cv1vhsohy-fill-merged">
          <path class="st5" d="M801,270c0,66.3,18.8,120,42,120s6.1-1,9-2.8c-18.9-11.8-33-59.8-33-117.2s14.1-105.5,33-117.2c-2.9-1.8-5.9-2.8-9-2.8-23.2,0-42,53.7-42,120"/>
        </g>
        <g id="cp_5_g-5_18gb4cv1vhsohy-fill-merged1" data-name="cp_5_g-5_18gb4cv1vhsohy-fill-merged">
          <path class="st5" d="M903,270c0,66.3-18.8,120-42,120h-18c3.1,0,6.1-1,9-2.8,18.9-11.8,33-59.8,33-117.2s-14.1-105.5-33-117.2c-2.9-1.8-5.9-2.8-9-2.8h18c23.2,0,42,53.7,42,120"/>
        </g>
      </g>
      <g id="g-root-cp_5_g-5_18gb4cv1vhsohy-stroke">
        <g id="cp_5_g-5_18gb4cv1vhsohy-stroke">
          <path class="st11" d="M801,270c0,66.3,18.8,120,42,120s6.1-1,9-2.8c-18.9-11.8-33-59.8-33-117.2s14.1-105.5,33-117.2c-2.9-1.8-5.9-2.8-9-2.8-23.2,0-42,53.7-42,120Z"/>
        </g>
        <g id="cp_5_g-5_18gb4cv1vhsohy-stroke1" data-name="cp_5_g-5_18gb4cv1vhsohy-stroke">
          <path class="st11" d="M903,270c0,66.3-18.8,120-42,120h-18c3.1,0,6.1-1,9-2.8,18.9-11.8,33-59.8,33-117.2s-14.1-105.5-33-117.2c-2.9-1.8-5.9-2.8-9-2.8h18c23.2,0,42,53.7,42,120Z"/>
        </g>
      </g>
      <g id="g-root-cp_0_g-0_hu0kpb1vhsohz-fill">
        <g id="cp_0_g-0_hu0kpb1vhsohz-fill-merged">
          <path class="st1" d="M48,150v-12h24v12c0,13.3,10.7,24,24,24v-12l24,24-24,24v-12c-26.5,0-48-21.5-48-48"/>
        </g>
        <g id="cp_0_g-0_hu0kpb1vhsohz-fill-merged1" data-name="cp_0_g-0_hu0kpb1vhsohz-fill-merged">
          <path class="st1" d="M924,198h-12v-24h12c13.3,0,24-10.7,24-24h-12l24-24,24,24h-12c0,26.5-21.5,48-48,48"/>
        </g>
        <g id="cp_0_g-0_hu0kpb1vhsohz-fill-merged2" data-name="cp_0_g-0_hu0kpb1vhsohz-fill-merged">
          <path class="st1" d="M48,390v12h24v-12c0-13.3,10.7-24,24-24v12l24-24-24-24v12c-26.5,0-48,21.5-48,48"/>
        </g>
        <g id="cp_0_g-0_hu0kpb1vhsohz-fill-merged3" data-name="cp_0_g-0_hu0kpb1vhsohz-fill-merged">
          <path class="st1" d="M924,342h-12v24h12c13.3,0,24,10.7,24,24h-12l24,24,24-24h-12c0-26.5-21.5-48-48-48"/>
        </g>
        <g id="cp_0_g-0_hu0kpb1vhsohz-fill-merged4" data-name="cp_0_g-0_hu0kpb1vhsohz-fill-merged">
          <path class="st1" d="M240,366h24v12l24-24-24-24v12h-24v24"/>
        </g>
        <g id="cp_0_g-0_hu0kpb1vhsohz-fill-merged5" data-name="cp_0_g-0_hu0kpb1vhsohz-fill-merged">
          <path class="st1" d="M408,366h24v12l24-24-24-24v12h-24v24"/>
        </g>
        <g id="cp_0_g-0_hu0kpb1vhsohz-fill-merged6" data-name="cp_0_g-0_hu0kpb1vhsohz-fill-merged">
          <path class="st1" d="M576,366h24v12l24-24-24-24v12h-24v24"/>
        </g>
        <g id="cp_0_g-0_hu0kpb1vhsohz-fill-merged7" data-name="cp_0_g-0_hu0kpb1vhsohz-fill-merged">
          <path class="st1" d="M744,366h24v12l24-24-24-24v12h-24v24"/>
        </g>
        <g id="cp_0_g-0_hu0kpb1vhsohz-fill-merged8" data-name="cp_0_g-0_hu0kpb1vhsohz-fill-merged">
          <path class="st1" d="M240,198h24v12l24-24-24-24v12h-24v24"/>
        </g>
        <g id="cp_0_g-0_hu0kpb1vhsohz-fill-merged9" data-name="cp_0_g-0_hu0kpb1vhsohz-fill-merged">
          <path class="st1" d="M408,198h24v12l24-24-24-24v12h-24v24"/>
        </g>
        <g id="cp_0_g-0_hu0kpb1vhsohz-fill-merged10" data-name="cp_0_g-0_hu0kpb1vhsohz-fill-merged">
          <path class="st1" d="M576,198h24v12l24-24-24-24v12h-24v24"/>
        </g>
        <g id="cp_0_g-0_hu0kpb1vhsohz-fill-merged11" data-name="cp_0_g-0_hu0kpb1vhsohz-fill-merged">
          <path class="st1" d="M744,198h24v12l24-24-24-24v12h-24v24"/>
        </g>
        <g id="cp_0_g-0_hu0kpb1vhsohz-fill-merged12" data-name="cp_0_g-0_hu0kpb1vhsohz-fill-merged">
          <path class="st3" d="M212.9,261c-4.9,0-8.9,4.1-8.9,9s4,8.9,8.9,9c0-3,.1-6,.1-9s0-6-.1-9M141,207c5,0,9-4,9-9s-4-9-9-9-9,4-9,9,4,9,9,9M114,270c0,5-4,9-9,9s-9-4-9-9,4-9,9-9,9,4,9,9M141,279c5,0,9-4,9-9s-4-9-9-9-9,4-9,9,4,9,9,9M123,315c5,0,9-4,9-9s-4-9-9-9-9,4-9,9,4,9,9,9M159,315c5,0,9-4,9-9s-4-9-9-9-9,4-9,9,4,9,9,9M204,306c0,5-4,9-9,9s-9-4-9-9,4-9,9-9,9,4,9,9M177,207c5,0,9-4,9-9s-4-9-9-9-9,4-9,9,4,9,9,9M150,342c0,5-4,9-9,9s-9-4-9-9,4-9,9-9,9,4,9,9M186,342c0,5-4,9-9,9s-9-4-9-9,4-9,9-9,9,4,9,9M177,279c5,0,9-4,9-9s-4-9-9-9-9,4-9,9,4,9,9,9M123,243c5,0,9-4,9-9s-4-9-9-9-9,4-9,9,4,9,9,9M168,234c0,5-4,9-9,9s-9-4-9-9,4-9,9-9,9,4,9,9M195,243c5,0,9-4,9-9s-4-9-9-9-9,4-9,9,4,9,9,9"/>
        </g>
        <g id="cp_0_g-0_hu0kpb1vhsohz-fill-merged13" data-name="cp_0_g-0_hu0kpb1vhsohz-fill-merged">
          <path class="st3" d="M78,270c0,5-4,9-9,9s-9-4-9-9,4-9,9-9,9,4,9,9M87,315c5,0,9-4,9-9s-4-9-9-9-9,4-9,9,4,9,9,9M87,243c5,0,9-4,9-9s-4-9-9-9-9,4-9,9,4,9,9,9"/>
        </g>
        <g id="cp_0_g-0_hu0kpb1vhsohz-fill-merged14" data-name="cp_0_g-0_hu0kpb1vhsohz-fill-merged">
          <path class="st3" d="M546,225.5c-3.5,1.2-6,4.6-6,8.5s3.5,8.4,7.9,8.9c-.5-6-1.1-11.8-1.9-17.4M547.9,297.1c-4.5.5-7.9,4.3-7.9,8.9s2.5,7.3,6,8.5c.8-5.6,1.4-11.4,1.9-17.4M516,207c5,0,9-4,9-9s-4-9-9-9-9,4-9,9,4,9,9,9M417,315c5,0,9-4,9-9s-4-9-9-9-9,4-9,9,4,9,9,9M483,315c5,0,9-4,9-9s-4-9-9-9-9,4-9,9,4,9,9,9M525,342c0,5-4,9-9,9s-9-4-9-9,4-9,9-9,9,4,9,9M516,279c5,0,9-4,9-9s-4-9-9-9-9,4-9,9,4,9,9,9M441,270c0,5,4,9,9,9s9-4,9-9-4-9-9-9-9,4-9,9M483,243c5,0,9-4,9-9s-4-9-9-9-9,4-9,9,4,9,9,9M426,234c0,5-4,9-9,9s-9-4-9-9,4-9,9-9,9,4,9,9"/>
        </g>
        <g id="cp_0_g-0_hu0kpb1vhsohz-fill-merged15" data-name="cp_0_g-0_hu0kpb1vhsohz-fill-merged">
          <path class="st3" d="M378.1,226.4c-2.5,1.6-4.1,4.4-4.1,7.6s2.5,7.2,5.9,8.4c-.5-5.5-1-10.8-1.7-16M379.9,297.6c-3.4,1.3-5.9,4.6-5.9,8.4s1.7,6,4.1,7.6c.7-5.2,1.3-10.5,1.7-16M315,207c5,0,9-4,9-9s-4-9-9-9-9,4-9,9,4,9,9,9M249,315c5,0,9-4,9-9s-4-9-9-9-9,4-9,9,4,9,9,9M300,306c0,5-4,9-9,9s-9-4-9-9,4-9,9-9,9,4,9,9M346,306c0,5-4,9-9,9s-9-4-9-9,4-9,9-9,9,4,9,9M370,198c0,5-4,9-9,9s-9-4-9-9,4-9,9-9,9,4,9,9M315,351c5,0,9-4,9-9s-4-9-9-9-9,4-9,9,4,9,9,9M370,342c0,5-4,9-9,9s-9-4-9-9,4-9,9-9,9,4,9,9M315,279c5,0,9-4,9-9s-4-9-9-9-9,4-9,9,4,9,9,9M370,270c0,5-4,9-9,9s-9-4-9-9,4-9,9-9,9,4,9,9M269,279c-5,0-9-4-9-9s4-9,9-9,9,4,9,9-4,9-9,9M300,234c0,5-4,9-9,9s-9-4-9-9,4-9,9-9,9,4,9,9M249,243c5,0,9-4,9-9s-4-9-9-9-9,4-9,9,4,9,9,9M346,234c0,5-4,9-9,9s-9-4-9-9,4-9,9-9,9,4,9,9"/>
        </g>
        <g id="cp_0_g-0_hu0kpb1vhsohz-fill-merged16" data-name="cp_0_g-0_hu0kpb1vhsohz-fill-merged">
          <path class="st3" d="M706.3,190.1c-1.3-.7-2.8-1.1-4.3-1.1-5,0-9,4-9,9s4,9,9,9,6.2-1.8,7.7-4.4c-1-4.4-2.2-8.5-3.4-12.5M709.7,337.4c-1.6-2.6-4.5-4.4-7.7-4.4-5,0-9,4-9,9s4,9,9,9,3.1-.4,4.3-1.1c1.2-3.9,2.4-8.1,3.4-12.5M585,315c5,0,9-4,9-9s-4-9-9-9-9,4-9,9,4,9,9,9M663,315c5,0,9-4,9-9s-4-9-9-9-9,4-9,9,4,9,9,9M711,270c0,5-4,9-9,9s-9-4-9-9,4-9,9-9,9,4,9,9M624,279c-5,0-9-4-9-9s4-9,9-9,9,4,9,9-4,9-9,9M672,234c0,5-4,9-9,9s-9-4-9-9,4-9,9-9,9,4,9,9M585,243c5,0,9-4,9-9s-4-9-9-9-9,4-9,9,4,9,9,9"/>
        </g>
        <g id="cp_0_g-0_hu0kpb1vhsohz-fill-merged17" data-name="cp_0_g-0_hu0kpb1vhsohz-fill-merged">
          <path class="st3" d="M864,306c0,5-4,9-9,9s-9-4-9-9,4-9,9-9,9,4,9,9M762,306c0,5-4,9-9,9s-9-4-9-9,4-9,9-9,9,4,9,9M795,270c0,5,4,9,9,9s9-4,9-9-4-9-9-9-9,4-9,9M864,234c0,5-4,9-9,9s-9-4-9-9,4-9,9-9,9,4,9,9M762,234c0,5-4,9-9,9s-9-4-9-9,4-9,9-9,9,4,9,9"/>
        </g>
        <g id="cp_0_g-0_hu0kpb1vhsohz-fill-merged18" data-name="cp_0_g-0_hu0kpb1vhsohz-fill-merged">
          <path class="st3" d="M960,270c0-5-4-9-9-9s-9,4-9,9,4,9,9,9,9-4,9-9"/>
        </g>
      </g>
      <g id="g-root-cp_0_g-0_hu0kpb1vhsohz-stroke">
        <g id="cp_0_g-0_hu0kpb1vhsohz-stroke">
          <path class="st11" d="M48,150v-12h24v12c0,13.3,10.7,24,24,24v-12l24,24-24,24v-12c-26.5,0-48-21.5-48-48Z"/>
        </g>
        <g id="cp_0_g-0_hu0kpb1vhsohz-stroke1" data-name="cp_0_g-0_hu0kpb1vhsohz-stroke">
          <path class="st11" d="M924,198h-12v-24h12c13.3,0,24-10.7,24-24h-12l24-24,24,24h-12c0,26.5-21.5,48-48,48Z"/>
        </g>
        <g id="cp_0_g-0_hu0kpb1vhsohz-stroke2" data-name="cp_0_g-0_hu0kpb1vhsohz-stroke">
          <path class="st11" d="M48,390v12h24v-12c0-13.3,10.7-24,24-24v12l24-24-24-24v12c-26.5,0-48,21.5-48,48Z"/>
        </g>
        <g id="cp_0_g-0_hu0kpb1vhsohz-stroke3" data-name="cp_0_g-0_hu0kpb1vhsohz-stroke">
          <path class="st11" d="M924,342h-12v24h12c13.3,0,24,10.7,24,24h-12l24,24,24-24h-12c0-26.5-21.5-48-48-48Z"/>
        </g>
        <g id="cp_0_g-0_hu0kpb1vhsohz-stroke4" data-name="cp_0_g-0_hu0kpb1vhsohz-stroke">
          <path class="st11" d="M240,366h24v12l24-24-24-24v12h-24v24Z"/>
        </g>
        <g id="cp_0_g-0_hu0kpb1vhsohz-stroke5" data-name="cp_0_g-0_hu0kpb1vhsohz-stroke">
          <path class="st11" d="M408,366h24v12l24-24-24-24v12h-24v24Z"/>
        </g>
        <g id="cp_0_g-0_hu0kpb1vhsohz-stroke6" data-name="cp_0_g-0_hu0kpb1vhsohz-stroke">
          <path class="st11" d="M576,366h24v12l24-24-24-24v12h-24v24Z"/>
        </g>
        <g id="cp_0_g-0_hu0kpb1vhsohz-stroke7" data-name="cp_0_g-0_hu0kpb1vhsohz-stroke">
          <path class="st11" d="M744,366h24v12l24-24-24-24v12h-24v24Z"/>
        </g>
        <g id="cp_0_g-0_hu0kpb1vhsohz-stroke8" data-name="cp_0_g-0_hu0kpb1vhsohz-stroke">
          <path class="st11" d="M240,198h24v12l24-24-24-24v12h-24v24Z"/>
        </g>
        <g id="cp_0_g-0_hu0kpb1vhsohz-stroke9" data-name="cp_0_g-0_hu0kpb1vhsohz-stroke">
          <path class="st11" d="M408,198h24v12l24-24-24-24v12h-24v24Z"/>
        </g>
        <g id="cp_0_g-0_hu0kpb1vhsohz-stroke10" data-name="cp_0_g-0_hu0kpb1vhsohz-stroke">
          <path class="st11" d="M576,198h24v12l24-24-24-24v12h-24v24Z"/>
        </g>
        <g id="cp_0_g-0_hu0kpb1vhsohz-stroke11" data-name="cp_0_g-0_hu0kpb1vhsohz-stroke">
          <path class="st11" d="M744,198h24v12l24-24-24-24v12h-24v24Z"/>
        </g>
        <g id="cp_0_g-0_hu0kpb1vhsohz-stroke12" data-name="cp_0_g-0_hu0kpb1vhsohz-stroke">
          <path class="st10" d="M212.9,261c-4.9,0-8.9,4.1-8.9,9s4,8.9,8.9,9c0-3,.1-6,.1-9s0-6-.1-9ZM141,207c5,0,9-4,9-9s-4-9-9-9-9,4-9,9,4,9,9,9ZM114,270c0,5-4,9-9,9s-9-4-9-9,4-9,9-9,9,4,9,9ZM141,279c5,0,9-4,9-9s-4-9-9-9-9,4-9,9,4,9,9,9ZM123,315c5,0,9-4,9-9s-4-9-9-9-9,4-9,9,4,9,9,9ZM159,315c5,0,9-4,9-9s-4-9-9-9-9,4-9,9,4,9,9,9ZM204,306c0,5-4,9-9,9s-9-4-9-9,4-9,9-9,9,4,9,9ZM177,207c5,0,9-4,9-9s-4-9-9-9-9,4-9,9,4,9,9,9ZM150,342c0,5-4,9-9,9s-9-4-9-9,4-9,9-9,9,4,9,9ZM186,342c0,5-4,9-9,9s-9-4-9-9,4-9,9-9,9,4,9,9ZM177,279c5,0,9-4,9-9s-4-9-9-9-9,4-9,9,4,9,9,9ZM123,243c5,0,9-4,9-9s-4-9-9-9-9,4-9,9,4,9,9,9ZM168,234c0,5-4,9-9,9s-9-4-9-9,4-9,9-9,9,4,9,9ZM195,243c5,0,9-4,9-9s-4-9-9-9-9,4-9,9,4,9,9,9Z"/>
        </g>
        <g id="cp_0_g-0_hu0kpb1vhsohz-stroke13" data-name="cp_0_g-0_hu0kpb1vhsohz-stroke">
          <path class="st10" d="M78,270c0,5-4,9-9,9s-9-4-9-9,4-9,9-9,9,4,9,9ZM87,315c5,0,9-4,9-9s-4-9-9-9-9,4-9,9,4,9,9,9ZM87,243c5,0,9-4,9-9s-4-9-9-9-9,4-9,9,4,9,9,9Z"/>
        </g>
        <g id="cp_0_g-0_hu0kpb1vhsohz-stroke14" data-name="cp_0_g-0_hu0kpb1vhsohz-stroke">
          <path class="st10" d="M546,225.5c-3.5,1.2-6,4.6-6,8.5s3.5,8.4,7.9,8.9c-.5-6-1.1-11.8-1.9-17.4ZM547.9,297.1c-4.5.5-7.9,4.3-7.9,8.9s2.5,7.3,6,8.5c.8-5.6,1.4-11.4,1.9-17.4ZM516,207c5,0,9-4,9-9s-4-9-9-9-9,4-9,9,4,9,9,9ZM417,315c5,0,9-4,9-9s-4-9-9-9-9,4-9,9,4,9,9,9ZM483,315c5,0,9-4,9-9s-4-9-9-9-9,4-9,9,4,9,9,9ZM525,342c0,5-4,9-9,9s-9-4-9-9,4-9,9-9,9,4,9,9ZM516,279c5,0,9-4,9-9s-4-9-9-9-9,4-9,9,4,9,9,9ZM441,270c0,5,4,9,9,9s9-4,9-9-4-9-9-9-9,4-9,9ZM483,243c5,0,9-4,9-9s-4-9-9-9-9,4-9,9,4,9,9,9ZM426,234c0,5-4,9-9,9s-9-4-9-9,4-9,9-9,9,4,9,9Z"/>
        </g>
        <g id="cp_0_g-0_hu0kpb1vhsohz-stroke15" data-name="cp_0_g-0_hu0kpb1vhsohz-stroke">
          <path class="st10" d="M378.1,226.4c-2.5,1.6-4.1,4.4-4.1,7.6s2.5,7.2,5.9,8.4c-.5-5.5-1-10.8-1.7-16ZM379.9,297.6c-3.4,1.3-5.9,4.6-5.9,8.4s1.7,6,4.1,7.6c.7-5.2,1.3-10.5,1.7-16ZM315,207c5,0,9-4,9-9s-4-9-9-9-9,4-9,9,4,9,9,9ZM249,315c5,0,9-4,9-9s-4-9-9-9-9,4-9,9,4,9,9,9ZM300,306c0,5-4,9-9,9s-9-4-9-9,4-9,9-9,9,4,9,9ZM346,306c0,5-4,9-9,9s-9-4-9-9,4-9,9-9,9,4,9,9ZM370,198c0,5-4,9-9,9s-9-4-9-9,4-9,9-9,9,4,9,9ZM315,351c5,0,9-4,9-9s-4-9-9-9-9,4-9,9,4,9,9,9ZM370,342c0,5-4,9-9,9s-9-4-9-9,4-9,9-9,9,4,9,9ZM315,279c5,0,9-4,9-9s-4-9-9-9-9,4-9,9,4,9,9,9ZM370,270c0,5-4,9-9,9s-9-4-9-9,4-9,9-9,9,4,9,9ZM269,279c-5,0-9-4-9-9s4-9,9-9,9,4,9,9-4,9-9,9ZM300,234c0,5-4,9-9,9s-9-4-9-9,4-9,9-9,9,4,9,9ZM249,243c5,0,9-4,9-9s-4-9-9-9-9,4-9,9,4,9,9,9ZM346,234c0,5-4,9-9,9s-9-4-9-9,4-9,9-9,9,4,9,9Z"/>
        </g>
        <g id="cp_0_g-0_hu0kpb1vhsohz-stroke16" data-name="cp_0_g-0_hu0kpb1vhsohz-stroke">
          <path class="st10" d="M706.3,190.1c-1.3-.7-2.8-1.1-4.3-1.1-5,0-9,4-9,9s4,9,9,9,6.2-1.8,7.7-4.4c-1-4.4-2.2-8.5-3.4-12.5ZM709.7,337.4c-1.6-2.6-4.5-4.4-7.7-4.4-5,0-9,4-9,9s4,9,9,9,3.1-.4,4.3-1.1c1.2-3.9,2.4-8.1,3.4-12.5ZM585,315c5,0,9-4,9-9s-4-9-9-9-9,4-9,9,4,9,9,9ZM663,315c5,0,9-4,9-9s-4-9-9-9-9,4-9,9,4,9,9,9ZM711,270c0,5-4,9-9,9s-9-4-9-9,4-9,9-9,9,4,9,9ZM624,279c-5,0-9-4-9-9s4-9,9-9,9,4,9,9-4,9-9,9ZM672,234c0,5-4,9-9,9s-9-4-9-9,4-9,9-9,9,4,9,9ZM585,243c5,0,9-4,9-9s-4-9-9-9-9,4-9,9,4,9,9,9Z"/>
        </g>
        <g id="cp_0_g-0_hu0kpb1vhsohz-stroke17" data-name="cp_0_g-0_hu0kpb1vhsohz-stroke">
          <path class="st10" d="M864,306c0,5-4,9-9,9s-9-4-9-9,4-9,9-9,9,4,9,9ZM762,306c0,5-4,9-9,9s-9-4-9-9,4-9,9-9,9,4,9,9ZM795,270c0,5,4,9,9,9s9-4,9-9-4-9-9-9-9,4-9,9ZM864,234c0,5-4,9-9,9s-9-4-9-9,4-9,9-9,9,4,9,9ZM762,234c0,5-4,9-9,9s-9-4-9-9,4-9,9-9,9,4,9,9Z"/>
        </g>
        <g id="cp_0_g-0_hu0kpb1vhsohz-stroke18" data-name="cp_0_g-0_hu0kpb1vhsohz-stroke">
          <path class="st10" d="M960,270c0-5-4-9-9-9s-9,4-9,9,4,9,9,9,9-4,9-9Z"/>
        </g>
      </g>
      <g id="g-root-tx_rawgoldm_hvvzyn1vhsni9-fill">
        <g id="tx_rawgoldm_hvvzyn1vhsni9-fill-merged">
          <g class="st8">
            <text class="st9" transform="translate(107.8 464.3)"><tspan x="0" y="0">Raw Gold Material</tspan></text>
          </g>
        </g>
      </g>
      <g id="g-root-tx_scrapgol_1qapia71vhsnb6-fill">
        <g id="tx_scrapgol_1qapia71vhsnb6-fill-merged">
          <g class="st8">
            <text class="st9" transform="translate(291.4 463)"><tspan x="0" y="0">Scrap Gold and </tspan></text>
            <text class="st9" transform="translate(323.9 481)"><tspan x="0" y="0">Silver</tspan></text>
          </g>
        </g>
      </g>
      <g id="g-root-tx_jewelryr_zoeymn1vhsnb7-fill">
        <g id="tx_jewelryr_zoeymn1vhsnb7-fill-merged">
          <g class="st8">
            <text class="st9" transform="translate(450.5 464.5)"><tspan x="0" y="0">Jewelry Residues</tspan></text>
          </g>
        </g>
      </g>
      <g id="g-root-tx_industri_924ez31vhsnb8-fill">
        <g id="tx_industri_924ez31vhsnb8-fill-merged">
          <g class="st8">
            <text class="st9" transform="translate(628.5 465.2)"><tspan x="0" y="0">Industrial Precious </tspan></text>
            <text class="st9" transform="translate(649 483.2)"><tspan x="0" y="0">Metal Waste</tspan></text>
          </g>
        </g>
      </g>
      <g id="g-root-tx_semirefi_18lax1r1vhsnwt-fill">
        <g id="tx_semirefi_18lax1r1vhsnwt-fill-merged">
          <g class="st8">
            <text class="st9" transform="translate(802.5 466.6)"><tspan x="0" y="0">Semi-Refined Bullion</tspan></text>
          </g>
        </g>
      </g>
      <g id="g-root-tx_puregold_hz0de71vhsnwu-fill">
        <g id="tx_puregold_hz0de71vhsnwu-fill-merged">
          <g class="st8">
            <text class="st7" transform="translate(101.3 511)"><tspan x="0" y="0">Pure gold enters for </tspan></text>
            <text class="st7" transform="translate(142.2 529)"><tspan x="0" y="0">refining</tspan></text>
          </g>
        </g>
      </g>
      <g id="g-root-tx_recycled_1qdtvpr1vhsnpr-fill">
        <g id="tx_recycled_1qdtvpr1vhsnpr-fill-merged">
          <g class="st8">
            <text class="st7" transform="translate(280.3 511)"><tspan x="0" y="0">Recycled gold and </tspan></text>
            <text class="st7" transform="translate(274.3 529)"><tspan x="0" y="0">silver are processed</tspan></text>
          </g>
        </g>
      </g>
      <g id="g-root-tx_wastefro_18n6cb31vhsmx4-fill">
        <g id="tx_wastefro_18n6cb31vhsmx4-fill-merged">
          <g class="st8">
            <text class="st7" transform="translate(444.2 511)"><tspan x="0" y="0">Waste from jewelry </tspan></text>
            <text class="st7" transform="translate(451.7 529)"><tspan x="0" y="0">manufacturing is </tspan></text>
            <text class="st7" transform="translate(481.5 547)"><tspan x="0" y="0">handled</tspan></text>
          </g>
        </g>
      </g>
      <g id="g-root-tx_wastefro_qvwbtb1vhspa9-fill">
        <g id="tx_wastefro_qvwbtb1vhspa9-fill-merged">
          <g class="st8">
            <text class="st7" transform="translate(654 511)"><tspan x="0" y="0">Waste from </tspan></text>
            <text class="st7" transform="translate(625.5 529)"><tspan x="0" y="0">industrial processes </tspan></text>
            <text class="st7" transform="translate(653.9 547)"><tspan x="0" y="0">is managed</tspan></text>
          </g>
        </g>
      </g>
      <g id="g-root-tx_partiall_4pfaa71vhsoi2-fill">
        <g id="tx_partiall_4pfaa71vhsoi2-fill-merged">
          <g class="st8">
            <text class="st7" transform="translate(805.3 511)"><tspan x="0" y="0">Partially refined gold </tspan></text>
            <text class="st7" transform="translate(804.4 529)"><tspan x="0" y="0">and silver are refined </tspan></text>
            <text class="st7" transform="translate(851 547)"><tspan x="0" y="0">further</tspan></text>
          </g>
        </g>
      </g>
    </g>
  </g>
</svg>