<?xml version="1.0" encoding="UTF-8"?>
<svg id="Layer_1" data-name="Layer 1" xmlns="http://www.w3.org/2000/svg" viewBox="0 0 1300 1000">
  <defs>
    <style>
      .cls-1 {
        fill: #263d2d;
      }

      .cls-2 {
        fill: #e6c37e;
      }
    </style>
  </defs>
  <g id="J9rSWI">
    <g>
      <path class="cls-1" d="M1076.383,712.002c-59.508,18.641-124.839,18.939-182.86-2.98-24.4-9.218-46.761-21.777-66.267-39.181-16.154-14.413-27.762-32.398-36.772-51.951-10.124-21.969-15.171-44.834-17.747-68.836-3.006-28.013-.879-55.104,2.923-82.998,4.733-34.716,18.181-66.673,40.651-93.314,17.637-20.91,39.278-34.777,64.713-45.059,66.937-27.061,143.576-27.763,210.61-.274,34.23,14.037,70.257,39.699,87.048,73.377,14.998,30.081,22.318,62.996,24.791,96.412.704,9.512,1.949,18.232,1.098,27.452l-1.379,14.955c-1.799,19.507-4.885,38.186-10.8,56.87-6.306,19.915-14.044,39.156-26.594,55.987-22.119,29.663-53.681,49.149-89.415,59.54ZM1019.072,619.493c29.789-8.881,33.902-35.234,35.393-62.225,1.953-35.357,4.59-88.249-8.531-121.011-4.716-11.775-15.887-19.52-27.64-23.524-21.996-7.494-45.551-5.519-66.999,3.118-17.058,6.869-25.424,25.203-27.156,42.723-2.715,27.454-3.383,54.577-2.691,82.169.423,16.857,2.471,32.718,7.194,48.713,4.004,13.559,12.924,23.747,26.189,28.954,20.888,8.199,42.93,7.437,64.242,1.083Z"/>
      <path class="cls-1" d="M713.007,694.778c-55.944,42.389-164.824,36.357-219.491,6.22l-17.22-9.493c-1.72-.948-3.268-2.277-5.729-1.473l-.135,26.56-89.711-.131.042-148.263,81.368-.071c9.681,19.101,25.017,33.372,43.521,43.869,18.468,9.869,38.34,15.862,59.242,18.517,20.702,1.464,46.625.796,65.288-7.679,4.841-2.199,7.604-8.486,5.333-13.123-4.535-9.259-22.307-13.711-32.358-16.735l-120.296-36.197c-20.352-6.124-38.581-14.488-55.569-27.137-31.108-23.163-49.903-53.021-49.853-92.83.023-18.17,2.227-35.241,9.086-52.047,6.678-16.361,16.57-30.73,30.557-41.716,52.866-41.523,127.005-41.868,189.466-25.569,13.364,3.487,25.265,9.206,37.102,16.02l12.114,6.974c1.746,1.005,3.885,1.382,5.369-.169l.308-21.839,86.133-.022.061,138.307-83.535-.004c-11.901-18.085-28.208-31.696-47.877-40.857-15.643-7.581-31.938-12.068-49.112-15.121-5.578-1.636-10.998-1.312-16.781-1.69-11.204-.733-22.19-1.806-33.077.94-7.233,1.824-14.435,6.537-16.151,14.076-1.925,8.458,8.686,16.127,16.172,18.329l147.539,43.383c31.342,9.216,57.73,30.885,76.086,57.24,11.915,17.108,17.995,35.406,19.562,55.974,3.148,41.329-14.514,80.799-47.454,105.757Z"/>
      <path class="cls-1" d="M157.817,411.938c0-.205-.067-.524-.012-.696.11-.346.231-1.693-.182-1.878l-50.112-.04c-2.407.656-5.156.99-7.383-.62l.033-95.779,238.165.096c2.316,0,3.667,1.066,5.62.793,3.736-.521,7.142-1.897,11.331-.939l.011,96.595-54.923.018c-.985,0-2.076.295-2.671.277-.572-.017-1.338,1.487-1.338,2.601l-.016,203.996c0,1.392.564,3.831,1.848,3.831l51.298.005c1.295-.834,5.779-1.465,5.778,1.005l-.036,93.582-255.141-.089.066-83.33c.002-2.758,1.825-5.136-.152-7.797.345-1.005.04-1.878.466-2.474.38-.533,1.31-.885,2.413-.885l53.148-.003c1.943,0,3.668-1.628,3.668-3.828l.004-203.199c0-1.406-1.42-1.767-1.882-1.241Z"/>
      <path class="cls-2" d="M897.953,760.041c6.464-.395,11.952-.346,18.645.011-13.649,23.769-29.435,45.506-47.574,65.99-1.278,1.443-3.084,5.144-.812,6.45l40.271,23.142c2.6,1.494,5.258,2.859,8.171.639,33.425-25.473,64.861-62.526,89.257-96.514,6.285.387,11.672-.356,17.642.844-79.206,124.579-211.801,201.982-359.009,210.079-28.243,1.554-55.623.979-83.757-2.497-53.358-6.594-104.813-22.712-152.673-46.581-15.489-8.289-29.801-16.147-44.27-25.996-52.095-34.803-99.806-81.391-133.829-135.161,6.672-1.086,12.725-1.211,19.154-.112,24.437,35.973,54.016,68.283,88.122,95.241,3.434,2.714,6.093,3.333,10.24.922l35.77-20.795c2.078-1.208,3.286-2.144,3.67-4.486.306-1.864-.528-3.192-2.032-5.023-17.044-20.759-34.224-41.514-47.539-65.904,6.173-1.933,12.048-.887,18.175-.138,14.386,22.225,29.934,42.816,47.974,62.09,1.626,1.737,4.044.681,5.879-.103,23.421-10.009,47.166-17.903,71.466-25.568,2.238-.706,3.567-2.069,2.617-4.595-4.212-11.2-10.538-20.153-13.468-31.99,5.539-1.148,10.702-1.066,16.49-.254l16.029,30.63c34.092-6.057,67.149-10.635,101.092-12.43,1.599-.085,2.706.373,3.719-.369.991-.726,1.666-2.221,1.638-3.865l-.235-13.602c5.45-.417,10.922-.514,16.326.003,3.267,9.018-3.121,16.809,4.445,17.222,35.176,1.922,69.561,6.354,104.027,13.645l15.519-31.008c5.536-.163,10.723-.455,16.314.225-3.333,13.835-9.518,21.783-12.989,34.301,4.06,2.855,8.752,3.345,13.43,5.052l59.022,21.536c3.402,1.241,5.207,1.499,7.781-1.435,16.432-18.725,31.509-38.047,45.302-59.596ZM601.704,897.98l27.493-3.747-.059-88.246-.47-10.039c-4.101-1.497-7.931-.184-12.319-.061-28.305.795-55.987,4.315-83.464,11.023-1.267.309-.867,2.767-.4,3.662,16.419,31.486,36.033,60.682,58.281,88.345,3.849,1.015,7.011-.402,10.938-.938ZM670.138,897.76c5.384.706,10.235,2.072,16.12,1.298,22.244-28.743,42.484-58.552,59.408-91.565-33.972-8.744-65.229-11.423-99.135-12.096.263,6.476-.12,12.374-.382,18.612-.495,11.786-.101,23.301.069,35.155l.652,45.544,23.268,3.051ZM544.971,917.475l24.211-10.49c.997-.432,2.055-.436,2.333-1.202.301-.83.643-1.834-.165-2.95-20.465-28.265-39.432-57.075-56.062-87.764-1.149-2.121-2.461-3.898-5.239-3.161-23.46,6.216-46.164,13.939-68.081,24.579-2.622,1.273.149,5.71,1.638,7.084,30.01,27.706,64.514,55.312,101.366,73.904ZM734.086,914.349c36.627-20.04,69.815-44.302,98.381-74.269,1.171-1.229,1.537-2.677,1.204-3.605-.384-1.072-1.395-1.428-2.638-1.976-21.902-9.654-44.199-17.578-68.135-22.443-16.687,30.012-34.892,58.788-55.163,86.558-1.926,2.638-3.262,4.849-2.67,8.176l20.721,8.489c3.397,1.392,4.85.957,8.301-.931ZM514.863,937.253c4.683-1.91,7.348-3.859,10.397-6.621.728-1.473,1.642-4.155-.41-5.361-37.227-21.889-71.182-48.079-101.142-79.202-3.006-.529-5.135.851-7.637,2.053-12.303,5.913-23.491,12.909-35.194,19.836-.31,2.013-.987,4.995.837,6.291,39.474,28.044,85.651,50.2,133.149,63.005ZM847.388,902.639c15.457-8.313,30.833-17.209,44.936-27.383,1.712-1.235,6.271-5.46,3.37-7.119l-38.377-21.95c-1.532-.876-5.209-.96-6.465.175l-44.371,40.07c-17.826,13.648-35.782,25.996-54.662,38.021-1.354.862-2.47,1.301-2.421,2.625.169,4.545,7.093,8.512,11.361,10.062,30.492-8.107,58.936-19.608,86.63-34.502ZM733.924,944.205c2.404-.587-.056-4.794-1.296-5.607-14.056-9.224-29.077-16.18-45.474-20.491-48.004-12.622-102.594-6.576-144.404,20.952-1.498.986-1.184,5.098.557,5.485,26.083,5.8,51.958,8.854,78.574,9.918,35.375,1.415,78.039-1.958,112.043-10.256Z"/>
      <path class="cls-2" d="M643.414,267.066c-1.622,2.018-13.035,1.34-15.505.435-4.081-4.38,3.253-17.114-6.785-17.505-33.009-1.285-65.541-4.772-97.864-11.684-1.701-.364-2.845-.99-4.213-.246-.852.464-1.614,1.686-2.25,3.018l-12.989,27.174c-5.648.772-11.287.936-17.369.087,2.804-11.709,12.467-23.833,13.673-35.345l-24.993-8.087-51.755-18.838c-18.779,19.729-33.945,40.387-48.71,62.225-5.981.931-11.564,1.008-17.938.318,13.267-24.132,29.33-45.599,46.939-66.591.919-1.096,3.514-3.912,2.371-5.332-15.153-8.076-29.852-15.966-44.201-25.451-1.181-.78-3.366.097-4.428.941-34.078,27.096-64.871,59.656-89.737,95.697-6.234.167-11.839.6-18.737-.2,78.259-121.827,208.994-197.434,352.608-208.696,17.514-1.373,40.527-1.295,57.491-.405,148.494,7.791,279.942,83.968,362.516,207.735-6.494,2.826-12.976,1.508-19.567.288-24.036-35.647-53.554-66.435-87.158-93.191-2.975-2.369-5.904-4.321-9.702-1.819-12.321,8.115-25.071,15.297-38.299,22.302-6.205,3.286,7.486,15.709,8.803,17.647,3.234,4.761,7.023,8.629,10.457,13.328l4.746,6.494,23.705,35.692c-6.408,2.28-12.026,1.726-18.196.795-15.059-22.09-30.456-43.107-49.633-63.227-25.22,9.787-50.727,19.573-77.281,27.468.227,7.608,3.656,13.217,6.366,19.489,2.256,5.52,5.196,10.374,6.49,16.325l-17.179.015-13.997-28.14c-.755-1.518-2.605-2.505-4.422-2.062-33.141,8.086-66.655,11.107-101.091,12.858-2.728,4.315-.86,14.866-2.165,16.49ZM694.596,107.009c12.559-4.524,24.035-9.741,34.898-17.494,1.339-.955,2.156-4.552-.181-5.08-59.66-13.488-129.498-13.596-189.103-.131-1.414.32-2.352,1.731-2.335,2.611.013.655.273,1.977,1.219,2.663,42.252,30.666,107.402,34.756,155.501,17.43ZM412.559,180.89c2.267,1.305,7.057,3.701,9.178,1.641,30.711-29.844,64.204-55.801,100.865-77.803,2.24-1.345,1.089-4.51-.213-5.747-10.177-9.667-12.477-5.854-15.151-5.77-4.552.143-7.045,1.952-11.071,3.342-41.041,14.175-80.077,32.521-115.585,57.441-1.815,1.274-5.101,5.557-2.841,6.857l34.818,20.038ZM855.68,180.344l33.813-19.512c1.203-.694,1.931-1.545,2.072-2.368.193-1.125.173-2.478-.919-3.261-9.592-6.878-18.935-12.62-29.154-18.795-32.979-19.93-68.015-35.257-105.37-44.787-4.862,3.795-10.803,5.42-9.446,10.686.365,1.414,1.745,1.926,3.51,2.961,34.891,20.459,66.59,45.409,95.275,73.947,3.091,3.075,6.08,3.517,10.22,1.128ZM828.612,192.77c2.248-.962,3.249-3.774,1.504-5.506-27.904-27.7-59.069-51.217-93.458-70.318-3.998-2.22-7.879-3.07-11.962-4.929l-22.361,9.822c-1.36.597-2.224,1.418-2.255,2.689-.025,1.03.546,1.555,1.366,2.667,20.919,28.369,39.487,57.724,57.275,88.806,23.315-4.187,47.821-13.79,69.891-23.23ZM530.941,181.268c10.88-18.677,22.622-35.348,35.619-52.084.908-1.17,2.18-5.368.672-6.244-6.515-3.785-13.607-6.024-20.416-9.147-2.674-1.227-4.73-.886-7.302.528-35.676,19.613-67.741,44.056-97.208,72.071-2.195,2.087-3.912,3.784-2.331,7.049,22.053,9.146,44.284,17.095,67.398,23.204,2.298.607,3.644-1.178,4.539-2.716l19.027-32.663ZM626.454,231.955l.08-86.689c-.747-3.812-.689-7.101-1.006-10.929l-37.934-4.724c-21.819,27.259-41.278,55.275-57.669,85.754-1.063,1.977-1.18,4.669-.273,6.682,12.99,3.375,26.398,4.959,39.892,6.854,18.935,2.659,37.369,4.583,56.91,3.052ZM644.861,233.546c8.531-1.469,14.599-.988,21.818-1.526,24.935-1.858,49.319-4.577,74.163-11.511-16.963-32.853-36.827-62.25-60.033-90.764l-35.729,5.174c-.549,2.49-1.161,4.358-1.156,6.655l.144,73.275c.012,6.345,1.001,11.804.793,18.697Z"/>
      <path class="cls-1" d="M157.817,411.938c.462-.525,1.882-.164,1.882,1.241l-.004,203.199c0,2.201-1.725,3.828-3.668,3.828l-53.148.003c-1.103,0-2.033.352-2.413.885-.426.596-.121,1.469-.466,2.474,1.977,2.661.154,5.039.152,7.797l-.066,83.33,255.141.089.036-93.582c0-2.471-4.483-1.839-5.778-1.005l-51.298-.005c-1.283,0-1.848-2.439-1.848-3.831l.016-203.996c0-1.114.766-2.619,1.338-2.601.594.018,1.686-.276,2.671-.277l54.923-.018-.011-96.595c-4.188-.958-7.595.419-11.331.939-1.953.272-3.305-.793-5.62-.793l-238.165-.096-.033,95.779c2.227,1.611,4.975,1.276,7.383.62l50.112.04c.413.184.293,1.532.182,1.878l-58.655-.414.021-99.58,236.386-.011,21.973.181.077,99.492-59.442.25v207.214s59.375.376,59.375.376l-.047,97.8-258.322-.008.045-97.916,55.804-.14c1.809-.091,2.575-1.013,2.852-3.023l-.056-203.527Z"/>
    </g>
  </g>
</svg>