<svg width="19" height="19" viewBox="0 0 19 19" fill="none" xmlns="http://www.w3.org/2000/svg">
<path d="M5.74244 14.6416L6.31618 14.9761C7.27469 15.535 8.36404 15.8335 9.50079 15.8335C12.9986 15.8335 15.8341 12.998 15.8341 9.50016C15.8341 6.00236 12.9986 3.16683 9.50079 3.16683C6.00297 3.16683 3.16744 6.00236 3.16744 9.50016C3.16744 10.6372 3.46608 11.727 4.02535 12.6857L4.35974 13.2588L3.84239 15.1601L5.74244 14.6416ZM1.58742 17.4168L2.65772 13.4834C1.97516 12.3134 1.58411 10.9525 1.58411 9.50016C1.58411 5.12791 5.12852 1.5835 9.50079 1.5835C13.873 1.5835 17.4175 5.12791 17.4175 9.50016C17.4175 13.8724 13.873 17.4168 9.50079 17.4168C8.04895 17.4168 6.6884 17.0261 5.51859 16.3439L1.58742 17.4168ZM6.64392 5.78592C6.74991 5.77847 6.85625 5.77733 6.96238 5.78251C7.00526 5.78533 7.04793 5.79029 7.09063 5.79522C7.21671 5.80978 7.35536 5.88656 7.40197 5.99224C7.63814 6.52774 7.8673 7.0663 8.08941 7.60779C8.13841 7.72732 8.10888 7.88226 8.01562 8.03218C7.96828 8.10905 7.89393 8.21687 7.80779 8.32715C7.71826 8.4417 7.52557 8.65237 7.52557 8.65237C7.52557 8.65237 7.44751 8.74594 7.47693 8.8624C7.4884 8.90641 7.52496 8.97054 7.5581 9.02445C7.57646 9.0543 7.59351 9.08098 7.60457 9.09942C7.80717 9.4377 8.07951 9.78065 8.41217 10.1031C8.50748 10.1955 8.59995 10.2898 8.69939 10.3773C9.07012 10.7042 9.48955 10.9713 9.94254 11.1692L9.94658 11.171C10.0135 11.1998 10.0478 11.2155 10.1458 11.2571C10.1952 11.278 10.2457 11.2961 10.2975 11.3098C10.3163 11.3147 10.3355 11.3174 10.3548 11.3188C10.4829 11.3265 10.5569 11.2444 10.5885 11.2066C11.1612 10.5127 11.2136 10.4674 11.2176 10.4677V10.469C11.2929 10.3897 11.4112 10.3621 11.5168 10.3686C11.5651 10.3715 11.613 10.3808 11.6569 10.4008C12.0779 10.5929 12.7663 10.8925 12.7663 10.8925L13.2266 11.0994C13.3037 11.1366 13.3741 11.2243 13.3775 11.3094C13.3796 11.3624 13.3853 11.4479 13.3663 11.6043C13.3416 11.8091 13.2793 12.0557 13.2173 12.1849C13.1738 12.2756 13.1174 12.356 13.0519 12.4241C12.963 12.5164 12.897 12.5725 12.7901 12.6521C12.725 12.7006 12.6913 12.7234 12.6913 12.7234C12.5813 12.7927 12.5193 12.8274 12.3883 12.8971C12.1845 13.0057 11.9594 13.068 11.7288 13.0799C11.5818 13.0874 11.4351 13.0981 11.2883 13.0901C11.2818 13.0897 10.8385 13.0217 10.8385 13.0217C9.7128 12.7256 8.67176 12.1709 7.79818 11.4017C7.61958 11.2445 7.45393 11.0744 7.28487 10.9061C6.58103 10.2054 6.04819 9.44981 5.72509 8.7351C5.56575 8.38265 5.46486 8.00518 5.46327 7.61677C5.46035 7.13629 5.61766 6.66853 5.91034 6.28747C5.96803 6.21235 6.02279 6.13443 6.11728 6.04522C6.21734 5.95073 6.28102 5.90001 6.34962 5.86492C6.44105 5.81814 6.54148 5.79312 6.64392 5.78592Z" fill="#FCF7F1"/>
</svg>
