<svg width="19" height="19" viewBox="0 0 19 19" fill="none" xmlns="http://www.w3.org/2000/svg">
<path d="M4.81491 15.1199L5.47925 15.5072C6.5891 16.1544 7.85044 16.5 9.16669 16.5C13.2168 16.5 16.5 13.2168 16.5 9.16667C16.5 5.11658 13.2168 1.83333 9.16669 1.83333C5.11658 1.83333 1.83333 5.11658 1.83333 9.16667C1.83333 10.4833 2.17913 11.7451 2.82671 12.8552L3.21389 13.5188L2.61486 15.7203L4.81491 15.1199ZM0.00383184 18.3333L1.24313 13.7789C0.452797 12.4241 0 10.8483 0 9.16667C0 4.10405 4.10405 0 9.16669 0C14.2293 0 18.3334 4.10405 18.3334 9.16667C18.3334 14.2292 14.2293 18.3333 9.16669 18.3333C7.48561 18.3333 5.91024 17.8809 4.55572 17.091L0.00383184 18.3333ZM5.85873 4.86597C5.98145 4.85734 6.10459 4.85602 6.22748 4.86202C6.27712 4.86528 6.32653 4.87102 6.37598 4.87673C6.52196 4.89359 6.6825 4.9825 6.73647 5.10486C7.00993 5.72491 7.27527 6.34851 7.53245 6.97549C7.58919 7.1139 7.555 7.2933 7.44702 7.46689C7.3922 7.5559 7.30611 7.68075 7.20638 7.80844C7.10271 7.94108 6.87959 8.18501 6.87959 8.18501C6.87959 8.18501 6.7892 8.29336 6.82327 8.4282C6.83655 8.47917 6.87888 8.55342 6.91726 8.61584C6.93852 8.6504 6.95825 8.68129 6.97106 8.70265C7.20565 9.09434 7.52099 9.49144 7.90618 9.8648C8.01654 9.97178 8.12361 10.0809 8.23874 10.1823C8.66802 10.5608 9.15367 10.8701 9.67818 11.0992L9.68286 11.1013C9.76032 11.1347 9.8001 11.1529 9.91349 11.201C9.97069 11.2252 10.0292 11.2461 10.0892 11.262C10.1109 11.2677 10.1332 11.2709 10.1556 11.2724C10.3038 11.2813 10.3895 11.1863 10.4261 11.1425C11.0893 10.3391 11.15 10.2867 11.1546 10.287V10.2885C11.2417 10.1966 11.3788 10.1647 11.5011 10.1723C11.5569 10.1756 11.6124 10.1864 11.6632 10.2096C12.1507 10.4319 12.9478 10.7788 12.9478 10.7788L13.4808 11.0184C13.5701 11.0615 13.6516 11.163 13.6555 11.2616C13.6579 11.3229 13.6645 11.4219 13.6426 11.6031C13.6139 11.8402 13.5418 12.1258 13.4701 12.2754C13.4197 12.3803 13.3544 12.4735 13.2785 12.5523C13.1755 12.6592 13.0991 12.7241 12.9753 12.8163C12.9 12.8724 12.8609 12.8988 12.8609 12.8988C12.7336 12.9791 12.6618 13.0192 12.5101 13.1C12.2742 13.2257 12.0135 13.2979 11.7465 13.3116C11.5762 13.3204 11.4065 13.3326 11.2364 13.3235C11.2289 13.323 10.7156 13.2442 10.7156 13.2442C9.41217 12.9014 8.20675 12.2591 7.19525 11.3685C6.98844 11.1865 6.79664 10.9895 6.60088 10.7946C5.78591 9.98323 5.16894 9.10837 4.79482 8.2808C4.61033 7.8727 4.49351 7.43563 4.49167 6.9859C4.48828 6.42955 4.67043 5.88793 5.00932 5.44671C5.07612 5.35972 5.13953 5.2695 5.24893 5.1662C5.36479 5.0568 5.43853 4.99807 5.51796 4.95743C5.62383 4.90327 5.74012 4.8743 5.85873 4.86597Z" fill="#ECC273"/>
</svg>
