<svg width="17" height="14" viewBox="0 0 17 14" fill="none" xmlns="http://www.w3.org/2000/svg">
<path d="M14.6716 2.49568C14.6081 2.24746 14.4285 2.06018 14.2228 2.0024C13.8574 1.90052 12.0834 1.66667 8.33335 1.66667C4.58333 1.66667 2.80962 1.90061 2.44273 2.00269C2.23898 2.05936 2.05943 2.24661 1.9951 2.49568C1.90443 2.84936 1.66667 4.32996 1.66667 6.66667C1.66667 9.00333 1.90443 10.484 1.99535 10.8387C2.05857 11.0859 2.23815 11.2732 2.44294 11.3307C2.80962 11.4327 4.58333 11.6667 8.33335 11.6667C12.0834 11.6667 13.8574 11.4328 14.2239 11.3307C14.4277 11.274 14.6073 11.0867 14.6716 10.8377C14.7623 10.484 15 9 15 6.66667C15 4.33333 14.7623 2.84936 14.6716 2.49568ZM16.286 2.08182C16.6667 3.56667 16.6667 6.66667 16.6667 6.66667C16.6667 6.66667 16.6667 9.76667 16.286 11.2515C16.0739 12.0728 15.455 12.7182 14.6705 12.9363C13.2468 13.3333 8.33335 13.3333 8.33335 13.3333C8.33335 13.3333 3.42283 13.3333 1.99616 12.9363C1.20873 12.7152 0.589842 12.0697 0.380634 11.2515C1.49012e-07 9.76667 0 6.66667 0 6.66667C0 6.66667 1.49012e-07 3.56667 0.380634 2.08182C0.592742 1.26061 1.21164 0.61515 1.99616 0.396967C3.42283 -1.24176e-07 8.33335 0 8.33335 0C8.33335 0 13.2468 -1.24176e-07 14.6705 0.396967C15.4579 0.618183 16.0769 1.26363 16.286 2.08182ZM6.66668 9.58333V3.75L11.6667 6.66667L6.66668 9.58333Z" fill="#FCF7F1"/>
</svg>
