<svg width="378" height="378" viewBox="0 0 378 378" fill="none" xmlns="http://www.w3.org/2000/svg">
<g clip-path="url(#clip0_2146_2)">
<path d="M378.339 -0.113403H-0.492188V378.151H378.339V-0.113403Z" fill="#003C09"/>
<path d="M190.852 333.094C113.702 333.094 51.4075 272.727 49.0639 195.615C49.0261 194.141 48.9883 192.667 48.9883 191.23C48.9883 113.022 112.643 49.3668 190.852 49.3668C269.06 49.3668 278.85 71.1774 305.499 107.654C323.303 132.035 332.715 160.952 332.715 191.23C332.715 269.438 269.06 333.094 190.852 333.094ZM190.852 60.8202C118.956 60.8202 60.4417 119.335 60.4417 191.23C60.4417 263.126 60.4417 193.952 60.5173 195.275C62.6719 266.112 119.939 321.64 190.852 321.64C261.764 321.64 321.262 263.126 321.262 191.23C321.262 119.335 312.605 136.836 296.238 114.421C271.744 80.8542 232.318 60.8202 190.852 60.8202Z" fill="#E5C37D"/>
<path d="M232.355 266.981V244.453C232.355 241.088 232.204 238.291 231.901 236.023C231.599 233.755 231.032 231.374 230.238 228.955H241.578C249.365 228.955 255.337 230.315 259.533 233.075C263.729 235.834 265.846 239.765 265.846 244.831C265.846 249.896 263.502 253.071 258.853 255.83C257.379 256.662 255.753 257.418 254.014 258.098L258.399 263.92C260.516 266.641 262.822 269.363 265.354 272.084C267.887 274.806 271.365 278.284 275.749 282.517H264.901C261.763 280.211 258.097 276.847 253.901 272.5C249.705 268.153 246.152 263.995 243.204 260.026L241.616 257.872V266.981C241.616 270.346 241.767 273.181 242.07 275.449C242.372 277.717 242.939 280.06 243.733 282.479H230.238C231.032 280.098 231.561 277.792 231.864 275.524C232.166 273.256 232.317 270.383 232.317 266.981H232.355ZM241.616 255.868C245.623 255.679 248.911 254.621 251.406 252.806C254.317 250.727 255.753 247.968 255.753 244.528C255.753 241.088 254.392 238.896 251.633 236.968C249.063 235.229 245.736 234.247 241.616 234.095V255.868Z" fill="#E5C37D"/>
<path d="M237.837 180.382V181.289C237.837 202.721 220.449 220.072 199.054 220.072H188.546V201.739H195.577C205.745 201.739 214.023 193.498 214.023 183.292V178.34C214.023 168.172 205.783 159.894 195.577 159.894H163.9C154.753 159.894 147.344 152.485 147.344 143.338V141.561H199.092C220.525 141.561 237.875 158.949 237.875 180.344L237.837 180.382Z" fill="#E5C37D"/>
<path d="M189.87 218.749V203.099H195.54C206.464 203.099 215.309 194.216 215.309 183.33V178.378C215.309 167.454 206.426 158.609 195.54 158.609H163.864C155.472 158.609 148.668 151.767 148.668 143.413V142.96H199.055C219.694 142.96 236.515 159.781 236.515 180.419V181.327C236.515 201.965 219.694 218.786 199.055 218.786H189.908L189.87 218.749Z" fill="#E5C37D"/>
<path d="M182.687 267.624H158.684V201.55H160.989C172.821 201.55 182.384 211.151 182.384 222.944V263.92C182.384 265.167 182.498 266.414 182.687 267.586V267.624Z" fill="#E5C37D"/>
<path d="M160.008 266.263V202.873H160.991C172.066 202.873 181.062 211.869 181.062 222.944V263.92C181.062 264.713 181.062 265.469 181.176 266.263H160.046H160.008Z" fill="#E5C37D"/>
<path d="M259.99 150.028C259.839 148.025 259.574 146.021 259.158 144.094C256.701 132.527 249.935 121.792 240.901 114.232C236.516 110.565 231.791 107.276 226.688 104.479C226.045 104.063 225.365 103.685 224.685 103.307C223.777 102.892 222.87 102.438 221.963 102.06C219.317 100.888 216.633 99.8676 213.874 98.9604C208.544 97.1838 203.025 95.9364 197.355 95.1804C193.424 94.6512 189.455 94.3866 185.373 94.3866C181.29 94.3866 184.806 94.3866 184.541 94.3866C133.284 94.8402 91.8555 138.083 91.8555 191.306C91.8555 244.528 115.254 265.658 148.631 280.438C159.933 285.466 172.332 288.225 185.41 288.225C198.489 288.225 215.197 284.407 227.973 277.641V274.504V229.37H198.036C198.036 229.37 212.4 236.968 212.4 250.727V266.944C206.956 267.964 201.324 268.531 195.579 268.531C149.538 268.531 112.23 233.982 112.23 191.344C112.23 148.705 131.961 133.623 160.387 121.338C164.28 119.637 168.325 118.238 172.521 117.142C174.902 116.5 177.283 115.97 179.74 115.555C180.799 115.479 181.895 115.441 182.953 115.403C194.596 115.063 206.616 117.029 218.334 121.678C223.853 123.871 229.145 126.592 234.135 129.805C242.262 135.059 249.481 141.674 255.454 149.272C257.079 151.389 258.629 153.581 260.065 155.812C259.498 154.904 260.141 151.313 260.065 150.142L259.99 150.028Z" fill="#E5C37D"/>
</g>
<defs>
<clipPath id="clip0_2146_2">
<rect width="378" height="378" rx="189" fill="white"/>
</clipPath>
</defs>
</svg>
