<svg width="842" height="267" viewBox="0 0 842 267" fill="none" xmlns="http://www.w3.org/2000/svg">
<path d="M634.6 150.3H611.4C611.4 150.3 612.6 149.3 612.6 148.9V94.8C600.5 109 596.7 113.3 585.9 124.8L559.5 92.8V148C559.5 148.8 561.2 150.3 561.2 150.3C555 150.3 536.5 150.3 536.9 150.3C537.3 150.3 539 148.5 539 148.5V61.4L536.5 56.9H559.6L585.7 97.6C585.7 97.6 605.4 69.4 612.7 56.9H635.9C634.8 58.9 633.6 61.4 633.6 61.4V148.5C633.6 149.3 634.6 150.3 634.6 150.3Z" fill="#E5C37D"/>
<path d="M652.202 150.3H673.702C673.702 150.3 672.902 149.2 672.902 148.7C672.902 136 673.102 72.7 672.902 56.9H652.102" fill="#E5C37D"/>
<path d="M777.002 107.2V135C792.202 135 798.602 135.6 811.602 132.8C807.502 144 808.102 142.3 804.602 150.3H755.102C755.102 150.3 756.202 150.3 756.202 143.2V74C756.202 68.1 756.502 62.6 755.102 56.8H808.002C804.602 65.2 803.302 68.3 800.502 74.1C794.002 72 791.702 71.7 777.002 71.8C777.002 84.1 777.202 89.1 777.202 95.4H806.502C803.802 101.1 803.502 101.8 800.302 107.2H777.002Z" fill="#E5C37D"/>
<path d="M723.102 149.1C713.202 151.1 697.302 149.7 690.602 144.5V128C697.702 133.5 709.102 139.4 717.602 133.9C722.502 130.7 722.702 118.9 715.402 112C708.602 105.6 692.602 99.2 692.402 84.4C692.402 73.6 696.002 63 706.702 58.6C716.902 54.4 728.102 56.2 738.902 58V75.7C733.602 66.6 716.602 65.5 711.402 71.5C699.702 85.1 721.702 95.1 733.202 108.2C745.002 121.6 741.502 145.5 723.102 149.1Z" fill="#E5C37D"/>
<path d="M497.101 58.8C482.801 54.4 465.701 54.2 452.801 60.5C431.901 70.8 422.001 93 427.201 114.1C432.301 135 451.001 150.6 473.701 150.9C492.301 151.1 511.101 143 518.901 125.2C528.201 104.1 523.901 67 497.101 58.8ZM498.401 123.9C490.701 136.6 475.901 139.5 464.401 131.9C447.201 120.6 442.201 97.1 453.501 80.4C462.201 67.6 477.401 65.8 489.601 75.4C503.501 86.4 508.201 107.9 498.401 123.8V123.9Z" fill="#E5C37D"/>
<path d="M392.4 108.6C405.6 105.3 413 95.2 412.4 82.5C411.8 70.3 403.7 58.8 390.2 57.6C377.2 56.4 362.8 56.8 350 56.8C350 56.8 353.1 59.2 353.1 63.1L352.7 143.7C352.7 146.6 350 150.2 350 150.2H373.8V110.5C393.3 144.8 394.5 150.2 422.9 150.2C412.2 136.4 401.7 123.3 392.4 108.4V108.6ZM373.8 99.5V71.3C379.9 70 393.3 72.7 393.3 85.5C393.3 98.3 379.3 100.6 373.8 99.5Z" fill="#E5C37D"/>
<path d="M336.698 75.5C330.298 53.2 303.998 57.1 278.898 56.9C278.898 56.9 279.898 59.1 279.898 63L279.698 138.9C279.698 141.7 279.898 150.3 277.898 150.3H301.898C301.898 150.3 300.398 150.3 300.398 144.8C300.398 135.7 300.398 126.7 300.498 113.5C310.398 114 323.698 110.7 331.598 103.1C338.798 96.2 339.298 85.1 336.498 75.5H336.698ZM300.098 100.4V72.2C306.198 70.9 319.598 73.6 319.598 86.4C319.598 99.2 305.598 101.5 300.098 100.4Z" fill="#E5C37D"/>
<path d="M635.002 59.3L632.602 61.6V56.9H637.402L635.002 59.3Z" fill="#E5C37D"/>
<path d="M673.701 59.3L671.301 61.6V56.9H676.101L673.701 59.3Z" fill="#E5C37D"/>
<path d="M650.798 59.3L653.198 61.6V56.9H648.398L650.798 59.3Z" fill="#E5C37D"/>
<path d="M673.701 147.9L671.301 145.6V150.3H676.101L673.701 147.9Z" fill="#E5C37D"/>
<path d="M650.798 147.9L653.198 145.6V150.3H648.398L650.798 147.9Z" fill="#E5C37D"/>
<path d="M155.002 181.2V166C155.002 163.7 154.902 161.8 154.702 160.3C154.502 158.8 154.102 157.2 153.602 155.5H161.302C166.602 155.5 170.602 156.4 173.502 158.3C176.302 160.2 177.802 162.8 177.802 166.3C177.802 169.8 176.202 171.9 173.102 173.7C172.102 174.3 171.002 174.8 169.802 175.2L172.802 179.1C174.202 180.9 175.802 182.8 177.502 184.6C179.202 186.4 181.602 188.8 184.502 191.7H177.102C175.002 190.1 172.502 187.9 169.702 184.9C166.902 182 164.502 179.1 162.502 176.5L161.402 175V181.2C161.402 183.5 161.502 185.4 161.702 186.9C161.902 188.4 162.302 190 162.802 191.7H153.702C154.202 190.1 154.602 188.5 154.802 187C155.002 185.5 155.102 183.5 155.102 181.2H155.002ZM161.302 173.6C164.002 173.5 166.202 172.8 167.902 171.5C169.902 170.1 170.802 168.2 170.802 165.9C170.802 163.6 169.902 162.1 168.002 160.8C166.302 159.6 164.002 159 161.202 158.9V173.6H161.302Z" fill="#E5C37D"/>
<path d="M126.302 148.5V137.9H130.102C137.502 137.9 143.502 131.9 143.502 124.5V121.1C143.502 113.7 137.502 107.7 130.102 107.7H108.702C103.002 107.7 98.4023 103.1 98.4023 97.4V97.1H132.502C146.502 97.1 157.802 108.5 157.802 122.4V123C157.802 137 146.402 148.3 132.502 148.3H126.302V148.5Z" fill="#E5C37D"/>
<path d="M106.102 180.7V137.8H106.802C114.302 137.8 120.402 143.9 120.402 151.4V180.7H106.102Z" fill="#E5C37D"/>
<path d="M173.702 102C173.702 100.6 173.402 99.3 173.102 98C167.102 70.5 133.202 60 108.602 66C79.7023 73.1 59.9023 100.5 59.9023 129.9C59.9023 165.3 86.6023 195.5 123.202 195.5C132.102 195.5 143.402 192.9 152.002 188.3V155.7H131.702C131.702 155.7 141.402 160.8 141.402 170.2V181.2C137.702 181.9 133.902 182.3 130.002 182.3C98.9023 182.3 73.6023 158.9 73.6023 130.1C73.6023 86.9 121.802 66.2 156.102 88.4C161.602 92 166.502 96.4 170.502 101.6C171.602 103 172.702 104.5 173.602 106C173.202 105.4 173.602 103 173.602 102.2V102H173.702Z" fill="#E5C37D"/>
<path d="M136.801 237.4C102.801 240 70.5008 226.2 48.8008 199.6C35.8008 183.7 28.0008 164 26.4008 143.5C23.8008 109.5 37.6008 77.2 64.2008 55.5C80.1008 42.5 99.8008 34.7 120.301 33.2C154.301 30.6 186.601 44.4 208.301 71C221.301 86.9 229.101 106.6 230.601 127.1C233.201 161.1 219.401 193.4 192.801 215.1C176.901 228.1 157.201 235.9 136.701 237.4M139.001 49.2C108.601 45.7 79.5008 57.7 60.4008 81.7C50.6008 94.1 44.4008 109.1 42.5008 124.8C39.0008 155.2 51.0008 184.3 75.0008 203.4C87.4008 213.2 102.401 219.4 118.101 221.3C148.501 224.8 177.601 212.8 196.701 188.8C206.501 176.4 212.701 161.4 214.601 145.7C218.101 115.3 206.101 86.2 182.101 67.1C169.701 57.3 154.701 51.1 139.001 49.2Z" fill="#E5C37D"/>
<path d="M308.8 200.7C307.2 200.7 306.3 201.5 306.3 203V211.2C304 214.2 299.4 217.6 291.9 217.6C281.3 217.6 274 210.3 274 199.5C274 188.7 281.3 181.4 291.9 181.4C302.5 181.4 301 182.9 304 184.8L305 191.8H304.6C303.1 186.1 298.5 182.9 292 182.9C285.5 182.9 277.8 189.6 277.8 199.5C277.8 209.4 283.5 216.1 292 216.1C296.3 216.1 300.4 214.4 303.2 211.8V203C303.2 201.5 302.2 200.7 300.6 200.7H299.8V200.2H309.6V200.7H308.9H308.8Z" fill="#E5C37D" stroke="#E5C37D" stroke-miterlimit="10"/>
<path d="M350.101 199.5C350.101 210.4 342.801 217.6 332.201 217.6C321.601 217.6 314.301 210.4 314.301 199.5C314.301 188.6 321.601 181.4 332.201 181.4C342.801 181.4 350.101 188.6 350.101 199.5ZM346.301 199.5C346.301 189.5 340.701 182.9 332.201 182.9C323.701 182.9 318.101 189.6 318.101 199.5C318.101 209.4 323.701 216.1 332.201 216.1C340.701 216.1 346.301 209.4 346.301 199.5Z" fill="#E5C37D" stroke="#E5C37D" stroke-miterlimit="10"/>
<path d="M378.102 208.9L375.202 216.9H354.602V216.4H355.202C356.902 216.4 358.402 215 358.402 213.3V185.7C358.402 184 357.002 182.6 355.202 182.6H354.602V182.1H365.502V182.6H364.902C363.202 182.6 361.702 184 361.702 185.7V215.4H368.802C374.102 215.4 376.102 212.7 377.602 208.9H378.102Z" fill="#E5C37D" stroke="#E5C37D" stroke-miterlimit="10"/>
<path d="M398.599 182.1C409.199 182.1 416.499 189.1 416.499 199.5C416.499 209.9 409.299 216.9 398.599 216.9H381.699V216.4H382.299C383.999 216.4 385.499 215 385.499 213.3V185.4C385.499 183.8 383.999 182.6 382.299 182.6H381.699V182.1H398.499H398.599ZM388.799 215.4H398.599C407.099 215.4 412.699 209 412.699 199.5C412.699 190 406.999 183.6 398.599 183.6H388.799V215.4Z" fill="#E5C37D" stroke="#E5C37D" stroke-miterlimit="10"/>
<path d="M447.799 182.1C453.799 182.1 457.499 185.7 457.499 191.5C457.499 196.3 453.799 201 448.999 201C450.099 201.5 451.599 203.1 452.599 204.5C452.599 204.5 456.899 210.6 458.799 212.7C460.799 214.9 462.599 216.4 465.599 216.5V217H462.899C458.299 217 455.799 214.5 454.199 212.6C453.599 211.9 447.999 203.8 447.599 203.3C446.299 201.7 444.799 199.9 442.999 199.9V199.4C442.999 199.4 444.099 199.4 445.599 199.4C448.199 199.4 451.999 198.7 453.399 194.2C453.599 193.5 453.699 192.3 453.699 191.2C453.599 186.7 451.199 183.8 447.499 183.6C444.999 183.5 441.899 183.6 441.299 183.6V213.3C441.299 215 442.699 216.4 444.499 216.4H445.099V216.9H434.199V216.4H434.799C436.499 216.4 437.899 215 437.999 213.3V185.7C437.999 184 436.599 182.6 434.799 182.6H434.199V182.1H447.599H447.799Z" fill="#E5C37D" stroke="#E5C37D" stroke-miterlimit="10"/>
<path d="M487.299 216.9H466.699V216.4H467.299C468.999 216.4 470.499 215 470.499 213.3V185.4C470.299 183.8 468.999 182.5 467.299 182.5H466.699V182H481.199C483.299 182 486.199 181.5 487.099 181.1V187.4H486.599V186.5C486.599 184.9 485.399 183.6 483.799 183.5H473.599V198.9H481.999C483.299 198.9 484.399 197.8 484.399 196.4V195.7H484.899V203.6H484.399V202.9C484.399 201.6 483.399 200.5 481.999 200.4H473.499V215.3H480.599C485.899 215.3 487.899 212.6 489.399 208.8H489.899L486.999 216.8L487.299 216.9Z" fill="#E5C37D" stroke="#E5C37D" stroke-miterlimit="10"/>
<path d="M515.401 182.6V186.8H514.901V186.1C514.901 184.8 513.801 183.7 512.501 183.6H502.001V199H510.401C511.701 199 512.801 197.9 512.801 196.5V195.8H513.301V203.7H512.801V203C512.801 201.7 511.801 200.6 510.401 200.5H501.901V213.3C501.901 215 503.301 216.4 505.101 216.4H505.701V216.9H494.801V216.4H495.401C497.101 216.4 498.601 215 498.601 213.3V185.4C498.601 183.8 497.101 182.5 495.401 182.5H494.801V182H509.301C511.401 182 514.301 181.5 515.201 181.1V182.6H515.401Z" fill="#E5C37D" stroke="#E5C37D" stroke-miterlimit="10"/>
<path d="M532.701 216.9H521.801V216.4H522.401C524.101 216.4 525.601 215 525.601 213.3V185.7C525.601 184 524.101 182.6 522.401 182.6H521.801V182.1H532.701V182.6H532.101C530.401 182.6 529.001 184 528.901 185.7V213.3C528.901 215 530.301 216.4 532.101 216.4H532.701V216.9Z" fill="#E5C37D" stroke="#E5C37D" stroke-miterlimit="10"/>
<path d="M575.298 182.1V182.6H574.398C572.698 182.6 571.398 183.9 571.298 185.6V211.3C571.298 214.5 571.798 217.7 571.798 217.7H571.298L544.098 188.7V213.5C544.098 215.2 545.498 216.5 547.198 216.5H548.098V217H537.898V216.5H538.798C540.498 216.5 541.798 215.2 541.898 213.5V187.6C541.898 184.2 541.398 181.4 541.398 181.4H541.898L568.998 210.4V185.7C568.998 184 567.598 182.7 565.898 182.7H564.998V182.2H575.298V182.1Z" fill="#E5C37D" stroke="#E5C37D" stroke-miterlimit="10"/>
<path d="M600.6 216.9H580V216.4H580.6C582.3 216.4 583.8 215 583.8 213.3V185.4C583.6 183.8 582.3 182.5 580.6 182.5H580V182H594.5C596.6 182 599.5 181.5 600.4 181.1V187.4H599.9V186.5C599.9 184.9 598.7 183.6 597.1 183.5H586.9V198.9H595.3C596.6 198.9 597.7 197.8 597.7 196.4V195.7H598.2V203.6H597.7V202.9C597.7 201.6 596.7 200.5 595.3 200.4H586.8V215.3H593.9C599.2 215.3 601.2 212.6 602.7 208.8H603.2L600.3 216.8L600.6 216.9Z" fill="#E5C37D" stroke="#E5C37D" stroke-miterlimit="10"/>
<path d="M621.702 182.1C627.702 182.1 631.402 185.7 631.402 191.5C631.402 197.3 627.702 201 622.902 201C624.002 201.5 625.502 203.1 626.502 204.5C626.502 204.5 630.802 210.6 632.702 212.7C634.702 214.9 636.502 216.4 639.502 216.5V217H636.802C632.202 217 629.702 214.5 628.102 212.6C627.502 211.9 621.902 203.8 621.502 203.3C620.202 201.7 618.702 199.9 616.902 199.9V199.4C616.902 199.4 618.002 199.4 619.502 199.4C622.102 199.4 625.902 198.7 627.302 194.2C627.502 193.5 627.602 192.3 627.602 191.2C627.502 186.7 625.102 183.8 621.402 183.6C618.902 183.5 615.802 183.6 615.202 183.6V213.3C615.202 215 616.602 216.4 618.402 216.4H619.002V216.9H608.102V216.4H608.702C610.402 216.4 611.802 215 611.902 213.3V185.7C611.902 184 610.502 182.6 608.702 182.6H608.102V182.1H621.502H621.702Z" fill="#E5C37D" stroke="#E5C37D" stroke-miterlimit="10"/>
<path d="M668.898 182.1V182.6H668.198C666.098 182.6 664.298 184 663.198 185.5L653.398 201.4V213.3C653.398 215 654.798 216.4 656.598 216.4H657.198V216.9H646.298V216.4H646.898C648.598 216.4 649.998 215 650.098 213.3V201.3L640.598 185.5C639.598 184 637.698 182.6 635.598 182.6H634.898V182.1H647.098V182.6H646.498C644.998 182.6 643.998 184.3 644.798 185.7L652.298 199.6L660.198 185.7C660.998 184.3 659.798 182.6 658.398 182.6H657.798V182.1H668.798H668.898Z" fill="#E5C37D" stroke="#E5C37D" stroke-miterlimit="10"/>
<path d="M708.701 180.9C704.701 182.8 701.201 190.9 701.301 200.2C701.401 210 704.901 218.8 708.601 221.4L708.301 221.8C702.801 218.9 697.901 209.9 697.801 200.2C697.801 190.6 702.601 182.4 708.401 180.4L708.701 180.8V180.9Z" fill="#E5C37D" stroke="#E5C37D" stroke-miterlimit="10"/>
<path d="M733.6 182.6V186.8H733.1V186.1C733.1 184.8 732 183.7 730.7 183.6H720.2V199H728.6C729.9 199 731 197.9 731 196.5V195.8H731.5V203.7H731V203C731 201.7 730 200.6 728.6 200.5H720.1V213.3C720.1 215 721.5 216.4 723.3 216.4H723.9V216.9H713V216.4H713.6C715.3 216.4 716.8 215 716.8 213.3V185.4C716.8 183.8 715.3 182.5 713.6 182.5H713V182H727.5C729.6 182 732.5 181.5 733.4 181.1V182.6H733.6Z" fill="#E5C37D" stroke="#E5C37D" stroke-miterlimit="10"/>
<path d="M766.1 216.9H740V216.4L760.9 183.5H744.1C742.5 183.5 741.2 184.8 741.2 186.5V187.4H740.7V183.4V181.1C741.6 181.5 744.6 182 746.8 182H760.6C762.6 182 765.3 181.7 765.9 181.4V181.8L744.6 215.4H760.4C764.1 215.4 766.3 212.7 767.2 209.2H767.7L766 216.9H766.1Z" fill="#E5C37D" stroke="#E5C37D" stroke-miterlimit="10"/>
<path d="M793.1 216.9H772.5V216.4H773.1C774.8 216.4 776.3 215 776.3 213.3V185.4C776.1 183.8 774.8 182.5 773.1 182.5H772.5V182H787C789.1 182 792 181.5 792.9 181.1V187.4H792.4V186.5C792.4 184.9 791.2 183.6 789.6 183.5H779.4V198.9H787.8C789.1 198.9 790.2 197.8 790.2 196.4V195.7H790.7V203.6H790.2V202.9C790.2 201.6 789.2 200.5 787.8 200.4H779.3V215.3H786.4C791.7 215.3 793.7 212.6 795.2 208.8H795.7L792.8 216.8L793.1 216.9Z" fill="#E5C37D" stroke="#E5C37D" stroke-miterlimit="10"/>
<path d="M799.799 221.5C803.499 218.9 806.999 210.1 807.099 200.3C807.199 190.9 803.699 182.9 799.699 181L799.999 180.6C805.699 182.6 810.699 190.8 810.599 200.4C810.599 210.1 805.599 219.1 800.099 222L799.799 221.6V221.5Z" fill="#E5C37D" stroke="#E5C37D" stroke-miterlimit="10"/>
</svg>
