<svg width="828" height="220" viewBox="0 0 828 220" fill="none" xmlns="http://www.w3.org/2000/svg">
<g clip-path="url(#clip0_2143_2)">
<path d="M620.6 116.3C612.1 116.3 606.2 116.3 597.4 116.3C597.4 116.3 598.6 115.3 598.6 114.9V60.8C586.5 75 582.7 79.3 571.9 90.8L545.5 58.8C545.5 75.4 545.5 107.2 545.5 114C545.5 114.8 547.2 116.3 547.2 116.3C541 116.3 522.5 116.3 522.9 116.3C523.3 116.3 525 114.5 525 114.5V27.4L522.5 22.9H545.6L571.7 63.6C571.7 63.6 591.4 35.4 598.7 22.9H621.9C620.8 24.9 619.6 27.4 619.6 27.4C619.6 50 619.6 101.7 619.6 114.5C619.6 115.3 620.6 116.3 620.6 116.3Z" fill="#E5C37D"/>
<path d="M638.202 116.3C646.702 116.3 651.202 116.3 659.702 116.3C659.702 116.3 658.902 115.2 658.902 114.7C658.902 102 659.102 38.7 658.902 22.9H638.102" fill="#E5C37D"/>
<path d="M763.002 73.2V101C778.202 101 784.602 101.6 797.602 98.8C793.502 110 794.102 108.3 790.602 116.3C781.202 116.3 743.402 116.3 741.102 116.3C741.102 116.3 742.202 116.3 742.202 109.2V40C742.202 34.1 742.502 28.6 741.102 22.8C761.502 22.8 775.702 22.8 794.002 22.8C790.602 31.2 789.302 34.3 786.502 40.1C780.002 38 777.702 37.7 763.002 37.8C763.002 50.1 763.202 55.1 763.202 61.4H792.502C789.802 67.1 789.502 67.8 786.302 73.2H763.002Z" fill="#E5C37D"/>
<path d="M709.102 115.1C699.202 117.1 683.302 115.7 676.602 110.5V94C683.702 99.5 695.102 105.4 703.602 99.9C708.502 96.7 708.702 84.9 701.402 78C694.602 71.6 678.602 65.2 678.402 50.4C678.302 39.6 682.002 29 692.702 24.6C702.902 20.4 714.102 22.2 724.902 24V41.7C719.602 32.6 702.602 31.5 697.402 37.5C685.702 51.1 707.702 61.1 719.202 74.2C731.002 87.6 727.502 111.5 709.102 115.1Z" fill="#E5C37D"/>
<path d="M483.101 24.8C468.801 20.4 451.701 20.2 438.801 26.5C417.901 36.8 408.001 59 413.201 80.1C418.301 101 437.001 116.6 459.701 116.9C478.301 117.1 497.101 109 504.901 91.2C514.201 70.1 509.901 33 483.101 24.8ZM484.401 89.9C476.701 102.6 461.901 105.5 450.401 97.9C433.201 86.6 428.201 63.1 439.501 46.4C448.201 33.6 463.401 31.8 475.601 41.4C489.501 52.4 494.201 73.9 484.401 89.8V89.9Z" fill="#E5C37D"/>
<path d="M378.4 74.6C391.6 71.3 399 61.2 398.4 48.5C397.8 36.3 389.7 24.8 376.2 23.6C363.2 22.4 348.8 22.8 336 22.8C336 22.8 339.1 25.2 339.1 29.1L338.7 109.7C338.7 112.6 336 116.2 336 116.2C343.7 116.2 353.5 116.2 359.8 116.2V76.5C379.3 110.8 380.5 116.2 408.9 116.2C398.2 102.4 387.7 89.3 378.4 74.4V74.6ZM359.8 65.5C359.8 56.6 359.8 49.7 359.8 37.3C365.9 36 379.3 38.7 379.3 51.5C379.3 61.7 365.3 66.6 359.8 65.5Z" fill="#E5C37D"/>
<path d="M322.698 41.5C316.298 19.2 289.998 23.1 264.898 22.9C264.898 22.9 265.898 25.1 265.898 29L265.698 104.9C265.698 107.7 265.898 116.3 263.898 116.3C271.298 116.3 280.098 116.3 287.898 116.3C287.898 116.3 286.398 116.3 286.398 110.8C286.398 101.7 286.398 92.7 286.498 79.5C296.398 80 309.698 76.7 317.598 69.1C324.798 62.2 325.298 51.1 322.498 41.5H322.698ZM286.098 66.4C286.098 57.5 286.098 50.6 286.098 38.2C292.198 36.9 305.598 39.6 305.598 52.4C305.598 65.2 291.598 67.5 286.098 66.4Z" fill="#E5C37D"/>
<path d="M292.498 174.6C292.498 173.6 292.498 172.5 292.498 171.5C291.698 171.5 290.898 171.5 290.798 171.5C290.598 171.5 289.198 171.5 287.698 171.4V172.3C288.898 172.8 288.998 173.5 288.998 176.5V183.7C288.998 184.4 288.698 184.9 288.098 185.2C286.998 185.8 284.798 186.1 283.198 186.1C279.298 186.1 275.398 184.8 271.998 181.5C270.498 180.1 267.498 175.7 267.498 169.7C267.498 163.7 269.198 160.8 271.698 158.9C274.898 156.3 278.098 156.1 280.798 156.1C286.298 156.1 289.698 157.9 290.798 159.5C291.398 160.5 291.698 161.7 291.698 162.3C291.698 162.7 291.698 162.9 291.998 162.9C292.298 162.9 292.198 162.9 292.298 162.7C292.298 160.3 292.298 158 292.298 155.6C292.298 155.6 292.298 155.6 292.198 155.6C291.098 155.6 289.598 155.4 288.798 155.2C287.998 155 284.998 154.5 282.298 154.5C279.598 154.5 274.798 154.8 270.998 157.2C267.198 159.6 263.898 164.4 263.898 171.2C263.898 178 266.398 181.1 268.998 183.3C273.698 187.4 279.798 187.9 282.998 187.9C286.198 187.9 289.298 187.4 291.998 186C292.498 185.7 292.598 185.6 292.598 183.7V178.9C292.598 178.4 292.598 178.1 292.598 177.7C292.598 176.6 292.498 175.6 292.498 174.5V174.6Z" fill="#E5C37D" stroke="#E5C37D" stroke-miterlimit="10"/>
<path d="M301.699 171.2C301.699 164.3 306.699 154.6 318.499 154.6C330.299 154.6 335.199 160.6 335.199 170.6C335.199 180.6 328.499 188 318.199 188C307.899 188 301.699 178.9 301.699 171.3V171.2ZM331.199 171.7C331.199 161.5 324.999 156 318.299 156C311.599 156 305.899 160.7 305.899 170C305.899 179.3 311.899 186.3 319.499 186.3C327.099 186.3 331.299 184.1 331.299 171.7H331.199Z" fill="#E5C37D" stroke="#E5C37D" stroke-miterlimit="10"/>
<path d="M362.302 181.4C362.002 181.4 362.002 181.6 361.902 182C361.802 182.8 361.302 183.9 360.802 184.6C359.802 185.8 357.902 185.9 355.702 185.9C352.402 185.9 351.302 185.6 350.602 184.9C349.802 184.1 349.702 181.4 349.702 175.2V167.6C349.702 161.2 349.702 159.9 349.702 158.5V155.3C348.802 155.3 347.902 155.3 347.802 155.3C347.702 155.3 346.802 155.3 345.802 155.3V157.5C345.802 157.8 345.902 158 346.002 158.4C346.002 159.8 346.002 161 346.002 167.6V175.1C346.002 179.2 346.002 182.5 345.802 184.3C345.602 185.5 345.402 186.5 344.602 186.6V187.3C345.802 187.3 346.802 187.2 347.902 187.2C352.002 187.2 355.602 187.5 359.302 187.5C363.002 187.5 361.702 187.3 362.002 186.4C362.302 185.2 362.602 182.6 362.602 182.1C362.602 181.6 362.602 181.5 362.302 181.5V181.4Z" fill="#E5C37D" stroke="#E5C37D" stroke-miterlimit="10"/>
<path d="M396.402 160C391.302 154.8 383.502 155.1 379.302 155.1C375.102 155.1 374.102 155.2 373.602 155.2C373.102 155.2 371.902 155.2 370.402 155.1V155.9C371.402 156.2 371.702 156.9 371.702 158.2C371.702 159.6 371.702 160.8 371.702 167.4V174.9C371.702 179 371.702 182.3 371.502 184.1C371.302 185.3 371.102 186.3 370.302 186.4H370.102V187.1C370.702 187.1 371.302 187.1 371.902 187.1C372.802 187.1 373.502 187.1 373.602 187.1C373.802 187.1 375.302 187.2 377.102 187.4C378.902 187.5 381.202 187.7 383.002 187.7C390.202 187.7 394.102 184.7 395.902 182.8C398.302 180.3 400.502 176.2 400.502 170.8C400.502 165.4 398.502 162.2 396.402 160ZM393.302 182.3C390.802 184.8 387.102 186.3 383.202 186.3C379.302 186.3 376.502 185.4 376.002 184.6C375.702 184.1 375.602 182.4 375.502 181.4C375.502 180.6 375.502 176.7 375.502 172.2V166.9C375.502 163.6 375.502 159.3 375.502 157.8C375.502 157.3 375.602 157.1 376.002 156.9C376.302 156.7 377.902 156.6 378.802 156.6C383.902 156.6 388.702 157.2 392.702 161.4C394.402 163.2 396.802 166.7 396.802 172.1C396.802 177.5 395.602 180.1 393.402 182.3H393.302Z" fill="#E5C37D" stroke="#E5C37D" stroke-miterlimit="10"/>
<path d="M452.402 186.4C451.302 186.1 449.802 185.4 448.102 183.5C445.602 180.9 442.702 177.1 439.202 172.6C443.002 169.1 444.302 165.9 444.302 162.8C444.302 159.7 442.402 157.8 441.402 157C439.102 155.4 436.302 155.1 433.602 155.1C430.902 155.1 429.002 155.2 428.602 155.2C428.202 155.2 427.502 155.2 426.302 155.2V156.6C426.602 157 426.702 157.5 426.702 158.3C426.702 159.7 426.702 160.9 426.702 167.5V175C426.702 179.1 426.702 182.4 426.502 184.2C426.402 185.3 426.202 186.1 425.602 186.4V187.3C426.902 187.3 428.302 187.2 428.402 187.2C428.502 187.2 429.602 187.2 431.002 187.2C431.002 186.8 431.002 186.3 431.002 185.9C430.602 185.5 430.502 184.9 430.402 184.1C430.202 182.3 430.202 179 430.202 174.9V173.9C430.202 173.7 430.202 173.6 430.502 173.6H435.702C436.002 173.6 436.102 173.8 436.302 173.9C437.202 175 439.102 177.9 440.902 180.2C443.302 183.4 444.802 185.5 446.602 186.5C447.702 187.1 448.802 187.3 451.202 187.3H452.302V186.4H452.402ZM435.002 172.4C433.102 172.4 431.202 172.1 430.502 171.7C430.302 171.6 430.202 171.4 430.202 171.2V157.3C430.202 157 430.302 156.9 430.502 156.8C430.902 156.7 432.102 156.5 433.302 156.5C437.902 156.5 440.702 159.7 440.702 165C440.702 170.3 439.602 170.5 438.102 171.6C437.102 172.3 435.902 172.4 434.902 172.4H435.002Z" fill="#E5C37D" stroke="#E5C37D" stroke-miterlimit="10"/>
<path d="M472.401 185.4C471.301 185.7 469.801 185.8 468.601 185.8C467.401 185.8 465.801 185.8 465.101 185.4C464.001 185 463.801 184 463.701 182.3C463.701 181.4 463.701 176.5 463.701 175V171.3C463.701 171.1 463.701 171 464.001 171C464.701 171 468.901 171 470.101 171.2C471.601 171.4 472.101 172 472.301 172.6C472.301 172.7 472.301 172.9 472.301 173H473.101C473.101 172.4 473.101 171.8 473.201 171C473.201 170.3 473.301 169.9 473.401 169.5C473.401 169.5 473.401 169.5 473.301 169.5C472.401 169.5 471.601 169.5 470.701 169.5C469.701 169.5 464.501 169.5 463.901 169.5C463.301 169.5 463.601 169.4 463.601 169.1V157.4C463.601 157.1 463.601 157 463.901 157C464.401 157 469.001 157 469.701 157.1C471.601 157.3 472.501 157.7 472.801 158.7C472.901 159 473.001 159.6 473.001 160.1C473.001 160.6 473.001 160.7 473.301 160.7C473.601 160.7 473.601 160.4 473.601 160C473.601 158.9 473.701 158.1 473.801 157.4C473.801 156.3 474.101 155.8 474.101 155.5H468.701C468.701 155.5 468.701 155.5 468.601 155.5C465.801 155.5 461.901 155.5 461.701 155.5C460.501 155.5 459.601 155.5 458.901 155.4V156.5C459.501 156.9 459.701 157.5 459.801 158.6C459.801 160 459.801 161.2 459.801 167.8V175.3C459.801 179.1 459.801 181.3 459.801 182.9C459.801 185.5 459.401 186.3 458.801 186.7V187.6C459.401 187.6 460.101 187.6 460.701 187.6C462.401 187.6 464.301 187.6 466.001 187.7C467.701 187.7 469.101 187.8 472.201 187.8C475.301 187.8 474.201 187.8 474.501 186.7C474.701 186.1 474.901 184.4 475.001 183.4H474.201C473.901 184.7 473.401 185.4 472.201 185.7L472.401 185.4Z" fill="#E5C37D" stroke="#E5C37D" stroke-miterlimit="10"/>
<path d="M500.902 154.8C500.902 154.8 500.602 154.8 500.502 155C500.202 155.2 499.402 155.2 498.402 155.3C497.402 155.4 488.802 155.3 487.902 155.3C487.002 155.3 485.702 155.3 484.502 155.3V156.1C485.602 156.4 485.902 157.1 486.002 158.4C486.002 159.8 486.002 161 486.002 167.6V175.1C486.002 179.1 486.002 182.1 485.802 183.9C485.702 185.8 485.402 186.4 484.502 186.7C484.402 186.7 484.202 186.7 484.102 186.7V187.4C485.202 187.4 486.702 187.4 487.402 187.3H487.802C487.902 187.3 489.302 187.3 490.902 187.3V186.4C490.202 186 489.802 185.2 489.702 183.6C489.602 181.6 489.602 178.6 489.602 175V171.4C489.602 171.1 489.602 171 489.902 171C490.602 171 495.302 171 496.302 171.1C498.002 171.3 498.502 172.2 498.602 173.1H499.402C499.402 172.5 499.402 171.8 499.502 170.9C499.502 170.1 499.702 169.7 499.702 169.3H497.802C497.302 169.3 496.702 169.4 495.702 169.4C494.002 169.4 491.502 169.4 489.802 169.4C488.102 169.4 489.502 169.3 489.502 169V157.3C489.502 157 489.602 156.8 489.902 156.8C492.102 156.8 494.202 156.8 496.402 156.9C497.602 156.9 498.402 157.3 498.902 157.7C499.002 157.8 499.102 158 499.102 158.1H500.402C500.402 157.6 500.402 157.1 500.602 156.4C500.602 155.9 500.902 155.3 500.902 155.1C500.902 154.9 500.902 154.7 500.602 154.7L500.902 154.8Z" fill="#E5C37D" stroke="#E5C37D" stroke-miterlimit="10"/>
<path d="M517.499 186.6C516.199 186.4 515.999 185.5 515.799 184.3C515.599 182.5 515.599 179.2 515.599 175.1V167.6C515.599 161 515.599 159.8 515.599 158.4C515.599 157.1 515.999 156.4 516.799 156.1V155.3C515.499 155.3 513.899 155.4 513.699 155.4C513.499 155.4 512.299 155.4 510.999 155.4V156.4C511.499 156.8 511.799 157.4 511.799 158.5C511.799 159.9 511.799 161.1 511.799 167.7V175.2C511.799 179.3 511.799 182.6 511.599 184.4C511.399 185.6 511.199 186.6 510.299 186.8C510.299 186.8 510.299 186.8 510.199 186.8V187.5C511.599 187.5 513.399 187.4 513.599 187.4C513.799 187.4 515.499 187.4 517.399 187.5V186.8C517.399 186.8 517.299 186.8 517.199 186.8L517.499 186.6Z" fill="#E5C37D" stroke="#E5C37D" stroke-miterlimit="10"/>
<path d="M558.299 168.7V167.2C558.299 166.9 558.299 166.6 558.299 166.3C558.299 164.8 558.299 163.3 558.299 161.7V155.2C557.699 155.2 557.299 155.2 557.099 155.2C556.799 155.2 555.499 155.2 554.099 155.1V155.9C554.099 155.9 554.099 155.9 554.199 155.9C555.499 156.2 555.799 157.2 555.899 159.9L556.399 181.5C554.999 180.1 550.399 174.9 546.199 170.4C539.599 163.4 533.299 156.5 532.699 155.8C532.299 155.4 531.599 154.4 531.199 154.4C530.799 154.4 530.699 154.9 530.699 156.5C530.699 164.8 530.699 159.2 530.699 174.6V180.9C530.699 184.8 530.499 186 529.399 186.3C529.399 186.3 529.299 186.3 529.199 186.3C529.199 186.6 529.199 186.8 529.199 187.1C530.599 187.1 531.799 187 532.099 187C532.399 187 532.599 187 533.199 187V177.9L532.699 160.9C534.099 162.4 538.899 167.8 543.799 173.1C548.299 178 554.399 184.2 554.899 184.6C557.199 186.9 557.699 187.3 557.999 187.3C558.299 187.3 558.399 187.1 558.399 184.3V170.8C558.299 170.4 558.199 170 558.399 169.5C558.499 169.1 558.399 168.7 558.499 168.3L558.299 168.7Z" fill="#E5C37D" stroke="#E5C37D" stroke-miterlimit="10"/>
<path d="M585.7 185.4C584.6 185.7 583.1 185.8 581.9 185.8C580.7 185.8 579.1 185.8 578.4 185.4C577.3 185 577.1 184 577 182.3C577 181.4 577 176.5 577 175V171.3C577 171.1 577 171 577.3 171C578 171 582.2 171 583.4 171.2C584.9 171.4 585.4 172 585.6 172.6C585.7 173 585.8 173.4 585.8 173.8C585.8 174.2 585.8 174.5 586.1 174.5C586.4 174.5 586.4 174.3 586.4 173.9C586.4 173.3 586.4 172.3 586.6 171C586.6 170.2 586.8 169.7 586.8 169.3H585C584.7 169.3 584.4 169.3 584.1 169.4C583.1 169.4 577.9 169.4 577.3 169.4C576.7 169.4 577 169.3 577 169V157.3C577 157 577 156.9 577.3 156.9C577.8 156.9 582.4 156.9 583.1 157C585 157.2 585.9 157.6 586.2 158.6C586.2 158.8 586.3 159 586.4 159.2H587.2C587.2 158.4 587.2 157.7 587.3 157.2C587.3 156 587.6 155.5 587.6 155.2C587.6 154.9 587.6 154.8 587.4 154.8C587.2 154.8 587.2 154.8 586.9 155C586.6 155.1 585.9 155.2 584.9 155.3C583.9 155.3 575.4 155.3 575.2 155.3C573.4 155.3 572.3 155.2 571.5 155.2V155.9C572.9 156.2 573.2 156.9 573.3 158.3C573.3 159.7 573.3 160.9 573.3 167.5V175C573.3 178.8 573.3 181 573.3 182.6C573.3 185.8 572.7 186.4 571.8 186.6V187.3C572.6 187.3 573.4 187.2 574.2 187.2C575.9 187.2 577.8 187.2 579.5 187.3C581.2 187.3 582.6 187.4 585.7 187.4C588.8 187.4 587.7 187.4 588 186.3C588.1 185.8 588.3 184.9 588.4 184H587.4C587.1 184.7 586.6 185.1 585.8 185.4H585.7Z" fill="#E5C37D" stroke="#E5C37D" stroke-miterlimit="10"/>
<path d="M625.401 186.5C624.301 186.3 622.701 185.7 620.701 183.5C618.201 180.9 615.301 177.1 611.801 172.6C615.601 169.1 617.001 165.9 617.001 162.8C617.001 159.7 615.101 157.8 614.101 157C611.801 155.4 609.001 155.1 606.301 155.1C603.601 155.1 601.701 155.2 601.301 155.2C600.901 155.2 599.601 155.2 598.101 155.1V156C599.101 156.4 599.401 157 599.401 158.3C599.401 159.7 599.401 160.9 599.401 167.5V175C599.401 179.1 599.401 182.4 599.201 184.2C599.001 185.4 598.801 186.4 598.001 186.5C598.001 186.5 597.901 186.5 597.801 186.5V187.2C599.201 187.2 601.001 187.1 601.101 187.1C601.301 187.1 602.901 187.1 604.601 187.2V186.4C603.401 186.2 603.201 185.3 603.101 184.1C602.901 182.3 602.901 179 602.901 174.9V173.9C602.901 173.7 602.901 173.6 603.201 173.6H608.401C608.701 173.6 608.801 173.8 609.001 173.9C609.801 175 611.801 177.9 613.601 180.2C616.001 183.4 617.501 185.5 619.301 186.5C620.401 187.1 621.501 187.3 623.901 187.3H625.401V186.5ZM607.601 172.4C605.701 172.4 603.801 172.1 603.101 171.7C602.901 171.6 602.801 171.4 602.801 171.2V157.3C602.801 157 602.901 156.9 603.101 156.8C603.501 156.7 604.701 156.5 605.901 156.5C610.501 156.5 613.301 159.7 613.301 165C613.301 170.3 612.201 170.5 610.701 171.6C609.701 172.3 608.501 172.4 607.501 172.4H607.601Z" fill="#E5C37D" stroke="#E5C37D" stroke-miterlimit="10"/>
<path d="M651.498 155.2C650.398 155.2 649.098 155.2 648.898 155.2C648.598 155.2 647.198 155.1 646.098 155.1C644.998 155.1 645.398 155.1 645.398 155.4C645.398 155.7 645.698 155.7 645.998 155.8C646.498 155.9 646.698 156.4 646.698 157C646.698 157.6 646.498 158.3 645.998 159.2C645.198 160.6 639.698 169.9 638.898 171.7C638.098 170.5 631.798 159.5 631.098 158.2C630.798 157.6 630.498 157.1 630.498 156.5C630.498 155.9 630.698 155.9 631.098 155.7C631.498 155.5 631.698 155.5 631.698 155.3C631.698 155.1 631.698 155 631.098 155C629.398 155 627.798 155.1 627.498 155.1C627.198 155.1 625.198 155.1 623.898 155V155.8C624.198 155.9 624.598 156.1 624.998 156.3C625.798 156.8 626.798 157.9 627.898 159.4C629.398 161.6 635.098 171 635.398 171.7C635.998 172.9 636.398 173.9 636.398 176.2V179.9C636.398 180.6 636.398 182.4 636.298 184.2C636.298 185.4 635.798 186.4 634.998 186.5C634.998 186.5 634.798 186.5 634.698 186.5V187.2C636.098 187.2 638.098 187.1 638.298 187.1C638.498 187.1 639.698 187.1 641.198 187.1V186.1C640.498 185.7 640.298 185 640.198 184C640.098 182.2 640.098 180.4 640.098 179.7V176C640.098 174.6 640.098 173.3 640.698 171.7C641.498 169.9 647.398 159.9 648.798 158.2C649.698 157.1 650.198 156.5 651.098 156C651.198 156 651.398 155.9 651.498 155.8V154.8V155.2Z" fill="#E5C37D" stroke="#E5C37D" stroke-miterlimit="10"/>
<path d="M683.602 191.1C683.602 191.2 684.202 191.9 683.602 191.9C683.002 191.9 683.302 191.7 683.102 191.6C679.702 189.1 673.602 183.1 673.602 172.7C673.602 162.3 680.202 156.1 683.102 153.7C683.302 153.6 683.502 153.4 683.702 153.4C684.102 153.4 683.502 154 683.402 154.1C680.202 157.5 676.702 163.6 676.702 172.2C676.702 180.8 679.202 186.7 683.402 191.1H683.602Z" fill="#E5C37D" stroke="#E5C37D" stroke-miterlimit="10"/>
<path d="M703.501 183.6C703.401 181.6 703.401 178.6 703.401 175V171.4C703.401 171.1 703.401 171 703.701 171C704.401 171 709.101 171 710.101 171.1C712.301 171.4 712.401 172.8 712.501 173.7H713.201C713.201 173.5 713.201 173.4 713.201 173.2V169.3C712.901 169.3 712.601 169.2 712.301 169.1C711.801 169.3 711.101 169.3 709.701 169.4C708.001 169.4 705.501 169.4 703.801 169.4C702.101 169.4 703.501 169.3 703.501 169V157.3C703.501 157 703.601 156.8 703.901 156.8C706.101 156.8 708.201 156.8 710.401 156.9C711.601 156.9 712.401 157.3 712.901 157.7C713.101 157.9 713.201 158.1 713.301 158.4V155.1C713.001 155.1 712.601 155.1 712.201 155.1C711.201 155.1 702.601 155.1 701.701 155.1C700.801 155.1 699.901 155.1 699.001 155.1V156.2C699.601 156.6 699.801 157.2 699.901 158.2C699.901 159.6 699.901 160.8 699.901 167.4V174.9C699.901 178.9 699.901 181.9 699.701 183.7C699.601 185.6 699.301 186.2 698.401 186.5C698.101 186.5 697.701 186.6 697.301 186.7C696.901 186.7 696.801 186.8 696.801 187C696.801 187.3 697.001 187.3 697.501 187.3C698.501 187.3 700.401 187.3 701.301 187.2H701.701C701.901 187.2 703.301 187.2 705.001 187.3V186.4C704.101 186.1 703.701 185.2 703.601 183.5L703.501 183.6Z" fill="#E5C37D" stroke="#E5C37D" stroke-miterlimit="10"/>
<path d="M744.902 183C744.902 183.2 744.702 183.3 744.702 183.4C743.802 184.7 742.402 185.5 738.002 185.5H726.402C732.902 175.7 739.302 165.9 745.502 156.1C745.702 155.8 745.702 155.8 745.702 155.6C745.702 155.3 745.502 155.3 744.902 155.3H733.002C731.702 155.3 729.602 155.3 725.602 155.2C724.502 155.2 724.202 154.9 723.802 154.9C723.402 154.9 723.702 154.9 723.602 155V160C724.002 159.2 724.602 158.3 725.602 157.8C727.002 157.1 729.602 156.9 731.702 156.9H740.902C735.002 166.5 728.602 176.1 722.202 185.7C721.702 186.5 721.602 186.7 721.602 186.9C721.602 187.1 721.902 187.2 722.402 187.2C729.902 187.2 737.002 187.4 744.102 187.4C751.202 187.4 744.702 187.4 744.902 187.3V183Z" fill="#E5C37D" stroke="#E5C37D" stroke-miterlimit="10"/>
<path d="M782.701 154.3C782.701 154.3 782.101 153.5 782.601 153.5C783.101 153.5 783.001 153.7 783.201 153.8C786.601 156.3 792.701 162.3 792.701 172.7C792.701 183.1 786.101 189.3 783.201 191.7C783.001 191.8 782.801 192 782.601 192C782.201 192 782.801 191.4 782.901 191.3C786.101 187.9 789.601 181.8 789.601 173.2C789.601 164.6 787.101 158.7 782.901 154.3H782.701Z" fill="#E5C37D" stroke="#E5C37D" stroke-miterlimit="10"/>
<path d="M112.798 206.4C60.5984 206.4 18.4984 165.6 16.8984 113.4C16.8984 112.4 16.8984 111.4 16.8984 110.4C16.8984 57.5 59.9984 14.4 112.898 14.4C165.798 14.4 172.398 29.1 190.498 53.8C202.498 70.3 208.898 89.8 208.898 110.3C208.898 163.2 165.798 206.3 112.898 206.3L112.798 206.4ZM112.798 22.2C64.1984 22.2 24.5984 61.8 24.5984 110.4C24.5984 159 24.5984 112.2 24.5984 113.1C26.0984 161 64.7984 198.6 112.798 198.6C160.798 198.6 200.998 159 200.998 110.4C200.998 61.8 195.098 73.6 184.098 58.4C167.498 35.7 140.898 22.1 112.798 22.1V22.2Z" fill="#E5C37D"/>
<path d="M140.798 161.7V146.5C140.798 144.2 140.698 142.3 140.498 140.8C140.298 139.3 139.898 137.7 139.398 136H147.098C152.398 136 156.398 136.9 159.298 138.8C162.098 140.7 163.598 143.3 163.598 146.8C163.598 150.3 161.998 152.4 158.898 154.2C157.898 154.8 156.798 155.3 155.598 155.7L158.598 159.6C159.998 161.4 161.598 163.3 163.298 165.1C164.998 166.9 167.398 169.3 170.298 172.2H162.898C160.798 170.6 158.298 168.4 155.498 165.4C152.698 162.5 150.298 159.6 148.298 157L147.198 155.5V161.7C147.198 164 147.298 165.9 147.498 167.4C147.698 168.9 148.098 170.5 148.598 172.2H139.498C139.998 170.6 140.398 169 140.598 167.5C140.798 166 140.898 164 140.898 161.7H140.798ZM147.098 154.1C149.798 154 151.998 153.3 153.698 152C155.698 150.6 156.598 148.7 156.598 146.4C156.598 144.1 155.698 142.6 153.798 141.3C152.098 140.1 149.798 139.5 146.998 139.4V154.1H147.098Z" fill="#E5C37D"/>
<path d="M144.501 103.1V103.7C144.501 118.2 132.701 129.9 118.301 129.9H111.201V117.5H115.901C122.801 117.5 128.401 111.9 128.401 105V101.6C128.401 94.7 122.801 89.1 115.901 89.1H94.5008C88.3008 89.1 83.3008 84.1 83.3008 77.9V76.7H118.301C132.801 76.7 144.501 88.5 144.501 102.9V103.1Z" fill="#E5C37D"/>
<path d="M112.099 129V118.4H115.899C123.299 118.4 129.299 112.4 129.299 105V101.6C129.299 94.2 123.299 88.2 115.899 88.2H94.4992C88.7992 88.2 84.1992 83.6 84.1992 77.9V77.6H118.299C132.299 77.6 143.599 89 143.599 102.9V103.5C143.599 117.5 132.199 128.8 118.299 128.8H112.099V129Z" fill="#E5C37D"/>
<path d="M107.2 162.1H91V117.4H92.6C100.6 117.4 107.1 123.9 107.1 131.9V159.6C107.1 160.4 107.1 161.3 107.3 162.1H107.2Z" fill="#E5C37D"/>
<path d="M91.8984 161.2V118.3H92.5984C100.098 118.3 106.198 124.4 106.198 131.9V159.6C106.198 160.1 106.198 160.7 106.198 161.2H91.8984Z" fill="#E5C37D"/>
<path d="M159.499 82.5C159.499 81.1 159.199 79.8 158.899 78.5C157.199 70.7 152.699 63.4 146.599 58.3C143.599 55.8 140.399 53.6 136.999 51.7C136.599 51.4 136.099 51.2 135.599 50.9C134.999 50.6 134.399 50.3 133.799 50C131.999 49.2 130.199 48.5 128.299 47.9C124.699 46.7 120.999 45.8 117.099 45.3C114.399 44.9 111.699 44.8 108.999 44.8C106.299 44.8 108.599 44.8 108.399 44.8C73.6992 45.1 45.6992 74.4 45.6992 110.4C45.6992 146.4 61.4992 160.7 84.0992 170.7C91.6992 174.1 100.099 176 108.999 176C117.899 176 129.199 173.4 137.799 168.8V166.7V136.2H117.499C117.499 136.2 127.199 141.3 127.199 150.7V161.7C123.499 162.4 119.699 162.8 115.799 162.8C84.6992 162.8 59.3992 139.4 59.3992 110.6C59.3992 81.8 72.6992 71.6 91.9992 63.2C94.5992 62.1 97.3992 61.1 100.199 60.4C101.799 60 103.399 59.6 105.099 59.3C105.799 59.3 106.499 59.3 107.299 59.2C115.199 59 123.299 60.3 131.199 63.4C134.899 64.9 138.499 66.7 141.899 68.9C147.399 72.5 152.299 76.9 156.299 82.1C157.399 83.5 158.499 85 159.399 86.5C158.999 85.9 159.399 83.5 159.399 82.7L159.499 82.5Z" fill="#E5C37D"/>
<path d="M621.002 25.3L618.602 27.6V22.9H623.402L621.002 25.3Z" fill="#E5C37D"/>
<path d="M659.701 25.3L657.301 27.6V22.9H662.101L659.701 25.3Z" fill="#E5C37D"/>
<path d="M636.798 25.3L639.198 27.6V22.9H634.398L636.798 25.3Z" fill="#E5C37D"/>
<path d="M659.701 113.9L657.301 111.6V116.3H662.101L659.701 113.9Z" fill="#E5C37D"/>
<path d="M636.798 113.9L639.198 111.6V116.3H634.398L636.798 113.9Z" fill="#E5C37D"/>
<path d="M769.501 185.2C768.401 185.5 766.901 185.6 765.701 185.6C764.501 185.6 762.901 185.6 762.201 185.2C761.101 184.8 760.901 183.8 760.801 182.1C760.801 181.2 760.801 176.3 760.801 174.8V171.1C760.801 170.9 760.801 170.8 761.101 170.8C761.801 170.8 766.001 170.8 767.201 171C768.701 171.2 769.201 171.8 769.401 172.4C769.501 172.8 769.601 173.2 769.601 173.6C769.601 174 769.601 174.3 769.901 174.3C770.201 174.3 770.201 174.1 770.201 173.7C770.201 173.1 770.201 172.1 770.401 170.8C770.401 170 770.601 169.5 770.601 169.1H768.801C768.501 169.1 768.201 169.1 767.901 169.2C766.901 169.2 761.701 169.2 761.101 169.2C760.501 169.2 760.801 169.1 760.801 168.8V157.1C760.801 156.8 760.801 156.7 761.101 156.7C761.601 156.7 766.201 156.7 766.901 156.8C768.801 157 769.701 157.4 770.001 158.4C770.001 158.6 770.101 158.8 770.201 159H771.001C771.001 158.2 771.001 157.5 771.101 157C771.101 155.8 771.401 155.3 771.401 155C771.401 154.7 771.401 154.6 771.201 154.6C771.001 154.6 771.001 154.6 770.701 154.8C770.401 155 769.701 155 768.701 155.1C767.701 155.1 759.301 155.1 759.001 155.1C757.201 155.1 756.101 155 755.301 155V155.7C756.701 156 757.001 156.7 757.101 158.1C757.101 159.5 757.101 160.7 757.101 167.3V174.8C757.101 178.6 757.101 180.8 757.101 182.4C757.101 185.6 756.501 186.2 755.601 186.4V187.1C756.401 187.1 757.201 187 758.001 187C759.701 187 761.601 187 763.301 187.1C765.001 187.1 766.401 187.2 769.501 187.2C771.201 187.2 771.501 187.2 771.801 186.1C771.901 185.6 772.101 184.7 772.201 183.8H771.201C770.901 184.5 770.401 184.9 769.601 185.2H769.501Z" fill="#E4C37E" stroke="#E4C37E" stroke-miterlimit="10"/>
</g>
<defs>
<clipPath id="clip0_2143_2">
<rect width="828" height="220" fill="white"/>
</clipPath>
</defs>
</svg>
