<svg width="173" height="45" viewBox="0 0 173 45" fill="none" xmlns="http://www.w3.org/2000/svg">
<g clip-path="url(#clip0_294_1446)">
<path d="M64.6333 5.64006C67.1396 5.64006 69.1166 6.28118 70.5653 7.56278C72.0141 8.84502 72.7385 10.5242 72.7385 12.5991C72.7385 14.6848 72.0141 16.3615 70.5653 17.6285C69.1166 18.8962 67.139 19.5297 64.6333 19.5297H60.9343V24.3637L63.2801 24.8127V27.4324H54.2129V24.8127L56.5434 24.3637V8.72326L54.2129 8.27429V5.64069H64.6339L64.6333 5.64006ZM60.9337 16.1624H64.6327C65.8559 16.1624 66.7803 15.8307 67.4072 15.1668C68.0335 14.5035 68.3469 13.6575 68.3469 12.6302C68.3469 11.5826 68.0335 10.7164 67.4072 10.0328C66.7803 9.34979 65.8559 9.00799 64.6327 9.00799H60.9337V16.1624Z" fill="#ECC273"/>
<path d="M74.5727 24.8133L76.6777 24.3644V14.3215L74.3472 13.8725V11.2383H80.7685L80.9641 13.603C81.3451 12.7646 81.8363 12.1108 82.4377 11.6416C83.0391 11.1729 83.7361 10.9383 84.528 10.9383C84.7587 10.9383 85.0014 10.9561 85.2575 10.9909C85.513 11.0265 85.7258 11.0683 85.8965 11.1178L85.4302 15.0989L83.6259 15.0545C82.9843 15.0545 82.453 15.1795 82.0319 15.4287C81.6107 15.6785 81.2896 16.0324 81.0698 16.4915V24.3644L83.1748 24.8133V27.433H74.5733L74.5727 24.8133Z" fill="#ECC273"/>
<path d="M86.9272 19.186C86.9272 16.7712 87.6064 14.7926 88.9647 13.2517C90.323 11.7094 92.1999 10.9389 94.596 10.9389C96.9922 10.9389 98.8837 11.7075 100.243 13.2447C101.601 14.7812 102.28 16.7616 102.28 19.1866V19.5005C102.28 21.9356 101.601 23.9186 100.243 25.4507C98.8843 26.9821 97.0119 27.7482 94.626 27.7482C92.2101 27.7482 90.323 26.9821 88.9647 25.4507C87.6064 23.9186 86.9272 21.9356 86.9272 19.5005V19.1866V19.186ZM91.3175 19.4999C91.3175 20.9768 91.5781 22.162 92.0999 23.0542C92.621 23.9477 93.4633 24.3942 94.626 24.3942C95.7587 24.3942 96.5882 23.9452 97.1145 23.0466C97.6407 22.1487 97.9038 20.9666 97.9038 19.4992V19.1853C97.9038 17.7477 97.6382 16.5758 97.1068 15.6677C96.5755 14.7597 95.7383 14.3062 94.5954 14.3062C93.4524 14.3062 92.6204 14.7603 92.0992 15.6677C91.5781 16.5758 91.3169 17.7477 91.3169 19.1853V19.4992L91.3175 19.4999Z" fill="#ECC273"/>
<path d="M103.679 13.8725V11.2383H110.099L110.28 13.3785C110.801 12.5998 111.455 11.9992 112.242 11.575C113.029 11.1507 113.939 10.9383 114.971 10.9383C116.014 10.9383 116.906 11.1679 117.648 11.627C118.389 12.0867 118.951 12.7792 119.332 13.7076C119.834 12.8395 120.485 12.1609 121.287 11.672C122.089 11.1831 123.031 10.9383 124.114 10.9383C125.717 10.9383 126.983 11.49 127.911 12.5922C128.838 13.6949 129.302 15.3741 129.302 17.6285V24.3637L131.422 24.8127V27.4323H123.016V24.8127L124.911 24.3637V17.6133C124.911 16.3856 124.71 15.5327 124.309 15.0539C123.908 14.5751 123.312 14.3354 122.52 14.3354C121.898 14.3354 121.359 14.473 120.903 14.747C120.447 15.0215 120.084 15.4027 119.813 15.8916C119.813 16.0818 119.818 16.2435 119.829 16.3786C119.838 16.5131 119.844 16.6507 119.844 16.7902V24.3631L121.618 24.8121V27.4317H113.693V24.8121L115.468 24.3631V17.6127C115.468 16.4148 115.267 15.5694 114.866 15.0755C114.465 14.5821 113.864 14.3348 113.062 14.3348C112.471 14.3348 111.951 14.447 111.505 14.6715C111.06 14.896 110.691 15.2131 110.4 15.6214V24.3625L112.295 24.8114V27.4311H103.904V24.8114L106.025 24.3625V14.3196L103.679 13.8706V13.8725Z" fill="#ECC273"/>
<path d="M132.701 24.8133L134.821 24.3644V14.3215L132.476 13.8725V11.2383H139.212V24.3644L141.317 24.8133V27.433H132.701V24.8133ZM139.212 7.36112H134.821V4.08324H139.212V7.36112Z" fill="#ECC273"/>
<path d="M156.039 16.806H153.091L152.625 14.785C152.324 14.5453 151.946 14.3462 151.49 14.1864C151.033 14.0272 150.53 13.9467 149.978 13.9467C149.206 13.9467 148.595 14.1185 148.144 14.4629C147.693 14.8072 147.467 15.2391 147.467 15.7578C147.467 16.2467 147.682 16.6532 148.114 16.9779C148.544 17.3026 149.407 17.5892 150.7 17.8378C152.715 18.2373 154.209 18.8239 155.182 19.5963C156.154 20.3699 156.641 21.4346 156.641 22.7923C156.641 24.249 156.011 25.4392 154.753 26.3619C153.495 27.2846 151.839 27.7469 149.783 27.7469C148.53 27.7469 147.38 27.5643 146.332 27.2003C145.285 26.8363 144.355 26.315 143.543 25.6365L143.498 21.9997H146.565L147.167 24.1095C147.427 24.3295 147.784 24.4918 148.235 24.5965C148.686 24.7011 149.157 24.7537 149.648 24.7537C150.54 24.7537 151.22 24.5939 151.686 24.2743C152.152 23.9554 152.385 23.521 152.385 22.9724C152.385 22.493 152.149 22.0796 151.678 21.7295C151.207 21.3807 150.34 21.0713 149.077 20.8018C147.162 20.413 145.716 19.8366 144.739 19.0725C143.762 18.3096 143.273 17.269 143.273 15.9518C143.273 14.5948 143.834 13.4254 144.957 12.4419C146.08 11.4596 147.679 10.9681 149.754 10.9681C151.017 10.9681 152.213 11.1381 153.34 11.4773C154.468 11.816 155.353 12.2504 155.995 12.7792L156.04 16.806H156.039Z" fill="#ECC273"/>
<path d="M166.399 27.7475C164.053 27.7475 162.178 26.9986 160.775 25.502C159.372 24.0054 158.67 22.1049 158.67 19.7998V19.2012C158.67 16.7965 159.334 14.8155 160.663 13.2593C161.991 11.7025 163.773 10.9294 166.009 10.9389C168.204 10.9389 169.908 11.5978 171.121 12.9149C172.334 14.232 172.941 16.0134 172.941 18.2582V20.6381H163.227L163.197 20.7282C163.277 21.7961 163.635 22.6737 164.272 23.3624C164.909 24.0511 165.773 24.3954 166.866 24.3954C167.838 24.3954 168.645 24.2984 169.287 24.1031C169.929 23.9084 170.63 23.6021 171.392 23.183L172.58 25.8768C171.909 26.4063 171.039 26.8496 169.971 27.2091C168.904 27.5687 167.713 27.7488 166.4 27.7488L166.399 27.7475ZM166.009 14.3062C165.196 14.3062 164.555 14.6151 164.084 15.234C163.612 15.8529 163.322 16.6659 163.212 17.6742L163.257 17.7484H168.64V17.3596C168.64 16.4319 168.423 15.6906 167.986 15.137C167.55 14.5834 166.891 14.3062 166.009 14.3062Z" fill="#ECC273"/>
<path d="M60.0579 41.6162C59.8273 41.8566 59.4865 42.0836 59.036 42.2967C58.5856 42.5104 58.0001 42.6169 57.2789 42.6169C56.2264 42.6169 55.3676 42.2497 54.7031 41.5141C54.038 40.7791 53.7061 39.8248 53.7061 38.6516V38.5222C53.7061 37.3421 54.0348 36.3864 54.6929 35.6546C55.3504 34.9228 56.2258 34.5569 57.3178 34.5569C57.9014 34.5569 58.4142 34.6483 58.8557 34.829C59.2972 35.0104 59.6693 35.2494 59.9719 35.5475V36.968H59.2259L58.9666 35.8867C58.7901 35.7428 58.5767 35.6248 58.3263 35.531C58.0759 35.4378 57.7759 35.3908 57.4261 35.3908C56.5756 35.3908 55.9206 35.6806 55.4613 36.2596C55.0019 36.8392 54.7719 37.59 54.7719 38.5121V38.6522C54.7719 39.5889 54.9943 40.3454 55.4396 40.9225C55.8843 41.5002 56.4985 41.7887 57.2802 41.7887C57.709 41.7887 58.0606 41.7443 58.3346 41.6543C58.6085 41.5642 58.8283 41.4659 58.994 41.3581V39.6415L57.7019 39.5882V38.8082H60.0592V41.6169L60.0579 41.6162Z" fill="#ECC273"/>
<path d="M68.5783 38.6459C68.5783 39.7867 68.2496 40.7335 67.5914 41.4869C66.934 42.2402 66.0822 42.6163 65.0373 42.6163C64.0211 42.6163 63.1955 42.2396 62.5615 41.4869C61.927 40.7335 61.6104 39.7861 61.6104 38.6459V38.533C61.6104 37.3954 61.9276 36.4486 62.5615 35.6921C63.1961 34.9355 64.0211 34.5563 65.0373 34.5563C66.0822 34.5563 66.934 34.9355 67.5914 35.6921C68.2489 36.4486 68.5783 37.396 68.5783 38.533V38.6459ZM67.5137 38.5222C67.5137 37.611 67.2946 36.8678 66.8569 36.292C66.4192 35.7162 65.8127 35.4283 65.0379 35.4283C64.2957 35.4283 63.716 35.7168 63.2999 36.2945C62.8839 36.8722 62.6756 37.6148 62.6756 38.5222V38.6459C62.6756 39.5641 62.8839 40.3112 63.2999 40.887C63.716 41.4628 64.2957 41.7507 65.0379 41.7507C65.8235 41.7507 66.4326 41.4634 66.8652 40.8895C67.2977 40.3162 67.5137 39.5679 67.5137 38.6459V38.5222Z" fill="#ECC273"/>
<path d="M69.5225 42.504V41.8261L70.4036 41.6758V35.5044L69.5225 35.3534V34.6705H72.3499V35.3534L71.4688 35.5044V41.6758H74.2039L74.2848 40.7772H75.1933V42.5046L69.5225 42.504Z" fill="#ECC273"/>
<path d="M79.4461 34.6698C80.4731 34.6698 81.2994 34.9844 81.9244 35.6141C82.5494 36.2431 82.8622 37.0567 82.8622 38.0542V39.1247C82.8622 40.1253 82.5494 40.939 81.9244 41.5655C81.2994 42.192 80.4731 42.504 79.4461 42.504H76.1484V41.8261L77.0295 41.6758V35.5044L76.1484 35.3534V34.6705L79.4461 34.6698ZM78.0948 35.5037V41.6752H79.4461C80.1743 41.6752 80.7477 41.4368 81.1681 40.9592C81.588 40.4824 81.7982 39.8704 81.7982 39.124V38.0428C81.7982 37.304 81.588 36.6959 81.1681 36.2184C80.7483 35.7415 80.1743 35.5031 79.4461 35.5031L78.0948 35.5037Z" fill="#ECC273"/>
<path d="M90.3024 34.6749C91.1599 34.6749 91.818 34.8639 92.2755 35.2425C92.7329 35.621 92.9622 36.1582 92.9622 36.8544C92.9622 37.2349 92.8558 37.5717 92.6431 37.8659C92.4303 38.1601 92.1257 38.3916 91.7295 38.5603C92.1582 38.7004 92.4672 38.9281 92.6564 39.2433C92.8457 39.5591 92.9406 39.9484 92.9406 40.4113V41.0411C92.9406 41.2814 92.9712 41.4583 93.0323 41.5737C93.0935 41.6885 93.1941 41.7564 93.3349 41.7779L93.5942 41.8103V42.5047H93.0215C92.6067 42.5047 92.3124 42.3607 92.1378 42.0741C91.9633 41.7874 91.876 41.4393 91.876 41.0303V40.4221C91.876 39.9953 91.7518 39.6529 91.5033 39.3948C91.2548 39.1367 90.921 39.0074 90.503 39.0074H88.795V41.6765L89.6761 41.8268V42.5047H86.8486V41.8268L87.7297 41.6765V35.505L86.8486 35.3541V34.6768H90.303L90.3024 34.6749ZM88.7943 38.1722H90.1947C90.7891 38.1722 91.2217 38.0593 91.4918 37.8336C91.7619 37.6078 91.897 37.2774 91.897 36.843C91.897 36.4308 91.767 36.1043 91.5077 35.8639C91.2484 35.6236 90.8464 35.5037 90.3024 35.5037H88.7943V38.1722Z" fill="#ECC273"/>
<path d="M94.4736 42.504V41.8261L95.3547 41.6758V35.5044L94.4736 35.3534V34.6705H100.518V36.5539H99.6042L99.5175 35.505H96.42V38.039H99.4309V38.8729H96.42V41.6765H99.5825L99.6692 40.6276H100.578V42.5053H94.4743L94.4736 42.504Z" fill="#ECC273"/>
<path d="M101.678 41.8261L102.559 41.6758V35.5044L101.678 35.3534V34.6705H107.76V36.5539H106.851L106.764 35.505H103.624V38.2058H106.667V39.0397H103.624V41.6765L104.505 41.8268V42.5046H101.677V41.8268L101.678 41.8261Z" fill="#ECC273"/>
<path d="M108.687 35.3528V34.6698H111.514V35.3528L110.633 35.5037V41.6752L111.514 41.8255V42.5034H108.687V41.8255L109.568 41.6752V35.5037L108.687 35.3528Z" fill="#ECC273"/>
<path d="M120.113 34.6698V35.3528L119.232 35.5037V42.504H118.167L114.382 36.4562L114.35 36.467V41.6758L115.231 41.8261V42.504H112.403V41.8261L113.284 41.6758V35.5044L112.403 35.3534V34.6705H114.35L118.134 40.7132L118.167 40.7018V35.5044L117.285 35.3534V34.6705L120.113 34.6698Z" fill="#ECC273"/>
<path d="M120.97 42.504V41.8261L121.851 41.6758V35.5044L120.97 35.3534V34.6705H127.014V36.5539H126.101L126.014 35.505H122.917V38.039H125.927V38.8729H122.917V41.6765H126.079L126.166 40.6276H127.074V42.5053H120.971L120.97 42.504Z" fill="#ECC273"/>
<path d="M131.629 34.6749C132.487 34.6749 133.145 34.8639 133.602 35.2425C134.06 35.621 134.289 36.1582 134.289 36.8544C134.289 37.2349 134.183 37.5717 133.97 37.8659C133.757 38.1601 133.452 38.3916 133.056 38.5603C133.485 38.7004 133.794 38.9281 133.983 39.2433C134.172 39.5591 134.267 39.9484 134.267 40.4113V41.0411C134.267 41.2814 134.298 41.4583 134.359 41.5737C134.42 41.6885 134.521 41.7564 134.662 41.7779L134.921 41.8103V42.5047H134.348C133.933 42.5047 133.639 42.3607 133.464 42.0741C133.29 41.7874 133.203 41.4393 133.203 41.0303V40.4221C133.203 39.9953 133.078 39.6529 132.83 39.3948C132.581 39.1367 132.248 39.0074 131.83 39.0074H130.122V41.6765L131.003 41.8268V42.5047H128.175V41.8268L129.056 41.6765V35.505L128.175 35.3541V34.6768H131.63L131.629 34.6749ZM130.121 38.1722H131.521C132.116 38.1722 132.548 38.0593 132.818 37.8336C133.089 37.6078 133.224 37.2774 133.224 36.843C133.224 36.4308 133.094 36.1043 132.834 35.8639C132.575 35.6236 132.173 35.5037 131.629 35.5037H130.121V38.1722Z" fill="#ECC273"/>
<path d="M137.896 35.3528L137.047 35.4549L138.696 38.6516L140.345 35.4549L139.502 35.3528V34.6698H142.205V35.3528L141.54 35.4549L139.204 39.7487V41.6752L140.085 41.8255V42.5034H137.263V41.8255L138.145 41.6752V39.6681L135.852 35.4543L135.193 35.3522V34.6692H137.896V35.3528Z" fill="#ECC273"/>
<path d="M146.196 39.3244C146.196 37.9109 146.483 36.7035 147.055 35.7028C147.629 34.7022 148.23 34.035 148.861 33.7015L148.893 33.7066L149.093 34.3306C148.6 34.7142 148.171 35.33 147.806 36.1765C147.443 37.0231 147.26 38.0682 147.26 39.313V39.3828C147.26 40.6314 147.441 41.6777 147.804 42.5224C148.166 43.3677 148.596 43.9981 149.093 44.4141L148.893 44.9949H148.861C148.23 44.6614 147.628 43.9949 147.055 42.9961C146.483 41.9973 146.196 40.7893 146.196 39.372V39.3244Z" fill="#ECC273"/>
<path d="M149.675 41.8261L150.556 41.6758V35.5044L149.675 35.3534V34.6705H155.757V36.5539H154.848L154.762 35.505H151.621V38.2058H154.664V39.0397H151.621V41.6765L152.502 41.8268V42.5046H149.674V41.8268L149.675 41.8261Z" fill="#ECC273"/>
<path d="M157.998 41.6758H161.409L161.495 40.7772H162.404V42.5046H156.803V41.7189L161.004 35.5044H157.846L157.77 36.4029H156.857V34.6705H162.225V35.4289L157.998 41.6758Z" fill="#ECC273"/>
<path d="M169.388 37.0751H168.637L168.437 35.9666C168.264 35.798 168.051 35.6604 167.799 35.5525C167.547 35.4447 167.246 35.3908 166.896 35.3908C166.078 35.3908 165.449 35.6864 165.01 36.2761C164.57 36.8665 164.35 37.6154 164.35 38.5229V38.6465C164.35 39.5546 164.566 40.3048 164.996 40.8984C165.427 41.4926 166.025 41.7887 166.789 41.7887C167.145 41.7887 167.47 41.7335 167.761 41.6219C168.053 41.511 168.279 41.374 168.437 41.2129L168.637 40.1044H169.389V41.4976C169.162 41.7881 168.821 42.0474 168.367 42.2757C167.912 42.5034 167.386 42.6169 166.788 42.6169C165.764 42.6169 164.924 42.2402 164.269 41.4875C163.613 40.7341 163.285 39.7867 163.285 38.6465V38.5337C163.285 37.3852 163.608 36.4353 164.253 35.6845C164.898 34.9324 165.743 34.5569 166.789 34.5569C167.387 34.5569 167.913 34.673 168.367 34.9045C168.822 35.1353 169.162 35.3946 169.389 35.6819V37.0758L169.388 37.0751Z" fill="#ECC273"/>
<path d="M173 39.3726C173 40.7893 172.712 41.998 172.137 42.9967C171.562 43.9955 170.962 44.662 170.334 44.9956H170.302L170.102 44.4147C170.588 44.0374 171.015 43.4184 171.383 42.5554C171.75 41.6923 171.935 40.6352 171.935 39.3828V39.313C171.935 38.0834 171.745 37.0352 171.367 36.1708C170.988 35.3065 170.567 34.6768 170.102 34.2817L170.302 33.7009H170.334C170.961 34.0344 171.562 34.7015 172.137 35.7022C172.712 36.7029 173 37.9103 173 39.3238V39.3726Z" fill="#ECC273"/>
<path d="M24.4127 44.931C16.9013 45.5087 9.78046 42.4718 5.00285 36.6257C2.14291 33.1252 0.419552 28.8029 0.0697842 24.3043C-0.511888 16.8252 2.53918 9.73486 8.41579 4.97942C11.9332 2.13212 16.2763 0.417403 20.7966 0.0698928C28.3092 -0.507177 35.4307 2.53037 40.2077 8.37779C43.0677 11.8783 44.7904 16.2012 45.1395 20.6998C45.7199 28.1776 42.6682 35.2667 36.7929 40.0221C33.2754 42.8688 28.9323 44.5835 24.4127 44.931ZM24.8988 3.60207C18.1832 2.82841 11.7599 5.47532 7.55953 10.7482C5.39084 13.4706 4.01789 16.7688 3.61716 20.2204C2.84117 26.9043 5.5017 33.2964 10.7985 37.4767C13.5343 39.6353 16.8472 41.0012 20.3149 41.3995C27.0293 42.1712 33.45 39.5237 37.6498 34.2521C39.8184 31.5303 41.1908 28.2328 41.5915 24.7824C42.3675 18.0992 39.7089 11.7077 34.4133 7.52677C31.6789 5.36815 28.3659 4.00157 24.8988 3.60207Z" fill="#ECC273"/>
<path d="M16.1675 30.331V28.4552L17.887 28.1325V16.43L16.1675 16.1072V14.4382H23.5547C24.7295 14.4382 25.7374 14.643 26.5777 15.052C27.4174 15.461 28.0609 16.0299 28.5081 16.7585C28.9553 17.4871 29.179 18.3394 29.179 19.3153C29.179 20.2913 28.9553 21.1436 28.5081 21.8722C28.0609 22.6008 27.4174 23.1659 26.5777 23.5679C25.7374 23.9699 24.7295 24.1703 23.5547 24.1703H20.6125V28.1325L22.3321 28.4552V30.331H16.1675ZM20.6125 22.0713H23.5547C24.5205 22.0713 25.2455 21.8132 25.7284 21.2964C26.2114 20.7796 26.4528 20.1264 26.4528 19.3369C26.4528 18.5334 26.2114 17.8657 25.7284 17.3343C25.2455 16.8035 24.5205 16.5378 23.5547 16.5378H20.6125V22.0713Z" fill="#ECC273"/>
<path d="M34.7966 27.0037L33.6237 23.5343C34.1486 23.2584 34.5615 22.8862 34.8603 22.4163C35.1693 21.9312 35.3241 21.3814 35.3241 20.7663C35.3241 20.1125 35.168 19.5525 34.8571 19.0864C34.5456 18.6203 34.1002 18.2627 33.5211 18.0128C32.9413 17.763 32.2463 17.638 31.4352 17.638H30.6134V19.2595H31.4352C32.0246 19.2595 32.4686 19.4048 32.7681 19.6958C33.0669 19.9863 33.2166 20.3744 33.2166 20.8595C33.2166 21.3497 33.0656 21.7232 32.7642 21.9806C32.4622 22.2375 32.0074 22.3662 31.3989 22.3662H29.6756V22.3599H27.561V26.4881H29.6756V23.9877H31.6589L33.1312 28.4736H35.7V27.2129L34.7966 27.0037Z" fill="#ECC273"/>
<path d="M25.6252 30.3488H27.7047V32.151L27.6888 33.5372C26.8624 33.9672 24.725 34.2075 22.3703 34.2075C20.0684 34.2075 17.7417 33.276 16.1203 32.1986C13.2483 30.2904 11.5873 27.3613 11.5873 22.6186C11.5873 19.2735 12.5258 16.5391 14.1988 14.5624C15.4176 13.2624 16.9288 12.2415 18.6254 11.6073C19.8792 11.1882 21.2732 10.9694 22.7844 10.9694C25.3105 10.9694 26.979 11.7266 28.3717 12.3791C29.2012 12.849 29.9658 13.421 30.6545 14.0735H34.6656C34.1865 13.395 33.6495 12.7513 33.0519 12.1508C32.0714 11.1647 30.9749 10.3365 29.7957 9.67637L29.8084 9.63769C28.4469 8.92682 26.0979 7.75873 22.8755 7.75873C14.2587 7.75873 8.90706 13.1813 8.09922 20.8075C8.02978 21.3922 7.9941 21.9844 7.9941 22.5824C7.9941 22.5939 7.99474 22.6046 7.99474 22.616C7.9941 22.6661 7.99282 22.7162 7.99219 22.767C7.99219 27.2802 9.72128 30.6253 12.1174 33.0331C14.8442 35.7409 17.8679 37.4061 22.0823 37.4061C25.8418 37.4061 29.0235 36.4169 30.6347 35.8151V28.4559H25.6252V30.3488Z" fill="#ECC273"/>
</g>
<defs>
<clipPath id="clip0_294_1446">
<rect width="173" height="45" fill="white"/>
</clipPath>
</defs>
</svg>
