<?xml version="1.0" encoding="UTF-8"?>
<svg xmlns="http://www.w3.org/2000/svg" viewBox="0 0 841.89 595.276">
  <defs>
    <style>
      .cls-1 {
        fill:rgba(255, 255, 255, 0);
      }

      .cls-2, .cls-3 {
        fill: #e5c37d;
      }

      .cls-3 {
        stroke: #e5c37d;
        stroke-miterlimit: 10;
      }
    </style>
  </defs>
  <rect class="cls-1" width="841.89" height="595.276"/>
  <g id="Layer_1" data-name="Layer 1">
    <path class="cls-2" d="M634.649,341.313c-8.495-.067-14.383-.026-23.161,0,0,0,1.22-.998,1.22-1.397,0-17.875,0-34.78,0-54.065-12.12,14.156-15.925,18.537-26.685,30.044l-26.439-32.05c0,16.638-.011,48.435-.013,55.2,0,.8,1.672,2.268,1.672,2.268-6.239,0-24.721,0-24.265,0s2.109-1.837,2.109-1.837v-87.082l-2.539-4.53c8.234,0,23.097,0,23.097,0l26.065,40.718s19.657-28.192,26.998-40.718c16.64,0,15.257,0,23.18,0-1.084,2.022-2.284,4.53-2.284,4.53,0,22.554.027,74.281,0,87.114-.002.818,1.045,1.805,1.045,1.805Z"/>
    <path class="cls-2" d="M652.203,341.316c8.502-.026,12.989-.048,21.483.019,0,0-.789-1.149-.788-1.634.014-12.657.196-76.011.075-91.815-7.923,0-4.129,0-20.77,0"/>
    <path class="cls-2" d="M777.012,298.23c0,13.789,0,18.734,0,27.813,15.189.06,21.601.558,34.626-2.229-4.144,11.197-3.475,9.537-7.014,17.547-9.355-.049-47.247-.049-49.514-.049,0,0,1.092.008,1.092-7.113v-69.169c.038-5.884.267-11.433-1.092-17.185,20.411.018,34.635,0,52.882.018-3.363,8.434-4.702,11.462-7.456,17.299-6.546-2.143-8.763-2.4-23.523-2.284,0,12.274.168,17.27.169,23.608l29.332-.006c-2.697,5.707-3.013,6.384-6.215,11.821l-23.286-.072Z"/>
    <path class="cls-2" d="M723.103,340.104c-9.939,1.96-25.757.611-32.54-4.615v-16.514c7.137,5.519,18.477,11.361,26.952,5.886,4.945-3.194,5.127-15.022-2.211-21.872-6.841-6.386-22.77-12.761-22.959-27.633-.138-10.838,3.64-21.393,14.274-25.786,10.204-4.215,21.392-2.44,32.221-.619,0,8.427,0,10.835,0,17.725-5.34-9.105-22.296-10.201-27.454-4.208-11.728,13.624,10.331,23.636,21.829,36.703,11.787,13.395,8.253,37.313-10.113,40.934Z"/>
    <path class="cls-2" d="M497.078,249.841c-14.336-4.403-31.378-4.614-44.266,1.733-20.901,10.292-30.796,32.493-25.621,53.565,5.137,20.916,23.805,36.478,46.461,36.769,18.608.239,37.407-7.936,45.217-25.654,9.311-21.121,5.041-58.172-21.792-66.413ZM498.384,314.937c-7.732,12.661-22.479,15.601-34.012,8.018-17.163-11.284-22.234-34.822-10.904-51.508,8.719-12.84,23.876-14.597,36.09-4.95,13.949,11.017,18.562,32.498,8.826,48.44Z"/>
    <path class="cls-2" d="M392.447,299.616c13.192-3.318,20.64-13.43,20.013-26.091-.602-12.151-8.731-23.658-22.196-24.876-13.02-1.177-27.358-.784-40.239-.784,0,0,3.104,2.369,3.084,6.305l-.354,80.637c-.014,2.87-2.73,6.533-2.73,6.533,7.684-.028,17.497-.028,23.767-.028,0-12.153,0-18.855,0-39.68,19.492,34.335,20.721,39.68,49.141,39.746-10.665-13.816-21.247-26.862-30.486-41.763ZM373.792,290.504c-.058-8.947,0-15.78,0-28.185,6.136-1.297,19.491,1.429,19.492,14.225,0,10.179-13.991,15.127-19.492,13.961Z"/>
    <path class="cls-2" d="M336.651,266.508c-6.38-22.347-32.724-18.38-57.782-18.644,0,0,1.031,2.199,1.022,6.101l-.174,75.932c-.007,2.77.246,11.416-1.773,11.416,7.383,0,16.21-.031,24.01.036,0,0-1.498,0-1.498-5.461,0-9.057.088-18.148.114-31.319,9.922.541,23.153-2.776,31.137-10.424,7.196-6.893,7.684-18.037,4.944-27.637ZM300.059,291.366c-.058-8.947,0-15.78,0-28.185,6.136-1.297,19.491,1.429,19.491,14.225,0,10.179-13.991,15.127-19.492,13.961Z"/>
    <g>
      <path class="cls-3" d="M306.477,399.552c-.021-1.037-.004-2.075-.014-3.112-.838.031-1.551.062-1.655.062-.156,0-1.611-.067-3.128-.104v.883c1.176.451,1.338,1.188,1.338,4.201v7.235c0,.724-.295,1.192-.85,1.491-1.107.639-3.321.894-4.851.894-3.918,0-7.791-1.277-11.154-4.555-1.489-1.447-4.511-5.788-4.511-11.79,0-4.98,1.746-8.853,4.213-10.812,3.238-2.554,6.431-2.809,9.109-2.809,5.494,0,8.939,1.831,10.005,3.448.639,1.022.85,2.214.892,2.809.045.383.087.639.298.639.135,0,.208-.094.262-.222.016-2.35.03-4.701.044-7.051-.042-.017-.066-.04-.136-.047-1.062-.043-2.554-.213-3.446-.425-.809-.172-3.831-.724-6.514-.724-3.276,0-7.492.297-11.324,2.681-3.786,2.384-7.107,7.194-7.107,14.004,0,5.32,2.467,9.875,5.067,12.13,4.723,4.13,10.768,4.555,14.002,4.555,2.467,0,6.298-.469,9.023-1.916.514-.298.555-.383.555-2.299v-4.766c0-.452.004-.803.005-1.199-.037-1.067-.101-2.133-.123-3.2Z"/>
      <path class="cls-3" d="M315.738,396.204c0-6.895,5.021-16.641,16.772-16.641,9.574,0,16.726,6.043,16.726,15.961,0,9.535-6.725,17.408-16.983,17.408-11.664,0-16.515-9.066-16.515-16.728ZM345.152,396.716c0-10.217-6.215-15.706-12.941-15.706-7.111,0-12.431,4.681-12.431,14.002,0,9.918,5.958,16.303,13.621,16.303,3.831,0,11.75-2.214,11.75-14.599Z"/>
      <path class="cls-3" d="M376.262,406.421c-.257,0-.34.212-.385.554-.125.809-.552,1.872-1.107,2.554-1.02,1.234-2.894,1.275-5.15,1.275-3.317,0-4.424-.297-5.108-.979-.763-.765-.933-3.489-.933-9.746v-7.577c0-6.419,0-7.746.076-9.057v-3.22c-.948.031-1.76.062-1.867.062-.115,0-.977-.037-2.035-.071v2.215c.069.267.143.521.165.877.083,1.362.083,2.554.083,9.194v7.492c0,4.086,0,7.447-.212,9.236-.17,1.234-.382,2.171-1.236,2.341-.015.003-.034.004-.049.007v.732c1.172-.031,2.235-.1,3.284-.1,4.13,0,7.749.255,11.41.255,2.256,0,2.384-.17,2.679-1.149.34-1.236.639-3.788.639-4.256s-.042-.639-.253-.639Z"/>
      <path class="cls-3" d="M410.395,385.011c-5.067-5.237-12.854-4.853-17.07-4.853-2.554,0-5.233.128-5.747.128-.156,0-1.656-.07-3.201-.106v.834c1.028.345,1.253,1.005,1.331,2.293.083,1.362.083,2.554.083,9.194v7.492c0,4.086,0,7.447-.212,9.236-.17,1.234-.382,2.171-1.236,2.341-.077.017-.164.02-.238.034v.707c.56-.025,1.179-.059,1.772-.059.892-.043,1.617-.043,1.7-.043.215,0,1.662.128,3.533.255,1.832.128,4.088.255,5.917.255,7.239,0,11.067-2.979,12.899-4.895,2.384-2.511,4.598-6.64,4.598-12.004,0-5.065-2.002-8.598-4.13-10.81ZM407.286,407.314c-2.509,2.511-6.17,3.958-10.13,3.958-5.021,0-6.68-.894-7.235-1.702-.34-.469-.427-2.171-.469-3.234-.042-.809-.083-4.725-.083-9.238v-5.276c0-3.278,0-7.621.042-9.068,0-.467.128-.68.51-.85.34-.17,1.916-.298,2.766-.298,5.067,0,9.918.595,13.919,4.81,1.746,1.831,4.088,5.32,4.088,10.727,0,3.916-1.194,8.002-3.408,10.173Z"/>
      <path class="cls-3" d="M466.413,411.416c-1.076-.308-2.554-1.011-4.312-2.868-2.471-2.639-5.365-6.427-8.853-10.897,3.827-3.533,5.15-6.682,5.15-9.831,0-2.938-1.874-5.023-2.94-5.79-2.256-1.617-5.104-1.872-7.787-1.872-1.319,0-4.557.128-5.025.128-.125,0-1.125-.045-2.313-.082v1.44c.283.39.398.925.443,1.662.083,1.362.083,2.554.083,9.194v7.492c0,4.086,0,7.447-.212,9.236-.145,1.053-.346,1.858-.925,2.186v.899c1.275-.037,2.723-.106,2.754-.106.135,0,1.243.051,2.629.088-.014-.43-.019-.861-.032-1.291-.364-.425-.517-1.034-.595-1.776-.212-1.789-.212-5.15-.212-9.236v-1.022c0-.213.083-.34.295-.34l5.237.085c.257,0,.382.085.555.255.85,1.107,2.849,3.958,4.636,6.298,2.429,3.193,3.918,5.278,5.747,6.259,1.107.595,2.173.809,4.557.809h1.119s0-.921,0-.921ZM449.032,397.396c-1.87,0-3.831-.298-4.47-.68-.212-.128-.295-.298-.295-.512v-13.917c0-.257.125-.427.34-.512.423-.127,1.572-.255,2.849-.255,4.557,0,7.364,3.193,7.364,8.512,0,3.236-1.103,5.533-2.596,6.555-.979.682-2.169.809-3.193.809Z"/>
      <path class="cls-3" d="M486.399,410.378c-1.149.34-2.554.383-3.831.383-1.659,0-2.807-.085-3.533-.383-1.062-.425-1.319-1.362-1.402-3.108-.045-.894,0-5.83,0-7.277v-3.746c0-.17.083-.298.295-.298.725,0,4.938.085,6.087.213,1.534.17,2.044.765,2.214,1.404.042.124.03.256.055.386h.75c.021-.554.05-1.202.132-2.045.062-.676.138-1.149.205-1.529-.049-.003-.099-.005-.148-.008-.852-.049-1.709-.049-2.567-.039,0,0-.001,0-.002,0-.979.085-6.212.085-6.767.085-.212,0-.253-.128-.253-.425v-11.749c0-.298.083-.425.253-.425.469,0,5.108.042,5.834.127,1.87.17,2.766.597,3.064,1.576.128.34.212.852.212,1.404,0,.342.087.554.34.554.17,0,.298-.297.34-.724.087-1.105.128-1.916.17-2.554.079-1.086.288-1.596.326-1.905h-5.36c-.038,0-.068-.02-.105-.022-2.825.013-6.664.013-6.864.013-1.203-.058-2.067-.087-2.777-.105v1.053c.635.39.844,1.026.907,2.072.083,1.362.083,2.554.083,9.194v7.492c0,3.788-.042,5.958-.083,7.619-.069,2.552-.44,3.436-1.042,3.8v.887c.641-.04,1.272-.09,1.892-.09,1.659,0,3.62.085,5.32.128,1.662.042,3.064.127,6.215.127,1.659,0,2.002,0,2.297-1.107.153-.635.367-2.267.479-3.288h-.765c-.337,1.253-.843,1.958-1.969,2.309Z"/>
      <path class="cls-3" d="M514.918,379.818c-.083,0-.253.085-.382.17-.34.212-1.107.212-2.086.255s-9.62.043-10.473.043c-1.074,0-2.232-.052-3.378-.09v.798c1.099.338,1.429,1.001,1.507,2.313.083,1.362.083,2.554.083,9.194v7.492c0,3.999-.042,6.98-.17,8.811-.128,1.872-.423,2.511-1.319,2.766-.119.034-.298.045-.441.068v.692c1.064-.017,2.592-.083,3.336-.121h.382c.15,0,1.482.06,3.076.098v-.935c-.716-.365-1.057-1.245-1.16-2.781-.125-1.959-.125-4.98-.125-8.598v-3.62c0-.297.083-.382.295-.382.725,0,5.365,0,6.431.127,1.674.226,2.152,1.135,2.324,1.969h.772c.022-.597.049-1.297.138-2.181.068-.75.152-1.239.221-1.624h-1.915c-.472.081-1.103.115-2.055.133-1.746.042-4.171.042-5.917.042-.253,0-.295-.127-.295-.382v-11.749c0-.34.125-.469.382-.469,2.173.043,4.341.085,6.514.128,1.232.042,1.999.383,2.509.809.121.104.161.281.249.42h1.329c.033-.513.075-1.029.167-1.697.087-.51.257-1.107.257-1.321,0-.212-.087-.382-.257-.382Z"/>
      <path class="cls-3" d="M531.512,411.57c-1.277-.17-1.53-1.107-1.659-2.341-.212-1.789-.212-5.15-.212-9.236v-7.492c0-6.64,0-7.832.083-9.194.076-1.295.377-1.985,1.201-2.29v-.84c-1.315.035-2.911.11-3.075.11-.145,0-1.443-.06-2.699-.098v1.004c.511.362.764,1.037.829,2.115.083,1.362.083,2.554.083,9.194v7.492c0,4.086,0,7.447-.212,9.236-.17,1.234-.427,2.212-1.277,2.384-.033.007-.069.01-.102.016v.696c1.361-.031,3.204-.117,3.378-.117.171,0,1.932.081,3.822.114v-.732c-.053-.007-.112-.013-.161-.021Z"/>
      <path class="cls-3" d="M572.256,393.715l.005-1.512c-.02-.292-.043-.587-.047-.873-.021-1.522,0-3.046,0-4.567v-6.531c-.558.028-1.033.055-1.246.055-.349,0-1.574-.071-2.967-.107v.769c.041.009.073.009.114.018,1.319.34,1.617,1.277,1.659,4.045l.468,21.621c-1.36-1.404-6-6.597-10.216-11.108-6.552-7.024-12.895-13.876-13.534-14.599-.427-.427-1.149-1.362-1.489-1.362s-.469.467-.469,2.127c.042,8.257-.042,2.724-.042,18.09v6.3c0,3.873-.215,5.106-1.277,5.405-.063.021-.124.018-.187.035-.004.264-.011.531-.018.796,1.41-.034,2.585-.108,2.884-.108.146,0,.55.019,1.056.042v-9.116s-.459-16.975-.459-16.975c1.364,1.532,6.174,6.895,11.108,12.215,4.511,4.853,10.643,11.11,11.112,11.535,2.256,2.256,2.766,2.724,3.106,2.724.298,0,.382-.212.382-3.021l.047-13.457c-.166-.358-.242-.774-.1-1.266.11-.379.097-.78.108-1.176Z"/>
      <path class="cls-3" d="M599.65,410.378c-1.149.34-2.554.383-3.831.383-1.659,0-2.807-.085-3.533-.383-1.062-.425-1.319-1.362-1.402-3.108-.045-.894,0-5.83,0-7.277v-3.746c0-.17.083-.298.295-.298.725,0,4.938.085,6.087.213,1.534.17,2.044.765,2.214,1.404.128.383.17.809.17,1.192,0,.34.045.682.298.682.17,0,.257-.213.298-.639.042-.597.042-1.576.17-2.894.071-.781.161-1.3.233-1.692h-1.8c-.261.052-.568.088-.945.116-.979.085-6.212.085-6.767.085-.212,0-.253-.128-.253-.425v-11.749c0-.298.083-.425.253-.425.469,0,5.108.042,5.834.127,1.87.17,2.766.597,3.064,1.576.066.175.119.398.156.647h.777c.056-.791.096-1.458.129-1.967.087-1.19.34-1.702.34-2.001,0-.212-.042-.382-.17-.382-.125,0-.212.042-.469.17-.253.127-1.02.212-1.957.255-.979.043-9.45.043-9.748.043-1.794-.086-2.875-.113-3.707-.122v.717s.003,0,.004,0c1.406.298,1.746.979,1.832,2.426.083,1.362.083,2.554.083,9.194v7.492c0,3.788-.042,5.958-.083,7.619-.087,3.191-.639,3.788-1.534,4.001-.01.003-.02.003-.03.005v.696c.827-.027,1.628-.106,2.415-.106,1.659,0,3.62.085,5.32.128,1.662.042,3.064.127,6.215.127,1.659,0,2.002,0,2.297-1.107.111-.458.253-1.441.366-2.337h-1.009c-.339.666-.813,1.109-1.613,1.359Z"/>
      <path class="cls-3" d="M639.376,411.503c-1.094-.242-2.703-.848-4.698-2.955-2.471-2.639-5.365-6.427-8.853-10.897,3.827-3.533,5.15-6.682,5.15-9.831,0-2.938-1.874-5.023-2.94-5.79-2.256-1.617-5.104-1.872-7.787-1.872-1.319,0-4.557.128-5.025.128-.157,0-1.666-.07-3.217-.107v.871c.966.355,1.272,1.012,1.347,2.257.083,1.362.083,2.554.083,9.194v7.492c0,4.086,0,7.447-.212,9.236-.17,1.234-.382,2.171-1.236,2.341-.056.013-.126.013-.186.025v.732c1.36-.03,3.216-.118,3.251-.118.164,0,1.758.074,3.542.11v-.789c-1.155-.219-1.416-1.114-1.54-2.3-.212-1.789-.212-5.15-.212-9.236v-1.022c0-.213.083-.34.295-.34l5.237.085c.257,0,.382.085.555.255.85,1.107,2.849,3.958,4.636,6.298,2.429,3.193,3.918,5.278,5.747,6.259,1.107.595,2.173.809,4.557.809h1.505s0-.834,0-.834ZM621.609,397.396c-1.87,0-3.831-.298-4.47-.68-.212-.128-.295-.298-.295-.512v-13.917c0-.257.125-.427.34-.512.423-.127,1.572-.255,2.849-.255,4.557,0,7.364,3.193,7.364,8.512,0,3.236-1.103,5.533-2.596,6.555-.979.682-2.169.809-3.193.809Z"/>
      <path class="cls-3" d="M665.521,380.197c-1.13.038-2.422.089-2.585.089-.34,0-1.7-.128-2.807-.128-.427,0-.68.085-.68.255,0,.213.253.298.639.425.51.128.68.597.68,1.192,0,.554-.17,1.277-.725,2.171-.85,1.406-6.257,10.727-7.065,12.516-.767-1.236-7.149-12.217-7.832-13.451-.34-.639-.552-1.15-.552-1.661,0-.34.212-.595.552-.767.385-.17.639-.212.639-.382s-.083-.298-.552-.298c-1.662,0-3.28.128-3.574.128-.177,0-2.35-.086-3.573-.117v.754c.346.118.722.286,1.06.511.767.51,1.829,1.576,2.894,3.149,1.489,2.214,7.194,11.579,7.492,12.259.552,1.236.979,2.171.979,4.47v3.661c0,.68,0,2.467-.128,4.256-.087,1.234-.469,2.171-1.319,2.341-.096.021-.21.022-.317.042v.717c1.371-.027,3.369-.121,3.551-.121.141,0,1.393.057,2.902.095v-.984c-.677-.387-.923-1.149-.987-2.09-.128-1.789-.128-3.576-.128-4.256v-3.661c0-1.406,0-2.724.639-4.256.767-1.831,6.725-11.834,8.131-13.536.937-1.149,1.406-1.661,2.256-2.171.132-.083.273-.114.412-.178v-.975Z"/>
      <path class="cls-3" d="M694.598,416.125c.087.127.639.765.087.765-.128,0-.344-.17-.514-.297-3.363-2.513-9.45-8.471-9.45-18.857,0-10.258,6.555-16.641,9.536-18.984.212-.127.382-.255.552-.255.385,0-.212.597-.253.682-3.193,3.404-6.684,9.535-6.684,18.09,0,8.554,2.471,14.471,6.725,18.856Z"/>
      <path class="cls-3" d="M710.43,408.591c-.125-1.959-.125-4.98-.125-8.598v-3.62c0-.297.083-.382.295-.382.725,0,5.365,0,6.431.127,2.156.291,2.328,1.71,2.416,2.648h.652c.008-.152.015-.345.022-.517v-3.931c-.015-.002-.029-.004-.044-.007-.315-.055-.632-.101-.948-.153-.507.185-1.222.231-2.612.258-1.746.042-4.171.042-5.917.042-.253,0-.295-.127-.295-.382v-11.749c0-.34.125-.469.382-.469,2.173.043,4.341.085,6.514.128,1.232.042,1.999.383,2.509.809.2.171.303.436.411.692v-3.303c-.331.024-.7.038-1.132.057-.979.043-9.62.043-10.473.043-.867,0-1.81-.037-2.725-.073v1.067c.586.394.794,1.015.855,2.026.083,1.362.083,2.554.083,9.194v7.492c0,3.999-.042,6.98-.17,8.811-.128,1.872-.423,2.511-1.319,2.766-.298.085-.68.128-1.107.17-.382.043-.469.128-.469.255,0,.257.212.342.68.342,1.024,0,2.94-.085,3.79-.128h.382c.158,0,1.617.068,3.321.106v-.859c-.882-.28-1.292-1.169-1.405-2.864Z"/>
      <path class="cls-3" d="M751.833,408.001h-.014c-.076.155-.154.306-.233.42-.892,1.277-2.256,2.086-6.725,2.086h-11.577c6.468-9.79,12.895-19.581,19.069-29.371.17-.255.17-.34.17-.51,0-.255-.212-.34-.85-.34h-11.875c-1.322,0-3.363.042-7.409-.128-1.149-.043-1.402-.298-1.787-.298-.074,0-.112.065-.162.106v4.984c.381-.807,1.028-1.665,2.036-2.196,1.36-.724,3.96-.85,6.128-.85h9.238c-5.917,9.62-12.344,19.196-18.687,28.774-.51.765-.597.979-.597,1.192,0,.297.257.34.767.34,7.451,0,14.599.213,21.71.213.408,0,.632-.032.798-.123v-4.298Z"/>
      <path class="cls-3" d="M785.923,410.956v-2.953c-.176.314-.367.611-.589.843-1.704,1.746-4.213,2.129-7.405,2.129-9.109,0-15.366-7.449-15.366-15.58,0-4.341.722-8.129,3.831-11.108,1.489-1.449,4.13-3.108,9.79-3.108,3.744,0,7.024,1.149,8.512,2.426.514.435.923,1.053,1.227,1.746v-4.8c-1.067-.134-2.102-.264-3.272-.479-2.086-.383-4.47-.51-6.17-.51-6.555,0-10.428,2.001-12.982,4.553-3.79,3.79-4.768,8.769-4.768,11.62,0,4.045,1.02,8.896,5.15,12.601,3.363,3.021,7.662,4.596,14.048,4.596,2.724,0,5.958-.298,7.662-.979.217-.097.357-.174.483-.256-.088-.219-.151-.46-.151-.742Z"/>
      <path class="cls-3" d="M796.741,379.264c-.087-.085-.597-.767-.128-.767.128,0,.382.17.552.298,3.363,2.511,9.45,8.471,9.45,18.856,0,10.258-6.555,16.643-9.533,18.984-.215.128-.385.255-.555.255-.382,0,.215-.595.257-.68,3.193-3.406,6.68-9.535,6.68-18.09s-2.467-14.471-6.722-18.856Z"/>
    </g>
    <g>
      <path class="cls-2" d="M126.758,431.388c-52.196,0-94.331-40.847-95.924-92.993-.029-.996-.045-1.983-.045-2.977,0-52.918,43.051-95.97,95.969-95.97,30.535,0,59.528,14.744,77.559,39.441h.001c12.041,16.497,18.405,36.045,18.405,56.529,0,52.918-43.05,95.97-95.965,95.97ZM126.758,247.192c-48.647,0-88.224,39.578-88.224,88.226,0,.92.017,1.833.043,2.748,1.463,47.929,40.198,85.478,88.182,85.478,48.645,0,88.22-39.578,88.22-88.226,0-18.832-5.85-36.801-16.917-51.963h.001c-16.579-22.706-43.234-36.262-71.305-36.262Z"/>
      <g>
        <path class="cls-2" d="M154.836,386.653v-15.235c0-2.266-.105-4.169-.316-5.71-.211-1.541-.588-3.136-1.132-4.785h7.684c5.263,0,9.315.933,12.157,2.797,2.842,1.865,4.263,4.516,4.263,7.953,0,3.083-1.579,5.564-4.737,7.444-1,.57-2.088,1.079-3.263,1.526l2.974,3.93c1.421,1.834,2.991,3.672,4.71,5.514,1.719,1.842,4.061,4.196,7.026,7.063h-7.35c-2.122-1.572-4.599-3.83-7.43-6.774-2.832-2.944-5.247-5.757-7.246-8.438l-1.078-1.456v6.173c0,2.281.105,4.192.316,5.733.211,1.541.588,3.129,1.132,4.762h-9.131c.526-1.603.895-3.175,1.105-4.716.211-1.541.316-3.468.316-5.78ZM161.099,379.139c2.719-.139,4.929-.832,6.631-2.081,1.965-1.418,2.947-3.283,2.947-5.595,0-2.111-.93-3.815-2.789-5.109-1.737-1.187-4-1.834-6.789-1.942v14.726Z"/>
        <g>
          <path class="cls-2" d="M158.534,328.071v.62c0,14.497-11.752,26.249-26.249,26.249h-7.105v-12.411h4.747c6.889,0,12.473-5.584,12.473-12.473v-3.35c0-6.889-5.584-12.473-12.473-12.473h-21.44c-6.186,0-11.201-5.015-11.201-11.201v-1.21h34.999c14.497,0,26.249,11.752,26.249,26.249Z"/>
          <path class="cls-2" d="M126.09,354.031v-10.593h3.838c7.379,0,13.382-6.003,13.382-13.382v-3.35c0-7.379-6.003-13.382-13.382-13.382h-21.44c-5.675,0-10.292-4.617-10.292-10.292v-.301h34.09c13.973,0,25.34,11.368,25.34,25.34v.62c0,13.973-11.368,25.34-25.34,25.34h-6.196Z"/>
          <path class="cls-2" d="M121.224,387.085h-16.243v-44.705h1.565c8.001,0,14.486,6.486,14.486,14.486v27.727c0,.848.066,1.68.192,2.493Z"/>
          <path class="cls-2" d="M105.89,386.177v-42.888h.656c7.486,0,13.577,6.09,13.577,13.577v27.727c0,.528.024,1.058.073,1.584h-14.306Z"/>
        </g>
        <path class="cls-2" d="M173.524,307.549c-.097-1.353-.288-2.698-.568-4.025-1.652-7.836-6.229-15.091-12.343-20.213-2.955-2.476-6.169-4.693-9.624-6.606-.003,0-.003-.003-.005-.003-.442-.277-.892-.544-1.351-.798-.61-.293-1.228-.578-1.848-.851-1.782-.788-3.609-1.492-5.473-2.107-3.594-1.191-7.331-2.057-11.173-2.568-2.651-.353-5.355-.534-8.098-.534-.188,0-.377,0-.563.003-34.684.314-62.708,29.554-62.708,65.574,0,27.063,15.819,50.297,38.398,60.31,7.635,3.389,16.041,5.263,24.872,5.263,10.37,0,20.156-2.586,28.793-7.166v-2.134h.001v-30.53h-20.263s9.726,5.133,9.726,14.454v10.963c-3.675.697-7.48,1.064-11.377,1.064-31.143,0-56.39-23.383-56.39-52.225,0-20.967,13.338-39.045,32.585-47.357,2.63-1.139,5.373-2.091,8.208-2.845,1.602-.427,3.232-.788,4.889-1.084.722-.05,1.45-.086,2.178-.107,7.875-.241,16.015,1.112,23.925,4.245,3.727,1.479,7.313,3.319,10.679,5.496,5.488,3.554,10.393,8.017,14.411,13.181,1.112,1.426,2.151,2.908,3.12,4.434-.379-.602.052-3.036-.003-3.834Z"/>
      </g>
    </g>
    <polygon class="cls-2" points="634.982 250.253 632.593 252.642 632.593 247.864 637.371 247.864 634.982 250.253"/>
    <polygon class="cls-2" points="673.689 250.253 671.299 252.642 671.299 247.864 676.078 247.864 673.689 250.253"/>
    <polygon class="cls-2" points="650.814 250.253 653.203 252.642 653.203 247.864 648.425 247.864 650.814 250.253"/>
    <polygon class="cls-2" points="673.689 338.946 671.299 336.557 671.299 341.335 676.078 341.335 673.689 338.946"/>
    <polygon class="cls-2" points="650.814 338.946 653.203 336.557 653.203 341.335 648.425 341.335 650.814 338.946"/>
  </g>
</svg>